M48
;Layer_Color=9474304
;FILE_FORMAT=2:4
INCH,LZ
;TYPE=PLATED
T1F00S00C0.0100
T2F00S00C0.0120
T3F00S00C0.0197
T4F00S00C0.0280
T5F00S00C0.0350
T6F00S00C0.0354
T7F00S00C0.0390
T8F00S00C0.0433
T9F00S00C0.0500
T10F00S00C0.0551
T11F00S00C0.0709
T12F00S00C0.1283
%
T01
X045334Y026181
X045846Y025995
X055256Y03272
X057039Y03148
T02
X048816Y018467
X048801Y019617
X05113Y019593
X051137Y018547
X04942Y027402
X048563Y030683
X04889Y031063
X055278Y029657
X054667Y026579
X058231Y027169
X058517Y030297
X046629Y028582
X042621Y02828
X042331Y027998
X042027Y028607
X042365Y029402
X042Y030547
X039548Y031009
X039539Y030007
X039125Y029242
X036347Y029717
X033754Y026892
X031434Y024424
X031383Y023079
X035092Y019492
X034952Y018508
X037293Y01855
Y019503
X039549Y019523
Y018525
X041919Y018479
Y01955
X044273Y01948
X0442Y01847
X046601Y018543
X04661Y01955
X043034Y026335
X042455Y026371
X04039Y026918
X038582Y026331
X027253Y025535
X026113Y021573
X026708Y019802
X026918Y018441
X026922Y01606
X025616Y016333
X024985Y019471
X018421Y016424
X016959Y017502
X017681Y024378
X018454Y024372
X022417Y029978
X025111Y031461
X024667Y034713
X024836Y035544
X022278Y041208
X033334Y033633
X03774Y033604
X039537Y033086
X040148Y035751
X046802Y032662
X046888Y031398
T03
X02126Y012992
X022441
X023622
X024803
X025984
X027165
X028346
X029528
X028937Y014173
X029528Y015354
X023622
X022441
X023031Y014173
X020079Y015354
X047244Y022441
X048425
X049606
X050787
X051968
X05315
X054331
X05374Y023622
X054331Y024803
X054921Y025984
X05374
X052559
Y028346
X051378
X050197
X049016
X050197Y030709
X052559
X05374
X054921
X056102
X057283
Y028346
Y025984
X056693Y024803
X059055
X060236
X060827Y025984
X062008
Y028346
X060236Y027165
X059055
X059646Y025984
X060827Y023622
X062008
X061417Y020079
X060236
X059055
X059646Y02126
X058465
X057283
X056102
X056693Y020079
Y017717
X057874
X059055
X060236
X061417
X055512
X051378Y023622
X049016
X046654
X044882Y022441
X043701
X04252
X041339
X040157
X038976
X037795
X036614
X035433
X034252
X033071
X03189
X03248Y023622
X031299
X03189Y024803
X033071
X035433
X037795
X040157
X038386Y028346
X037795Y029528
X036614
X034843Y030709
Y028346
X033661
X03248
X031299
X03189Y029528
X031299Y030709
X03189Y020079
X033071
X03248Y018898
X03189Y017717
X031299Y016535
X035433Y020079
X043701Y029528
X044882
X046063
X045472Y030709
X044291
X04311
X030118
X028937
X027756
X026575
X027165Y029528
X025984
X026575Y028346
X025394
X024213Y030709
X023031
X020669
X019488
X018898Y029528
X017126Y030709
Y028346
X019488Y025984
X020669
X02185
X023031
X025984Y024803
Y022441
X027165
X028346
X029528
X030709
X027165Y020079
X025394Y02126
X026575Y016535
X027756Y025984
X030118Y028346
X030709Y029528
X029528
Y03189
X030709
X030118Y033071
X028937
X027756
X028346Y03189
X029528Y034252
X030709
X030118Y035433
Y037795
X028937
X027756
Y040157
X028937
X030118
X029528Y041339
X028346
X028937Y04252
X030118
X030709Y043701
X029528
X028937Y044882
X027756
X026575
X025394
X024213
X023031
X02185
X020669
X019488
X020669Y04252
X02185
X023031
X024213
X025394
X026575
X027756
X026575Y040157
X025394
X024213
X023031
X023622Y038976
X024803
X025394Y037795
X024213
X02185
X020669
X020079Y038976
X018898
X017717
X018307Y040157
X017126
Y04252
X018307
X020669Y040157
Y035433
X02126Y034252
X022441
X023622
X024803
X025394Y035433
Y033071
X024213
X02185
X020669
X02126Y03189
X020079
X017717
X018307Y033071
X017126
Y035433
Y037795
X022441Y036614
X031299Y035433
X03189Y034252
X033071
X034252
X035433
X036614
X037795
X037205Y033071
X036024
X034843
X033661
X03248
X031299
X03189Y03189
X034252
X035433
X036614
X038976
X04252
X043701
X044882
X046063
X046654Y040157
X045472
X044291
X04311
X041929
X040748
X039567
X038386
X037205
X036024
X034843
X033661
X03248
X031299
Y044882
X033661
X034843Y04252
X043701Y041339
X046063
X047835Y040157
X049016
X050197
X051378
X052559
X05374
X054921
X056102
X057283
X058465
X059646
X060827
X061417Y038976
X060236
X059055
X059646Y037795
X060827
X062008
X060236Y036614
X059055
X057874
X057283Y035433
X056102
X054921
X05315Y034252
X05374Y033071
X052559
X051378
X050197
X051968Y03189
X05315
X055512
X056693
X057283Y033071
X059055Y03189
X061417
X060827Y033071
X060236Y041339
X059055
X057874
X058465Y04252
X057283
X054921Y044882
X05374
T04
X032362Y030812
X033362
T05
X024705Y013839
X025795
X026886
X027976
X028522Y014957
X027431
X026341
X02525
X024159
T06
X018978Y031461
Y032839
X022807
Y031461
X019357Y039654
Y041654
T07
X03392Y0148
X036375
X038792
X041208
X043624
X04604
X048457
X050873
X053289
Y0158
Y0168
X050873
Y0158
X048457
Y0168
X04604
Y0158
X043624
Y0168
X041208
Y0158
X038792
Y0168
X036375
Y0158
X03392
Y0168
T08
X03133Y025576
X03233
X03033
X02933
X048643Y033948
X049643
X050643
X051643
T09
X028372Y029999
X02837Y032993
X026843Y039402
Y041402
T10
X0341Y01255
X0361
X0381
X0401
X0421
X0442
X0462
X0482
X0502
X0522
X061822Y018954
Y020959
Y022959
Y025059
Y027054
Y027059
Y029059
Y031059
X028551Y044022
X026551
X047681Y043992
X049681
X051681
X053681
X055681
X061822Y037159
Y035159
Y033154
T11
X031645Y043994
X033645
X035645
X037645
X039645
X041645
X043645
X045645
T12
X021421Y014398
X03126
M30
