G04*
G04 #@! TF.GenerationSoftware,Altium Limited,Altium Designer,21.3.2 (30)*
G04*
G04 Layer_Color=128*
%FSTAX24Y24*%
%MOIN*%
G70*
G04*
G04 #@! TF.SameCoordinates,66943899-954D-4C86-8F58-61078407318E*
G04*
G04*
G04 #@! TF.FilePolarity,Positive*
G04*
G01*
G75*
%ADD104C,0.0020*%
D104*
X061547Y025059D02*
X062098D01*
X061822Y024784D02*
Y025335D01*
X061547Y027059D02*
X062098D01*
X061822Y026784D02*
Y027335D01*
X061547Y031059D02*
X062098D01*
X061822Y030784D02*
Y031335D01*
X061547Y029059D02*
X062098D01*
X061822Y028784D02*
Y029335D01*
X061547Y027054D02*
X062098D01*
X061822Y026779D02*
Y02733D01*
X061547Y031059D02*
X062098D01*
X061822Y030784D02*
Y031335D01*
X061547Y029059D02*
X062098D01*
X061822Y028784D02*
Y029335D01*
X037291Y043994D02*
X037999D01*
X037645Y04364D02*
Y044349D01*
X035291Y043994D02*
X035999D01*
X035645Y04364D02*
Y044349D01*
X031291Y043994D02*
X031999D01*
X031645Y04364D02*
Y044349D01*
X033291Y043994D02*
X033999D01*
X033645Y04364D02*
Y044349D01*
X041291Y043994D02*
X041999D01*
X041645Y04364D02*
Y044349D01*
X039291Y043994D02*
X039999D01*
X039645Y04364D02*
Y044349D01*
X043291Y043994D02*
X043999D01*
X043645Y04364D02*
Y044349D01*
X045291Y043994D02*
X045999D01*
X045645Y04364D02*
Y044349D01*
X045924Y01255D02*
X046476D01*
X0462Y012274D02*
Y012826D01*
X047924Y01255D02*
X048476D01*
X0482Y012274D02*
Y012826D01*
X051924Y01255D02*
X052476D01*
X0522Y012274D02*
Y012826D01*
X049924Y01255D02*
X050476D01*
X0502Y012274D02*
Y012826D01*
X043924Y01255D02*
X044476D01*
X0442Y012274D02*
Y012826D01*
X033725Y0148D02*
X034115D01*
X03392Y014605D02*
Y014995D01*
X033725Y0158D02*
X034115D01*
X03392Y015605D02*
Y015995D01*
X033725Y0168D02*
X034115D01*
X03392Y016605D02*
Y016995D01*
X03618Y0148D02*
X03657D01*
X036375Y014605D02*
Y014995D01*
X03618Y0158D02*
X03657D01*
X036375Y015605D02*
Y015995D01*
X03618Y0168D02*
X03657D01*
X036375Y016605D02*
Y016995D01*
X038597Y0148D02*
X038987D01*
X038792Y014605D02*
Y014995D01*
X038597Y0158D02*
X038987D01*
X038792Y015605D02*
Y015995D01*
X038597Y0168D02*
X038987D01*
X038792Y016605D02*
Y016995D01*
X041013Y0148D02*
X041403D01*
X041208Y014605D02*
Y014995D01*
X041013Y0158D02*
X041403D01*
X041208Y015605D02*
Y015995D01*
X041013Y0168D02*
X041403D01*
X041208Y016605D02*
Y016995D01*
X043429Y0168D02*
X043819D01*
X043624Y016605D02*
Y016995D01*
X043429Y0158D02*
X043819D01*
X043624Y015605D02*
Y015995D01*
X043429Y0148D02*
X043819D01*
X043624Y014605D02*
Y014995D01*
X045845Y0148D02*
X046235D01*
X04604Y014605D02*
Y014995D01*
X045845Y0158D02*
X046235D01*
X04604Y015605D02*
Y015995D01*
X045845Y0168D02*
X046235D01*
X04604Y016605D02*
Y016995D01*
X048261Y0148D02*
X048651D01*
X048457Y014605D02*
Y014995D01*
X048261Y0158D02*
X048651D01*
X048457Y015605D02*
Y015995D01*
X048261Y0168D02*
X048651D01*
X048457Y016605D02*
Y016995D01*
X050678Y0148D02*
X051068D01*
X050873Y014605D02*
Y014995D01*
X050678Y0158D02*
X051068D01*
X050873Y015605D02*
Y015995D01*
X050678Y0168D02*
X051068D01*
X050873Y016605D02*
Y016995D01*
X053094Y0148D02*
X053484D01*
X053289Y014605D02*
Y014995D01*
X053094Y0158D02*
X053484D01*
X053289Y015605D02*
Y015995D01*
X053094Y0168D02*
X053484D01*
X053289Y016605D02*
Y016995D01*
X061547Y035159D02*
X062098D01*
X061822Y034884D02*
Y035435D01*
X061547Y037159D02*
X062098D01*
X061822Y036884D02*
Y037435D01*
X061547Y033154D02*
X062098D01*
X061822Y032879D02*
Y03343D01*
X061547Y020959D02*
X062098D01*
X061822Y020684D02*
Y021235D01*
X061547Y022959D02*
X062098D01*
X061822Y022684D02*
Y023235D01*
X061547Y018954D02*
X062098D01*
X061822Y018679D02*
Y01923D01*
X033824Y01255D02*
X034376D01*
X0341Y012274D02*
Y012826D01*
X039824Y01255D02*
X040376D01*
X0401Y012274D02*
Y012826D01*
X041824Y01255D02*
X042376D01*
X0421Y012274D02*
Y012826D01*
X037824Y01255D02*
X038376D01*
X0381Y012274D02*
Y012826D01*
X035824Y01255D02*
X036376D01*
X0361Y012274D02*
Y012826D01*
X02562Y013839D02*
X02597D01*
X025795Y013664D02*
Y014014D01*
X02078Y014398D02*
X022063D01*
X021421Y013756D02*
Y015039D01*
X030618Y014398D02*
X031902D01*
X03126Y013756D02*
Y015039D01*
X027801Y013839D02*
X028151D01*
X027976Y013664D02*
Y014014D01*
X027256Y014957D02*
X027606D01*
X027431Y014782D02*
Y015132D01*
X026711Y013839D02*
X027061D01*
X026886Y013664D02*
Y014014D01*
X026166Y014957D02*
X026516D01*
X026341Y014782D02*
Y015132D01*
X025075Y014957D02*
X025425D01*
X02525Y014782D02*
Y015132D01*
X02453Y013839D02*
X02488D01*
X024705Y013664D02*
Y014014D01*
X023984Y014957D02*
X024334D01*
X024159Y014782D02*
Y015132D01*
X028347Y014957D02*
X028697D01*
X028522Y014782D02*
Y015132D01*
X055406Y043992D02*
X055957D01*
X055681Y043717D02*
Y044268D01*
X049406Y043992D02*
X049957D01*
X049681Y043717D02*
Y044268D01*
X047406Y043992D02*
X047957D01*
X047681Y043717D02*
Y044268D01*
X051406Y043992D02*
X051957D01*
X051681Y043717D02*
Y044268D01*
X053406Y043992D02*
X053957D01*
X053681Y043717D02*
Y044268D01*
X028276Y044022D02*
X028827D01*
X028551Y043746D02*
Y044298D01*
X026276Y044022D02*
X026827D01*
X026551Y043746D02*
Y044298D01*
X048426Y033948D02*
X04886D01*
X048643Y033731D02*
Y034165D01*
X049426Y033948D02*
X04986D01*
X049643Y033731D02*
Y034165D01*
X050426Y033948D02*
X05086D01*
X050643Y033731D02*
Y034165D01*
X051426Y033948D02*
X05186D01*
X051643Y033731D02*
Y034165D01*
X02263Y031461D02*
X022984D01*
X022807Y031283D02*
Y031638D01*
X02263Y032839D02*
X022984D01*
X022807Y032661D02*
Y033016D01*
X01918Y041654D02*
X019534D01*
X019357Y041476D02*
Y041831D01*
X01918Y039654D02*
X019534D01*
X019357Y039476D02*
Y039831D01*
X018801Y032839D02*
X019155D01*
X018978Y032661D02*
Y033016D01*
X018801Y031461D02*
X019155D01*
X018978Y031283D02*
Y031638D01*
X026593Y039402D02*
X027093D01*
X026843Y039152D02*
Y039652D01*
X026593Y041402D02*
X027093D01*
X026843Y041152D02*
Y041652D01*
X045965Y032677D02*
X046161D01*
X046063Y032579D02*
Y032776D01*
X045965Y031102D02*
X046161D01*
X046063Y031004D02*
Y031201D01*
X045965Y029528D02*
X046161D01*
X046063Y029429D02*
Y029626D01*
X045177Y032677D02*
X045374D01*
X045276Y032579D02*
Y032776D01*
X045571Y03189D02*
X045768D01*
X045669Y031791D02*
Y031988D01*
X045177Y031102D02*
X045374D01*
X045276Y031004D02*
Y031201D01*
X045571Y030315D02*
X045768D01*
X045669Y030217D02*
Y030413D01*
X045177Y029528D02*
X045374D01*
X045276Y029429D02*
Y029626D01*
X04439Y032677D02*
X044587D01*
X044488Y032579D02*
Y032776D01*
X044783Y03189D02*
X04498D01*
X044882Y031791D02*
Y031988D01*
X04439Y031102D02*
X044587D01*
X044488Y031004D02*
Y031201D01*
X044783Y030315D02*
X04498D01*
X044882Y030217D02*
Y030413D01*
X04439Y029528D02*
X044587D01*
X044488Y029429D02*
Y029626D01*
X043602Y032677D02*
X043799D01*
X043701Y032579D02*
Y032776D01*
X043996Y03189D02*
X044193D01*
X044095Y031791D02*
Y031988D01*
X043602Y031102D02*
X043799D01*
X043701Y031004D02*
Y031201D01*
X043996Y030315D02*
X044193D01*
X044095Y030217D02*
Y030413D01*
X043602Y029528D02*
X043799D01*
X043701Y029429D02*
Y029626D01*
X042815Y032677D02*
X043012D01*
X042913Y032579D02*
Y032776D01*
X043209Y03189D02*
X043406D01*
X043307Y031791D02*
Y031988D01*
X042815Y031102D02*
X043012D01*
X042913Y031004D02*
Y031201D01*
X043209Y030315D02*
X043406D01*
X043307Y030217D02*
Y030413D01*
X042815Y029528D02*
X043012D01*
X042913Y029429D02*
Y029626D01*
X021795Y036914D02*
X021992D01*
X021893Y036816D02*
Y037013D01*
X018745Y028968D02*
X018942D01*
X018843Y02887D02*
Y029067D01*
X019119Y029361D02*
X019316D01*
X019218Y029262D02*
Y029459D01*
X020933Y035374D02*
X02113D01*
X021031Y035276D02*
Y035473D01*
X020889Y034779D02*
X021086D01*
X020987Y034681D02*
Y034878D01*
X020288Y037076D02*
X020485D01*
X020386Y036978D02*
Y037175D01*
X019696Y037076D02*
X019893D01*
X019794Y036978D02*
Y037175D01*
X019692Y035401D02*
X019889D01*
X01979Y035303D02*
Y0355D01*
X020297Y035335D02*
X020494D01*
X020395Y035237D02*
Y035434D01*
X020311Y034781D02*
X020508D01*
X020409Y034683D02*
Y03488D01*
X019706Y034815D02*
X019903D01*
X019804Y034717D02*
Y034914D01*
X021413Y034834D02*
X02161D01*
X021511Y034736D02*
Y034933D01*
X021788Y037502D02*
X021985D01*
X021886Y037404D02*
Y037601D01*
X02225Y037513D02*
X022447D01*
X022348Y037415D02*
Y037612D01*
X019696Y035903D02*
X019892D01*
X019794Y035805D02*
Y036001D01*
X020329Y036596D02*
X020525D01*
X020427Y036498D02*
Y036694D01*
X019675Y037498D02*
X019871D01*
X019773Y0374D02*
Y037596D01*
X022247Y036114D02*
X022444D01*
X022346Y036015D02*
Y036212D01*
X019694Y03657D02*
X019891D01*
X019793Y036471D02*
Y036668D01*
X022247Y036705D02*
X022444D01*
X022346Y036606D02*
Y036803D01*
X020279Y037492D02*
X020476D01*
X020377Y037394D02*
Y03759D01*
X020279Y035917D02*
X020476D01*
X020377Y035819D02*
Y036016D01*
X039568Y029258D02*
X039688D01*
X039628Y029198D02*
Y029318D01*
X026648Y019802D02*
X026768D01*
X026708Y019742D02*
Y019862D01*
X024925Y019471D02*
X025045D01*
X024985Y019411D02*
Y019531D01*
X027009Y018253D02*
X027129D01*
X027069Y018193D02*
Y018313D01*
X025663Y016472D02*
X025783D01*
X025723Y016412D02*
Y016532D01*
X030156Y032303D02*
X030656D01*
X030406Y032053D02*
Y032553D01*
X030158Y029309D02*
X030658D01*
X030408Y029059D02*
Y029559D01*
X035032Y019492D02*
X035152D01*
X035092Y019432D02*
Y019552D01*
X034892Y018508D02*
X035012D01*
X034952Y018448D02*
Y018568D01*
X037233Y019503D02*
X037353D01*
X037293Y019443D02*
Y019563D01*
X037233Y01855D02*
X037353D01*
X037293Y01849D02*
Y01861D01*
X039489Y019523D02*
X039609D01*
X039549Y019463D02*
Y019583D01*
X039489Y018525D02*
X039609D01*
X039549Y018465D02*
Y018585D01*
X041859Y01955D02*
X041979D01*
X041919Y01949D02*
Y01961D01*
X041859Y018479D02*
X041979D01*
X041919Y018419D02*
Y018539D01*
X044213Y01948D02*
X044333D01*
X044273Y01942D02*
Y01954D01*
X04414Y01847D02*
X04426D01*
X0442Y01841D02*
Y01853D01*
X048741Y019617D02*
X048861D01*
X048801Y019557D02*
Y019677D01*
X046541Y018543D02*
X046661D01*
X046601Y018483D02*
Y018603D01*
X04655Y01955D02*
X04667D01*
X04661Y01949D02*
Y01961D01*
X048756Y018467D02*
X048876D01*
X048816Y018407D02*
Y018527D01*
X05107Y019593D02*
X05119D01*
X05113Y019533D02*
Y019653D01*
X051077Y018547D02*
X051197D01*
X051137Y018487D02*
Y018607D01*
X026345Y016369D02*
X026465D01*
X026405Y016309D02*
Y016429D01*
X017621Y024378D02*
X017741D01*
X017681Y024318D02*
Y024438D01*
X024607Y034713D02*
X024727D01*
X024667Y034653D02*
Y034773D01*
X022357Y029978D02*
X022477D01*
X022417Y029918D02*
Y030038D01*
X025051Y031461D02*
X025171D01*
X025111Y031401D02*
Y031521D01*
X036287Y029717D02*
X036407D01*
X036347Y029657D02*
Y029777D01*
X046742Y032662D02*
X046862D01*
X046802Y032602D02*
Y032722D01*
X039415Y031153D02*
X039535D01*
X039475Y031093D02*
Y031213D01*
X046828Y031398D02*
X046948D01*
X046888Y031338D02*
Y031458D01*
X042271Y027998D02*
X042391D01*
X042331Y027938D02*
Y028058D01*
X042561Y02828D02*
X042681D01*
X042621Y02822D02*
Y02834D01*
X042305Y029402D02*
X042425D01*
X042365Y029342D02*
Y029462D01*
X041967Y028607D02*
X042087D01*
X042027Y028547D02*
Y028667D01*
X046569Y028582D02*
X046689D01*
X046629Y028522D02*
Y028642D01*
X058171Y027169D02*
X058291D01*
X058231Y027109D02*
Y027229D01*
X04194Y030547D02*
X04206D01*
X042Y030487D02*
Y030607D01*
X048503Y030683D02*
X048623D01*
X048563Y030623D02*
Y030743D01*
X038522Y026331D02*
X038642D01*
X038582Y026271D02*
Y026391D01*
X04033Y026918D02*
X04045D01*
X04039Y026858D02*
Y026978D01*
X042395Y026371D02*
X042515D01*
X042455Y026311D02*
Y026431D01*
X042974Y026335D02*
X043094D01*
X043034Y026275D02*
Y026395D01*
X045796Y025995D02*
X045896D01*
X045846Y025945D02*
Y026045D01*
X045284Y026181D02*
X045384D01*
X045334Y026131D02*
Y026231D01*
X04883Y031063D02*
X04895D01*
X04889Y031003D02*
Y031123D01*
X018394Y024372D02*
X018514D01*
X018454Y024312D02*
Y024432D01*
X039762Y033205D02*
X039882D01*
X039822Y033145D02*
Y033265D01*
X040088Y035751D02*
X040208D01*
X040148Y035691D02*
Y035811D01*
X031374Y024424D02*
X031494D01*
X031434Y024364D02*
Y024484D01*
X031323Y023079D02*
X031443D01*
X031383Y023019D02*
Y023139D01*
X054607Y026579D02*
X054727D01*
X054667Y026519D02*
Y026639D01*
X024776Y035544D02*
X024896D01*
X024836Y035484D02*
Y035604D01*
X022218Y041208D02*
X022338D01*
X022278Y041148D02*
Y041268D01*
X03446Y033633D02*
X03458D01*
X03452Y033573D02*
Y033693D01*
X04936Y027402D02*
X04948D01*
X04942Y027342D02*
Y027462D01*
X055218Y029657D02*
X055338D01*
X055278Y029597D02*
Y029717D01*
X058457Y030297D02*
X058577D01*
X058517Y030237D02*
Y030357D01*
X038587Y033201D02*
X038707D01*
X038647Y033141D02*
Y033261D01*
X039508Y030013D02*
X039628D01*
X039568Y029953D02*
Y030073D01*
X056989Y03148D02*
X057089D01*
X057039Y03143D02*
Y03153D01*
X055206Y03272D02*
X055306D01*
X055256Y03267D02*
Y03277D01*
M02*
