G04*
G04 #@! TF.GenerationSoftware,Altium Limited,Altium Designer,21.3.2 (30)*
G04*
G04 Layer_Color=65535*
%FSTAX24Y24*%
%MOIN*%
G70*
G04*
G04 #@! TF.SameCoordinates,BE8E01B3-19C9-4167-8173-06ED14820A8A*
G04*
G04*
G04 #@! TF.FilePolarity,Positive*
G04*
G01*
G75*
%ADD10C,0.0118*%
%ADD11C,0.0100*%
%ADD12C,0.0079*%
%ADD13C,0.0098*%
%ADD14C,0.0236*%
%ADD15C,0.0050*%
%ADD16C,0.0070*%
%ADD17C,0.0040*%
%ADD18C,0.0080*%
%ADD19C,0.0060*%
%ADD20R,0.0250X0.0140*%
%ADD21R,0.0500X0.1000*%
%ADD22R,0.0360X0.3990*%
%ADD23R,0.1000X0.0500*%
G36*
X017669Y017951D02*
X017919Y018451D01*
X017419D01*
X017669Y017951D01*
D02*
G37*
G36*
X028383Y016633D02*
X028183Y016833D01*
X027983Y016633D01*
X028383D01*
D02*
G37*
G36*
X034675Y022427D02*
Y022666D01*
X03491D01*
Y022427D01*
X034675D01*
D02*
G37*
G36*
X031643Y039823D02*
Y040062D01*
X031878D01*
Y039823D01*
X031643D01*
D02*
G37*
G36*
X033933D02*
Y040062D01*
X034168D01*
Y039823D01*
X033933D01*
D02*
G37*
G36*
X036224D02*
Y040062D01*
X036459D01*
Y039823D01*
X036224D01*
D02*
G37*
G36*
X036928Y022427D02*
Y022666D01*
X037163D01*
Y022427D01*
X036928D01*
D02*
G37*
G36*
X0392D02*
Y022666D01*
X039435D01*
Y022427D01*
X0392D01*
D02*
G37*
G36*
X041453D02*
Y022666D01*
X041688D01*
Y022427D01*
X041453D01*
D02*
G37*
G36*
X038514Y039823D02*
Y040062D01*
X038749D01*
Y039823D01*
X038514D01*
D02*
G37*
G36*
X040805D02*
Y040062D01*
X04104D01*
Y039823D01*
X040805D01*
D02*
G37*
G36*
X043095D02*
Y040062D01*
X04333D01*
Y039823D01*
X043095D01*
D02*
G37*
G36*
X043706Y022427D02*
Y022666D01*
X043941D01*
Y022427D01*
X043706D01*
D02*
G37*
G36*
X045978D02*
Y022666D01*
X046213D01*
Y022427D01*
X045978D01*
D02*
G37*
G36*
X048251D02*
Y022666D01*
X048486D01*
Y022427D01*
X048251D01*
D02*
G37*
G36*
X050523Y022504D02*
Y022742D01*
X050758D01*
Y022504D01*
X050523D01*
D02*
G37*
G36*
X052796Y022554D02*
Y022792D01*
X053031D01*
Y022554D01*
X052796D01*
D02*
G37*
G36*
X05573Y029452D02*
X05593Y029652D01*
X05573Y029852D01*
Y029452D01*
D02*
G37*
G36*
X045386Y039823D02*
Y040062D01*
X045621D01*
Y039823D01*
X045386D01*
D02*
G37*
G36*
X047676D02*
Y040062D01*
X047911D01*
Y039823D01*
X047676D01*
D02*
G37*
G36*
X049967D02*
Y040062D01*
X050202D01*
Y039823D01*
X049967D01*
D02*
G37*
G36*
X052257D02*
Y040062D01*
X052492D01*
Y039823D01*
X052257D01*
D02*
G37*
G36*
X054548D02*
Y040062D01*
X054783D01*
Y039823D01*
X054548D01*
D02*
G37*
G36*
X056838D02*
Y040062D01*
X057073D01*
Y039823D01*
X056838D01*
D02*
G37*
G36*
X054498Y030178D02*
X054512D01*
X054525Y030176D01*
X054536Y030174D01*
X054545Y030173D01*
X054551Y030172D01*
X054556Y030171D01*
X054557D01*
X054575Y030166D01*
X054584Y030162D01*
X054591Y03016D01*
X054596Y030157D01*
X054602Y030155D01*
X054604Y030154D01*
X054605Y030153D01*
X054613Y030148D01*
X05462Y030143D01*
X054626Y030138D01*
X05463Y030135D01*
X054635Y030129D01*
X054638Y030127D01*
Y030126D01*
X054644Y030114D01*
X054647Y030103D01*
X054649Y030098D01*
X05465Y030094D01*
Y030091D01*
Y03009D01*
X054651Y030075D01*
X05465Y03006D01*
X054649Y030054D01*
Y03005D01*
X054647Y030047D01*
Y030045D01*
X054643Y030033D01*
X05464Y03002D01*
X054638Y030015D01*
X054635Y030012D01*
X054634Y030008D01*
Y030007D01*
X054628Y029991D01*
X054622Y029978D01*
X05462Y029973D01*
X054618Y029969D01*
X054617Y029967D01*
Y029966D01*
X054616Y029964D01*
X054613Y029959D01*
X05461Y029954D01*
X054606Y029947D01*
X054597Y029933D01*
X054588Y029917D01*
X054579Y0299D01*
X054571Y029886D01*
X054568Y02988D01*
X054566Y029876D01*
X054564Y029874D01*
X054563Y029873D01*
X054546Y029843D01*
X054528Y029814D01*
X054511Y029785D01*
X054496Y029758D01*
X054488Y029746D01*
X054481Y029735D01*
X054476Y029725D01*
X054472Y029718D01*
X054467Y029711D01*
X054464Y029706D01*
X054463Y029702D01*
X054462Y029701D01*
X054441Y029667D01*
X054422Y029636D01*
X054406Y029607D01*
X054398Y029594D01*
X054391Y029583D01*
X054385Y029572D01*
X054379Y029563D01*
X054374Y029556D01*
X05437Y029548D01*
X054367Y029544D01*
X054364Y029539D01*
X054362Y029537D01*
Y029536D01*
X054353Y02952D01*
X054345Y029507D01*
X054338Y029494D01*
X054332Y029483D01*
X054326Y029473D01*
X054322Y029465D01*
X054317Y029459D01*
X054314Y029452D01*
X054309Y029444D01*
X054306Y029439D01*
X054304Y029437D01*
Y029436D01*
X054298Y029426D01*
X05429Y029417D01*
X054285Y029409D01*
X054284Y029408D01*
X054282Y029407D01*
X054274Y029397D01*
X054266Y02939D01*
X054262Y029385D01*
X054259Y029383D01*
X054244Y02937D01*
X054229Y029358D01*
X054214Y029348D01*
X0542Y029339D01*
X05419Y029332D01*
X05418Y029327D01*
X054174Y029324D01*
X054173Y029323D01*
X054172D01*
X054155Y029314D01*
X054138Y029308D01*
X054122Y029302D01*
X054108Y029298D01*
X054096Y029295D01*
X054087Y029292D01*
X05408Y02929D01*
X054078D01*
X054065Y029288D01*
X054051Y029287D01*
X054045D01*
X054041Y029286D01*
X054027D01*
X054015Y029285D01*
X053918D01*
X05391Y029286D01*
X053896D01*
X05389Y029287D01*
X053887Y029288D01*
X053885Y029291D01*
X053883Y029293D01*
Y029298D01*
X053885Y0293D01*
X053886Y029301D01*
X053887Y029303D01*
X053889Y029308D01*
X053892Y029313D01*
X0539Y029326D01*
X05391Y029343D01*
X053918Y029358D01*
X053926Y029371D01*
X053929Y029377D01*
X053932Y029381D01*
X053934Y029383D01*
Y029384D01*
X053953Y029417D01*
X053973Y029452D01*
X053994Y029486D01*
X054012Y029518D01*
X054021Y029532D01*
X054029Y029545D01*
X054035Y029557D01*
X054041Y029567D01*
X054046Y029575D01*
X05405Y029581D01*
X054052Y029585D01*
X054053Y029586D01*
X054078Y029629D01*
X054101Y029668D01*
X054112Y029686D01*
X054122Y029702D01*
X054131Y029719D01*
X054139Y029733D01*
X054146Y029745D01*
X054152Y029757D01*
X054159Y029767D01*
X054163Y029774D01*
X054167Y029781D01*
X05417Y029785D01*
X054172Y029789D01*
Y02979D01*
X054181Y029805D01*
X054188Y029818D01*
X054196Y02983D01*
X054202Y02984D01*
X054207Y029849D01*
X05421Y029855D01*
X054215Y029862D01*
X054217Y029866D01*
X054221Y029874D01*
X054223Y029877D01*
X054225Y029879D01*
X054228Y029886D01*
X05423Y029892D01*
X054232Y029897D01*
Y029899D01*
X054234Y029907D01*
X054237Y029912D01*
Y029915D01*
Y029917D01*
X054235Y029922D01*
X054234Y029926D01*
X054233Y02993D01*
X054232Y029931D01*
X054228Y029935D01*
X054225Y029939D01*
X05422Y029942D01*
X054219Y029943D01*
X054208D01*
X054205Y029944D01*
X054172D01*
X054169Y029943D01*
X054163D01*
X054158Y029942D01*
X054153Y029941D01*
X054151D01*
X054133Y029933D01*
X054125Y029929D01*
X054117Y029924D01*
X054111Y029921D01*
X054106Y029918D01*
X054103Y029915D01*
X054102Y029914D01*
X054093Y029907D01*
X054086Y029899D01*
X054071Y029883D01*
X054066Y029875D01*
X054062Y029869D01*
X054059Y029865D01*
X054058Y029864D01*
X054057Y029863D01*
X054055Y02986D01*
X054052Y029854D01*
X054049Y029849D01*
X05404Y029835D01*
X05403Y029818D01*
X054021Y029802D01*
X054012Y029788D01*
X054009Y029782D01*
X054007Y029778D01*
X054006Y029776D01*
X054005Y029774D01*
X053985Y029742D01*
X053965Y029708D01*
X053945Y029674D01*
X053926Y029642D01*
X053918Y029628D01*
X05391Y029615D01*
X053903Y029604D01*
X053898Y029594D01*
X053892Y029585D01*
X053889Y02958D01*
X053887Y029575D01*
X053886Y029574D01*
X053861Y029533D01*
X053839Y029495D01*
X053828Y029477D01*
X053818Y029461D01*
X053809Y029445D01*
X0538Y029431D01*
X053794Y029419D01*
X053787Y029408D01*
X053781Y029398D01*
X053776Y029391D01*
X053773Y029384D01*
X05377Y02938D01*
X053769Y029377D01*
X053768Y029375D01*
X053759Y029361D01*
X053751Y029348D01*
X053745Y029337D01*
X053739Y029327D01*
X053735Y02932D01*
X05373Y029313D01*
X053727Y029308D01*
X053725Y029303D01*
X053721Y029297D01*
X05372Y029293D01*
X053718Y029292D01*
X053713Y02929D01*
X053704Y029288D01*
X053694Y029287D01*
X053683Y029286D01*
X053674Y029285D01*
X053429D01*
X05342Y029286D01*
X053411D01*
X053405Y029287D01*
X053399Y029288D01*
X053395Y029289D01*
X053388Y029292D01*
X053385Y029295D01*
X053383Y029297D01*
Y029298D01*
Y029299D01*
X053384Y0293D01*
X053385Y029302D01*
X053387Y029307D01*
X053391Y029312D01*
X053399Y029326D01*
X053408Y029342D01*
X053417Y029357D01*
X053426Y029371D01*
X053429Y029377D01*
X053431Y029381D01*
X053433Y029383D01*
Y029384D01*
X053453Y029417D01*
X053474Y029452D01*
X053493Y029486D01*
X053513Y029519D01*
X053522Y029533D01*
X053529Y029546D01*
X053537Y029558D01*
X053542Y029569D01*
X053548Y029577D01*
X053551Y029583D01*
X053553Y029588D01*
X053555Y029589D01*
X053724Y029876D01*
X05373Y029896D01*
X053734Y029903D01*
X053735Y029908D01*
X053736Y02991D01*
Y029911D01*
Y029918D01*
Y029919D01*
Y02992D01*
X053734Y029927D01*
X053729Y029934D01*
X053726Y029937D01*
X053724Y029938D01*
X05372Y029941D01*
X053714Y029943D01*
X053703Y029944D01*
X053698Y029945D01*
X053682D01*
X053676Y029944D01*
X053671Y029943D01*
X053669D01*
X053662Y029942D01*
X053655Y029941D01*
X053651Y029939D01*
X053649Y029938D01*
X05364Y029935D01*
X053631Y029932D01*
X053623Y029927D01*
X053617Y029923D01*
X053611Y02992D01*
X053607Y029917D01*
X053604Y029914D01*
X053603Y029913D01*
X053587Y029899D01*
X053575Y029885D01*
X053571Y029878D01*
X053568Y029874D01*
X053565Y029871D01*
X053564Y029869D01*
X053563Y029867D01*
X053561Y029864D01*
X053558Y029859D01*
X053555Y029853D01*
X053546Y029839D01*
X053536Y029824D01*
X053526Y029808D01*
X053518Y029795D01*
X053515Y02979D01*
X053513Y029785D01*
X053512Y029783D01*
X053511Y029782D01*
X053491Y02975D01*
X053471Y029716D01*
X053451Y029683D01*
X053432Y02965D01*
X053423Y029636D01*
X053416Y029621D01*
X053408Y029609D01*
X053403Y029598D01*
X053397Y02959D01*
X053394Y029583D01*
X053392Y029579D01*
X053391Y029578D01*
X053365Y029536D01*
X053344Y029499D01*
X053333Y029481D01*
X053323Y029465D01*
X053314Y02945D01*
X053306Y029437D01*
X053299Y029424D01*
X053292Y029413D01*
X053287Y029404D01*
X053282Y029395D01*
X053279Y02939D01*
X053276Y029384D01*
X053275Y029382D01*
X053274Y029381D01*
X053265Y029367D01*
X053257Y029355D01*
X053252Y029344D01*
X053245Y029334D01*
X053241Y029326D01*
X053236Y02932D01*
X053233Y029314D01*
X053231Y02931D01*
X053228Y029303D01*
X053226Y0293D01*
X053224Y029299D01*
X053216Y029285D01*
X052945D01*
X052936Y029286D01*
X052907D01*
X052899Y029287D01*
X052892Y029288D01*
X052888Y02929D01*
X052886Y029293D01*
X052884Y029296D01*
Y029298D01*
Y029299D01*
Y0293D01*
X052886Y029301D01*
X052888Y029306D01*
X05289Y02931D01*
X052894Y029316D01*
X052898Y029322D01*
X0529Y029327D01*
X052902Y029331D01*
X052903Y029332D01*
X052911Y029344D01*
X052919Y029358D01*
X052929Y029373D01*
X052938Y029389D01*
X052946Y029402D01*
X052952Y029413D01*
X052954Y029417D01*
X052957Y02942D01*
X052958Y029421D01*
Y029422D01*
X052971Y029445D01*
X052984Y029468D01*
X052997Y029489D01*
X053009Y029509D01*
X053019Y029524D01*
X053023Y029532D01*
X053028Y029537D01*
X05303Y029542D01*
X053032Y029545D01*
X053034Y029547D01*
Y029548D01*
X053052Y029579D01*
X05307Y029609D01*
X053087Y029639D01*
X053103Y029666D01*
X05311Y029679D01*
X053116Y02969D01*
X053122Y0297D01*
X053127Y029709D01*
X05313Y029715D01*
X053134Y029721D01*
X053135Y029724D01*
X053136Y029725D01*
X053391Y030156D01*
X05356Y030157D01*
X053665D01*
X053673Y030156D01*
X053696D01*
X053708Y030155D01*
X053715Y030154D01*
X053722Y030151D01*
X053725Y030149D01*
X053727Y030147D01*
Y030146D01*
Y030144D01*
X053726Y030143D01*
X053725Y030141D01*
X053722Y030134D01*
X053717Y030129D01*
X053716Y030127D01*
Y030126D01*
X05371Y030114D01*
X053703Y030102D01*
X053701Y030098D01*
X053699Y030094D01*
X053697Y030091D01*
Y03009D01*
X053691Y03008D01*
X053929Y030168D01*
X053948Y030172D01*
X053951Y030174D01*
X053958Y030176D01*
X053964Y030177D01*
X053972Y030178D01*
X054004D01*
X054014Y030177D01*
X054029D01*
X054034Y030176D01*
X05404D01*
X05405Y030173D01*
X054059Y030172D01*
X054066Y030171D01*
X054067Y03017D01*
X054068D01*
X054079Y030168D01*
X054087Y030166D01*
X054091Y030165D01*
X054092Y030164D01*
X054104Y030157D01*
X054115Y03015D01*
X054123Y030144D01*
X054131Y030136D01*
X054135Y030131D01*
X054139Y030125D01*
X05414Y030122D01*
X054141Y030121D01*
X054147Y03011D01*
X05415Y030099D01*
X054152Y030088D01*
X054153Y030078D01*
Y030068D01*
Y030062D01*
X054171Y030076D01*
X054192Y03009D01*
X054211Y030103D01*
X05423Y030113D01*
X054245Y030122D01*
X054257Y030129D01*
X054262Y030131D01*
X054265Y030133D01*
X054267Y030134D01*
X054268D01*
X054292Y030144D01*
X054316Y030153D01*
X054339Y03016D01*
X05436Y030166D01*
X054378Y030169D01*
X054385Y030171D01*
X054392Y030172D01*
X054397Y030173D01*
X0544Y030174D01*
X054404D01*
X054431Y030178D01*
X054444Y030179D01*
X054482D01*
X054498Y030178D01*
D02*
G37*
G36*
X053195Y030155D02*
X053227D01*
X053236Y030153D01*
X053243Y03015D01*
X053247Y030148D01*
X05325Y030146D01*
X053251Y030144D01*
Y030143D01*
Y030142D01*
X05325Y030141D01*
X053247Y030137D01*
X053244Y030132D01*
X053241Y030126D01*
X053238Y030121D01*
X053234Y030115D01*
X053232Y030112D01*
X053231Y030111D01*
X053222Y030096D01*
X053213Y03008D01*
X053205Y030064D01*
X053196Y03005D01*
X053189Y030037D01*
X053183Y030027D01*
X053179Y030019D01*
X053177Y030018D01*
Y030017D01*
X053164Y029996D01*
X053151Y029974D01*
X053138Y029953D01*
X053126Y029933D01*
X053115Y029915D01*
X053111Y029908D01*
X053106Y029901D01*
X053103Y029897D01*
X053101Y029892D01*
X0531Y02989D01*
X053099Y029889D01*
X05308Y029857D01*
X053063Y029826D01*
X053046Y029796D01*
X053031Y02977D01*
X053024Y029758D01*
X053018Y029748D01*
X053012Y029738D01*
X053008Y029731D01*
X053005Y029724D01*
X053001Y02972D01*
X053Y029716D01*
X052999Y029715D01*
X052745Y029285D01*
X052407D01*
X052442Y029349D01*
X052448Y029359D01*
X052446Y029358D01*
X052445Y029357D01*
X052432Y029348D01*
X052421Y02934D01*
X052414Y029336D01*
X052413Y029334D01*
X052412D01*
X052388Y029321D01*
X052377Y029315D01*
X052366Y02931D01*
X052358Y029306D01*
X052351Y029302D01*
X052347Y029301D01*
X052345Y0293D01*
X052318Y02929D01*
X052307Y029286D01*
X052298Y029283D01*
X052289Y02928D01*
X052282Y029278D01*
X052278Y029277D01*
X052277D01*
X052254Y029273D01*
X052231Y029269D01*
X052209Y029267D01*
X05219Y029266D01*
X052174Y029265D01*
X05215D01*
X052127Y029266D01*
X052107Y029268D01*
X052091Y029272D01*
X052077Y029274D01*
X052066Y029277D01*
X052057Y02928D01*
X052053Y029281D01*
X052051Y029283D01*
X052041Y029288D01*
X052032Y029293D01*
X052024Y029299D01*
X052018Y029304D01*
X052012Y029309D01*
X052009Y029312D01*
X052007Y029314D01*
X052006Y029315D01*
X052Y029323D01*
X051996Y02933D01*
X051993Y029337D01*
X05199Y029344D01*
X051989Y02935D01*
X051988Y029355D01*
Y029358D01*
Y029359D01*
Y029377D01*
X05199Y029394D01*
X051993Y029402D01*
X051994Y029407D01*
X051995Y029412D01*
Y029413D01*
X052002Y029437D01*
X052007Y029448D01*
X052011Y029457D01*
X052016Y029466D01*
X052018Y029473D01*
X05202Y029477D01*
X052021Y029478D01*
X052022Y02948D01*
X052024Y029484D01*
X052028Y029489D01*
X052032Y029496D01*
X052041Y029512D01*
X052052Y029531D01*
X052063Y029548D01*
X052067Y029556D01*
X052071Y029563D01*
X052075Y02957D01*
X052078Y029574D01*
X052079Y029578D01*
X05208Y029579D01*
X052102Y029615D01*
X052123Y029652D01*
X052143Y029687D01*
X052153Y029702D01*
X052163Y029719D01*
X052171Y029733D01*
X052178Y029745D01*
X052186Y029757D01*
X052192Y029767D01*
X052196Y029774D01*
X052199Y029781D01*
X052201Y029784D01*
X052202Y029785D01*
X052228Y029826D01*
X052251Y029865D01*
X052272Y029902D01*
X052282Y029919D01*
X052292Y029934D01*
X052301Y029949D01*
X052308Y029961D01*
X052315Y029973D01*
X05232Y029982D01*
X052325Y029991D01*
X052328Y029996D01*
X05233Y03D01*
X052331Y030001D01*
X052343Y03002D01*
X052353Y030038D01*
X052363Y030054D01*
X052371Y030068D01*
X052378Y030082D01*
X052385Y030094D01*
X05239Y030103D01*
X052396Y030111D01*
X052399Y030119D01*
X052402Y030124D01*
X052406Y03013D01*
X052408Y030133D01*
X05241Y030138D01*
X052411Y030139D01*
X052423Y030141D01*
X05242Y030156D01*
X052696D01*
X052704Y030155D01*
X052726D01*
X052736Y030154D01*
X052744Y030153D01*
X052749Y030149D01*
X052751Y030147D01*
X052753Y030145D01*
Y030143D01*
Y030142D01*
Y030141D01*
X052752Y030138D01*
X05275Y030135D01*
X052747Y03013D01*
X052742Y030123D01*
X052734Y030108D01*
X052724Y03009D01*
X052713Y030074D01*
X052709Y030065D01*
X052705Y030059D01*
X052701Y030053D01*
X052699Y030049D01*
X052698Y030045D01*
X052696Y030044D01*
X052676Y03001D01*
X052655Y029976D01*
X052635Y029943D01*
X052618Y029912D01*
X052609Y029898D01*
X052601Y029886D01*
X052595Y029874D01*
X052589Y029865D01*
X052585Y029857D01*
X052582Y029851D01*
X05258Y029848D01*
X052578Y029847D01*
X052555Y029808D01*
X052535Y029773D01*
X052525Y029757D01*
X052516Y029742D01*
X052509Y029727D01*
X052501Y029715D01*
X052494Y029703D01*
X052488Y029694D01*
X052482Y029685D01*
X052478Y029677D01*
X052475Y029672D01*
X052472Y029667D01*
X052471Y029665D01*
X05247Y029664D01*
X05246Y029648D01*
X052452Y029632D01*
X052444Y029619D01*
X052437Y029608D01*
X052432Y0296D01*
X052428Y029591D01*
X052424Y029584D01*
X052421Y029579D01*
X052419Y029575D01*
X052417Y029572D01*
X052414Y029568D01*
X052413Y029566D01*
X05241Y029558D01*
X052407Y02955D01*
X052405Y029546D01*
X052404Y029544D01*
X052401Y029537D01*
X0524Y029531D01*
X052399Y029526D01*
Y029525D01*
Y02952D01*
X0524Y029515D01*
X052401Y029512D01*
Y029511D01*
X052405Y029507D01*
X052408Y029503D01*
X05241Y029501D01*
X052411Y0295D01*
X052419Y029497D01*
X052422Y029496D01*
X052446D01*
X052459Y029497D01*
X05247Y029498D01*
X052477Y029499D01*
X052479D01*
X052489Y029502D01*
X052495Y029504D01*
X052501Y029507D01*
X052502Y029508D01*
X052518Y029518D01*
X05253Y029526D01*
X052535Y02953D01*
X052538Y029533D01*
X05254Y029534D01*
X052541Y029535D01*
X052553Y029547D01*
X052562Y029558D01*
X052565Y029563D01*
X052569Y029567D01*
X05257Y029569D01*
X052571Y02957D01*
X052572Y029571D01*
X052573Y029574D01*
X052576Y029578D01*
X05258Y029583D01*
X052587Y029596D01*
X052596Y02961D01*
X052606Y029625D01*
X052613Y029637D01*
X052617Y029642D01*
X052619Y029645D01*
X052621Y029648D01*
Y029649D01*
X052643Y029688D01*
X052665Y029725D01*
X052686Y029761D01*
X052695Y029778D01*
X052704Y029793D01*
X052713Y029807D01*
X052721Y02982D01*
X052727Y029831D01*
X052733Y029841D01*
X052737Y029849D01*
X05274Y029855D01*
X052742Y029859D01*
X052744Y02986D01*
X052766Y029899D01*
X052788Y029936D01*
X052808Y029969D01*
X052817Y029984D01*
X052824Y029998D01*
X052832Y03001D01*
X052839Y030021D01*
X052844Y030031D01*
X05285Y03004D01*
X052853Y030047D01*
X052856Y030051D01*
X052857Y030054D01*
X052858Y030055D01*
X052868Y030071D01*
X052876Y030085D01*
X052883Y030098D01*
X052889Y030108D01*
X052894Y030118D01*
X052899Y030125D01*
X052903Y030133D01*
X052906Y030138D01*
X052911Y030147D01*
X052913Y030151D01*
X052914Y030154D01*
Y030155D01*
X052995D01*
X053016Y030156D01*
X053181D01*
X053195Y030155D01*
D02*
G37*
G36*
X052244D02*
X052266D01*
X052276Y030154D01*
X052283Y030151D01*
X052288Y030149D01*
X05229Y030146D01*
X052291Y030143D01*
X052292Y030139D01*
X052291Y030138D01*
Y030137D01*
X05229Y030136D01*
X052288Y030133D01*
X052284Y030127D01*
X05228Y03012D01*
X052274Y030111D01*
X052268Y030101D01*
X052255Y03008D01*
X052241Y030059D01*
X052235Y030049D01*
X05223Y03004D01*
X052224Y030032D01*
X052221Y030027D01*
X052219Y030023D01*
X052218Y030021D01*
X052187Y029971D01*
X052158Y029919D01*
X052128Y029868D01*
X052114Y029845D01*
X052101Y029822D01*
X052089Y029802D01*
X052078Y029783D01*
X052068Y029766D01*
X052059Y029751D01*
X052053Y029739D01*
X052047Y029731D01*
X052044Y029725D01*
X052043Y029723D01*
X052008Y029663D01*
X051992Y029633D01*
X051975Y029606D01*
X05196Y02958D01*
X051946Y029556D01*
X051932Y029533D01*
X05192Y029512D01*
X051908Y029492D01*
X051899Y029475D01*
X05189Y029461D01*
X051883Y029448D01*
X051877Y029438D01*
X051872Y029431D01*
X05187Y029426D01*
X051869Y029425D01*
X051856Y029402D01*
X051844Y029382D01*
X051833Y029365D01*
X051824Y029349D01*
X051817Y029335D01*
X05181Y029324D01*
X051805Y029314D01*
X0518Y029307D01*
X051797Y0293D01*
X051795Y029296D01*
X051793Y029291D01*
X051791Y029289D01*
X051789Y029286D01*
Y029285D01*
X051488D01*
X05148Y029286D01*
X05147Y029287D01*
X051462Y029289D01*
X051458Y029292D01*
X051456Y029295D01*
X051455Y029297D01*
Y029298D01*
Y029299D01*
X051456Y0293D01*
X051458Y029304D01*
X051461Y029311D01*
X051467Y02932D01*
X051472Y02933D01*
X051479Y02934D01*
X051493Y029365D01*
X051507Y029389D01*
X051514Y0294D01*
X051519Y029409D01*
X051525Y029418D01*
X051528Y029425D01*
X05153Y029429D01*
X051531Y02943D01*
X051561Y029479D01*
X05159Y029528D01*
X051619Y029577D01*
X051632Y029598D01*
X051644Y02962D01*
X051656Y02964D01*
X051667Y029659D01*
X051676Y029674D01*
X051684Y029688D01*
X051691Y029699D01*
X051695Y029708D01*
X051699Y029712D01*
X0517Y029714D01*
X051734Y029771D01*
X05175Y029798D01*
X051765Y029826D01*
X051779Y029851D01*
X051794Y029874D01*
X051807Y029897D01*
X051819Y029918D01*
X05183Y029936D01*
X05184Y029953D01*
X051848Y029968D01*
X051856Y02998D01*
X051861Y02999D01*
X051866Y029997D01*
X051868Y030002D01*
X051869Y030003D01*
X051883Y030027D01*
X051895Y030047D01*
X051906Y030065D01*
X051915Y03008D01*
X051923Y030094D01*
X051929Y030104D01*
X051935Y030114D01*
X05194Y030121D01*
X051943Y030127D01*
X051946Y030132D01*
X051948Y030135D01*
X051949Y030137D01*
X051951Y030139D01*
X051963Y030141D01*
X05196Y030156D01*
X052236Y030156D01*
X052244Y030155D01*
D02*
G37*
G36*
X051397Y030426D02*
X051403Y030425D01*
X051411Y030423D01*
X051417Y03042D01*
X05142Y030418D01*
X051421Y030416D01*
Y030415D01*
Y030414D01*
X05142Y030412D01*
X051417Y030406D01*
X051411Y030397D01*
X051406Y030386D01*
X051397Y030373D01*
X051389Y030359D01*
X051371Y030327D01*
X051351Y030295D01*
X051343Y03028D01*
X051336Y030267D01*
X051329Y030256D01*
X051324Y030248D01*
X05132Y030242D01*
X051319Y03024D01*
X051281Y030174D01*
X051242Y030109D01*
X051222Y030077D01*
X051203Y030045D01*
X051186Y030016D01*
X05117Y029988D01*
X051153Y02996D01*
X051139Y029936D01*
X051127Y029915D01*
X051116Y029897D01*
X051107Y029883D01*
X051101Y029872D01*
X051099Y029867D01*
X051096Y029864D01*
X051095Y029863D01*
Y029862D01*
X051072Y029824D01*
X05105Y029785D01*
X051029Y029749D01*
X051008Y029714D01*
X050988Y029681D01*
X05097Y02965D01*
X050952Y02962D01*
X050937Y029593D01*
X050921Y029568D01*
X050908Y029546D01*
X050896Y029526D01*
X050888Y02951D01*
X05088Y029497D01*
X050873Y029487D01*
X05087Y029481D01*
X050869Y029479D01*
X050852Y029449D01*
X050835Y029422D01*
X050821Y0294D01*
X050809Y029379D01*
X050799Y029361D01*
X05079Y029347D01*
X050783Y029335D01*
X050777Y029325D01*
X050772Y029316D01*
X050768Y02931D01*
X050765Y029306D01*
X050763Y029302D01*
X050762Y0293D01*
X050761Y029299D01*
Y029298D01*
X050753Y029285D01*
X05045D01*
X050439Y029286D01*
X050432Y029287D01*
X050426Y02929D01*
X050423Y029293D01*
X050422Y029296D01*
Y029299D01*
Y0293D01*
Y029301D01*
X050423Y029303D01*
X050426Y029309D01*
X050432Y029316D01*
X050437Y029327D01*
X050445Y02934D01*
X050454Y029355D01*
X050472Y029385D01*
X050491Y029416D01*
X0505Y02943D01*
X050507Y029443D01*
X050514Y029454D01*
X050518Y029462D01*
X050521Y029467D01*
X050523Y029469D01*
X050561Y029534D01*
X050599Y0296D01*
X050618Y029631D01*
X050636Y029662D01*
X050654Y029692D01*
X05067Y02972D01*
X050685Y029746D01*
X0507Y02977D01*
X050713Y029791D01*
X050723Y029808D01*
X050731Y029824D01*
X050738Y029835D01*
X05074Y029838D01*
X050742Y029841D01*
X050743Y029842D01*
Y029843D01*
X050766Y029882D01*
X050788Y029919D01*
X050809Y029955D01*
X05083Y02999D01*
X050849Y030023D01*
X050868Y030054D01*
X050885Y030084D01*
X050901Y030111D01*
X050916Y030136D01*
X050928Y030158D01*
X05094Y030178D01*
X05095Y030194D01*
X050958Y030207D01*
X050963Y030217D01*
X050966Y030223D01*
X050967Y030225D01*
X050986Y030255D01*
X051002Y030284D01*
X051017Y030308D01*
X051029Y030329D01*
X05104Y030346D01*
X051048Y030361D01*
X051056Y030373D01*
X051061Y030384D01*
X051067Y030392D01*
X05107Y030399D01*
X051073Y030404D01*
X051076Y030407D01*
X051077Y030409D01*
X051078Y030411D01*
Y030412D01*
X051091Y030414D01*
X05109Y030427D01*
X05139D01*
X051397Y030426D01*
D02*
G37*
G36*
X050714Y030411D02*
Y030408D01*
X050712Y030403D01*
X050709Y030396D01*
X050707Y030389D01*
X050705Y03038D01*
X050703Y030373D01*
X050702Y030369D01*
X050701Y030367D01*
X050695Y030349D01*
X05069Y03033D01*
X050683Y03031D01*
X050678Y03029D01*
X050672Y030274D01*
X05067Y030266D01*
X050669Y03026D01*
X050667Y030255D01*
X050666Y030251D01*
X050665Y030249D01*
Y030248D01*
X050656Y030219D01*
X050647Y03019D01*
X050638Y030161D01*
X050631Y030134D01*
X050626Y030122D01*
X050623Y030111D01*
X05062Y030101D01*
X050618Y030092D01*
X050615Y030086D01*
X050613Y03008D01*
X050612Y030077D01*
Y030076D01*
X050601Y030039D01*
X05059Y030002D01*
X050579Y029967D01*
X050575Y02995D01*
X05057Y029935D01*
X050565Y029921D01*
X050562Y029908D01*
X050557Y029896D01*
X050554Y029886D01*
X050552Y029878D01*
X05055Y029873D01*
X050549Y029868D01*
Y029867D01*
X050537Y029826D01*
X050525Y029788D01*
X050514Y029751D01*
X050509Y029735D01*
X050505Y02972D01*
X050501Y029707D01*
X050496Y029694D01*
X050493Y029683D01*
X050491Y029674D01*
X050489Y029666D01*
X050486Y029661D01*
X050485Y029657D01*
Y029656D01*
X050476Y02962D01*
X050466Y029588D01*
X050457Y029557D01*
X050453Y029544D01*
X050449Y029532D01*
X050446Y029521D01*
X050443Y029511D01*
X050441Y029502D01*
X050438Y029495D01*
X050436Y029489D01*
X050435Y029485D01*
X050434Y029483D01*
Y029481D01*
X050426Y029455D01*
X050419Y029431D01*
X050412Y029412D01*
X050407Y029394D01*
X050402Y029381D01*
X050399Y029371D01*
X050398Y029365D01*
X050397Y029362D01*
X050395Y029354D01*
X050392Y029346D01*
X050389Y029334D01*
X050386Y029325D01*
X050385Y02932D01*
X050384Y029315D01*
X050383Y029314D01*
Y029313D01*
X050374Y029285D01*
X050072D01*
X050062Y029286D01*
X049985D01*
X049986Y02929D01*
X049988Y029295D01*
X04999Y029301D01*
X049994Y029309D01*
X05Y029326D01*
X050007Y029344D01*
X050013Y029361D01*
X050016Y029369D01*
X050019Y029375D01*
X050021Y029382D01*
X050023Y029386D01*
X050024Y029389D01*
Y02939D01*
X050031Y029405D01*
X050036Y029419D01*
X050041Y029431D01*
X050045Y029441D01*
X050048Y02945D01*
X050051Y029457D01*
X050055Y029464D01*
X050057Y029469D01*
X050059Y029476D01*
X05006Y029478D01*
X049808D01*
X04974Y029391D01*
X049729Y029377D01*
X049719Y029365D01*
X049709Y029353D01*
X049702Y029343D01*
X049695Y029335D01*
X049691Y02933D01*
X049687Y029325D01*
X049686Y029324D01*
X049679Y029314D01*
X049673Y029307D01*
X049669Y029301D01*
X049667Y029298D01*
X049665Y029296D01*
X049663Y029295D01*
X049662Y029293D01*
X049654Y029285D01*
X049273D01*
X049275Y029289D01*
X049281Y029297D01*
X049287Y029306D01*
X049296Y029316D01*
X049306Y029328D01*
X049317Y029342D01*
X04934Y02937D01*
X049364Y029396D01*
X049374Y029409D01*
X049384Y02942D01*
X049391Y029429D01*
X049398Y029436D01*
X049402Y029441D01*
X049403Y029442D01*
X04945Y029496D01*
X049497Y029549D01*
X049543Y029602D01*
X049565Y029626D01*
X049585Y02965D01*
X049604Y029671D01*
X049621Y02969D01*
X049636Y029708D01*
X049649Y029723D01*
X04966Y029735D01*
X049668Y029744D01*
X049672Y029749D01*
X049674Y029751D01*
X049729Y029814D01*
X049755Y029843D01*
X04978Y029873D01*
X049804Y029899D01*
X049826Y029925D01*
X049848Y029949D01*
X049868Y029972D01*
X049885Y029992D01*
X049901Y03001D01*
X049915Y030026D01*
X049927Y030039D01*
X049937Y03005D01*
X049943Y030057D01*
X049948Y030063D01*
X049949Y030064D01*
X049971Y030089D01*
X04999Y030111D01*
X050007Y03013D01*
X050021Y030146D01*
X050033Y03016D01*
X050044Y030172D01*
X050053Y030182D01*
X050059Y03019D01*
X050065Y030196D01*
X050069Y030201D01*
X050072Y030204D01*
X050074Y030206D01*
X050077Y030209D01*
X050084Y030218D01*
X050093Y030226D01*
X0501Y030233D01*
X050102Y030235D01*
X050103Y030236D01*
X050115Y030247D01*
X050124Y030255D01*
X050128Y03026D01*
X05013Y030262D01*
X050144Y030273D01*
X050159Y030284D01*
X050164Y030288D01*
X050169Y030292D01*
X050173Y030295D01*
X050174Y030296D01*
X050194Y03031D01*
X050201Y030317D01*
X050209Y030321D01*
X050214Y030324D01*
X050219Y030327D01*
X050221Y03033D01*
X050222D01*
X050245Y030344D01*
X050269Y030356D01*
X05029Y030367D01*
X050309Y030377D01*
X050327Y030383D01*
X050333Y030386D01*
X05034Y030389D01*
X050344Y030391D01*
X050348Y030392D01*
X05035Y030393D01*
X050351D01*
X050375Y030401D01*
X050398Y030406D01*
X050418Y030411D01*
X050435Y030413D01*
X05045Y030414D01*
X05047D01*
X05049Y030419D01*
X050493Y030421D01*
X050497Y030424D01*
X050503Y030425D01*
X050509D01*
X050516Y030426D01*
X050539D01*
X050552Y030427D01*
X050716D01*
X050714Y030411D01*
D02*
G37*
G36*
X051867Y030373D02*
X051864Y030368D01*
X051858Y03036D01*
X051848Y030345D01*
X051844Y030337D01*
X05184Y030332D01*
X051837Y030327D01*
X051836Y030326D01*
X051829Y030313D01*
X05182Y030299D01*
X051812Y030285D01*
X051805Y030272D01*
X051798Y03026D01*
X051793Y030251D01*
X051789Y030244D01*
X051788Y030243D01*
Y030242D01*
X051781Y03023D01*
X051773Y030218D01*
X051766Y030208D01*
X051761Y0302D01*
X051757Y030192D01*
X051753Y030186D01*
X051751Y030183D01*
X05175Y030182D01*
X051744Y030173D01*
X051741Y030168D01*
X051738Y030164D01*
X051736Y03016D01*
Y030158D01*
X051735Y030157D01*
X051736Y030156D01*
X051834D01*
X05184Y030155D01*
X051847D01*
X051853Y030154D01*
X051856Y030151D01*
X051858Y030149D01*
X051859Y030146D01*
Y030139D01*
X051858Y030138D01*
Y030137D01*
X051856Y030135D01*
X051854Y030132D01*
X051851Y030126D01*
X051846Y030121D01*
X051843Y030115D01*
X051841Y03011D01*
X051838Y030107D01*
X051837Y030106D01*
X051824Y030084D01*
X051818Y030073D01*
X051812Y030062D01*
X051807Y030053D01*
X051802Y030047D01*
X0518Y030042D01*
X051799Y03004D01*
X051743Y029944D01*
X051611D01*
X051494Y029746D01*
X051478Y029719D01*
X051464Y029695D01*
X051452Y029674D01*
X05144Y029654D01*
X05143Y029638D01*
X051421Y029622D01*
X051413Y02961D01*
X051407Y0296D01*
X051401Y029591D01*
X051397Y029583D01*
X051394Y029578D01*
X051391Y029572D01*
X051389Y029569D01*
X051388Y029567D01*
X051387Y029566D01*
X051382Y029556D01*
X051377Y029548D01*
X051374Y029542D01*
X051372Y029537D01*
X05137Y029534D01*
Y029532D01*
X051368Y02953D01*
X051367Y029525D01*
X051366Y029522D01*
X051365Y029521D01*
Y02952D01*
Y029516D01*
Y029515D01*
Y029514D01*
X051366Y02951D01*
X051368Y029507D01*
X051371Y029504D01*
X051372Y029503D01*
X051376Y0295D01*
X051381Y029499D01*
X051385Y029497D01*
X051393D01*
X051396Y029496D01*
X051398D01*
X051408Y029495D01*
X051449D01*
X051454Y029494D01*
X051459D01*
X051464Y029492D01*
X051467Y029491D01*
X051469Y029489D01*
Y029487D01*
Y029483D01*
Y029481D01*
Y02948D01*
X051468Y029479D01*
X051467Y029476D01*
X051464Y029472D01*
X051461Y029467D01*
X051458Y029462D01*
X051455Y029457D01*
X051454Y029454D01*
X051453Y029453D01*
X051446Y029442D01*
X05144Y02943D01*
X051432Y029418D01*
X051425Y029406D01*
X051419Y029396D01*
X051414Y029387D01*
X051411Y029382D01*
X05141Y02938D01*
X051354Y029287D01*
X051339Y029284D01*
X051326D01*
X051318Y029283D01*
X051312D01*
X051306Y029281D01*
X051304D01*
X051276Y02928D01*
X051249Y029279D01*
X051225Y029278D01*
X051205D01*
X051188Y029277D01*
X051142D01*
X051123Y029278D01*
X051105D01*
X051091Y029279D01*
X05108Y02928D01*
X051071D01*
X051067Y029281D01*
X051065D01*
X05105Y029284D01*
X051037Y029286D01*
X051025Y029289D01*
X051015Y029292D01*
X051008Y029296D01*
X051002Y029298D01*
X050998Y029299D01*
X050997Y0293D01*
X050988Y029306D01*
X05098Y02931D01*
X050974Y029314D01*
X05097Y029319D01*
X050966Y029322D01*
X050964Y029325D01*
X050963Y029326D01*
Y029327D01*
X050959Y029336D01*
X050956Y029344D01*
X050955Y029349D01*
Y029351D01*
Y02936D01*
Y029368D01*
Y029372D01*
Y029374D01*
X050958Y029389D01*
X050962Y029403D01*
X050963Y029409D01*
X050965Y029414D01*
X050966Y029417D01*
Y029418D01*
X050974Y029438D01*
X050978Y029447D01*
X050983Y029455D01*
X050986Y029462D01*
X050989Y029467D01*
X05099Y029471D01*
X050991Y029472D01*
X050994Y029475D01*
X050997Y02948D01*
X051001Y029489D01*
X051007Y029499D01*
X051014Y029511D01*
X051021Y029523D01*
X051037Y02955D01*
X051053Y029577D01*
X05106Y02959D01*
X051067Y029601D01*
X051072Y029609D01*
X051077Y029616D01*
X051079Y029621D01*
X05108Y029622D01*
X051113Y029678D01*
X051147Y029734D01*
X051163Y029761D01*
X051178Y029788D01*
X051194Y029813D01*
X051208Y029837D01*
X051221Y02986D01*
X051232Y029879D01*
X051243Y029897D01*
X051252Y029912D01*
X051259Y029925D01*
X051265Y029934D01*
X051268Y029939D01*
X051269Y029942D01*
X051306Y030005D01*
X051325Y030036D01*
X051342Y030065D01*
X051359Y030092D01*
X051374Y030119D01*
X051388Y030143D01*
X051401Y030166D01*
X051413Y030186D01*
X051424Y030205D01*
X051434Y030221D01*
X051442Y030235D01*
X051448Y030245D01*
X051453Y030253D01*
X051456Y030259D01*
X051457Y03026D01*
X051472Y030285D01*
X051485Y030308D01*
X051496Y030327D01*
X051506Y030344D01*
X051515Y030358D01*
X051522Y030369D01*
X051528Y030379D01*
X051532Y030386D01*
X051536Y030392D01*
X051539Y030396D01*
X05154Y0304D01*
X051542Y030402D01*
X051543Y030404D01*
X051547Y030407D01*
X051552Y030411D01*
X05156Y030413D01*
X051567Y030414D01*
X051576Y030415D01*
X051583Y030416D01*
X051608D01*
X051628Y030417D01*
X051888D01*
X051867Y030373D01*
D02*
G37*
%LPC*%
G36*
X05247Y029396D02*
X052469Y029394D01*
X052468Y029392D01*
X052466Y029389D01*
X052464Y029383D01*
X05246Y029378D01*
Y029377D01*
X052459Y029375D01*
X052455Y029368D01*
X052448Y029359D01*
X052452Y029362D01*
X052456Y029366D01*
X052466Y029373D01*
X052476Y029382D01*
X052477Y029383D01*
X052478Y029384D01*
Y029385D01*
X052477Y029386D01*
X052474D01*
X052471Y029389D01*
X05247Y029392D01*
Y029396D01*
D02*
G37*
G36*
X050362Y030183D02*
X050361Y030182D01*
X050359Y03018D01*
X050355Y030177D01*
X050351Y030172D01*
X05034Y03016D01*
X050328Y030147D01*
X050316Y030134D01*
X050305Y030122D01*
X050301Y030118D01*
X050297Y030114D01*
X050295Y030112D01*
X050294Y030111D01*
X050269Y030084D01*
X050243Y030054D01*
X050219Y030027D01*
X050197Y030001D01*
X050187Y029989D01*
X050177Y029978D01*
X050169Y029968D01*
X050163Y02996D01*
X050157Y029953D01*
X050153Y029948D01*
X050151Y029945D01*
X05015Y029944D01*
X049956Y029695D01*
X050168D01*
Y029696D01*
X050169Y029698D01*
X050172Y029701D01*
X050173Y029707D01*
X050178Y029718D01*
X050184Y029732D01*
X050188Y029745D01*
X050194Y029757D01*
X050196Y029761D01*
X050197Y029765D01*
X050198Y029767D01*
Y029768D01*
X050209Y029796D01*
X050221Y029826D01*
X050233Y029854D01*
X050243Y029882D01*
X050248Y029894D01*
X050253Y029904D01*
X050256Y029914D01*
X050259Y029922D01*
X050262Y029929D01*
X050263Y029934D01*
X050266Y029937D01*
X050279Y029972D01*
X050292Y030005D01*
X050303Y030033D01*
X050308Y030047D01*
X050313Y030059D01*
X050317Y03007D01*
X050321Y030079D01*
X050325Y030088D01*
X050327Y030095D01*
X050329Y0301D01*
X050331Y030104D01*
X050332Y030107D01*
Y030108D01*
X050338Y030121D01*
X050342Y030133D01*
X050347Y030143D01*
X05035Y030151D01*
X050352Y030159D01*
X050354Y030165D01*
X050356Y03017D01*
X050359Y030173D01*
X050361Y030179D01*
X050362Y030182D01*
Y030183D01*
D02*
G37*
%LPD*%
D10*
X017325Y017037D02*
G03*
X017325Y017037I-000059J0D01*
G01*
X026889Y042868D02*
X027204D01*
X026889Y042553D01*
Y042474D01*
X026968Y042396D01*
X027125D01*
X027204Y042474D01*
X026495Y042868D02*
Y042396D01*
X026732Y042632D01*
X026417D01*
X026259Y042396D02*
Y04271D01*
X026102Y042868D01*
X025944Y04271D01*
Y042396D01*
X032469Y026663D02*
X032402Y02673D01*
X032269D01*
X032202Y026663D01*
Y026397D01*
X032269Y02633D01*
X032402D01*
X032469Y026397D01*
Y02653D01*
X032335D01*
X032602Y02633D02*
Y02673D01*
X032869Y02633D01*
Y02673D01*
X033002D02*
Y02633D01*
X033202D01*
X033268Y026397D01*
Y026663D01*
X033202Y02673D01*
X033002D01*
X03002Y02633D02*
Y02673D01*
X03022D01*
X030286Y026663D01*
Y02653D01*
X03022Y026463D01*
X03002D01*
X030153D02*
X030286Y02633D01*
X03042Y02673D02*
X030686Y02633D01*
Y02673D02*
X03042Y02633D01*
X028185Y026663D02*
X028252Y02673D01*
X028385D01*
X028452Y026663D01*
Y026597D01*
X028385Y02653D01*
X028319D01*
X028385D01*
X028452Y026463D01*
Y026397D01*
X028385Y02633D01*
X028252D01*
X028185Y026397D01*
X028585Y02633D02*
Y026397D01*
X028652D01*
Y02633D01*
X028585D01*
X028918Y026663D02*
X028985Y02673D01*
X029118D01*
X029185Y026663D01*
Y026597D01*
X029118Y02653D01*
X029052D01*
X029118D01*
X029185Y026463D01*
Y026397D01*
X029118Y02633D01*
X028985D01*
X028918Y026397D01*
X029318Y02673D02*
Y026463D01*
X029451Y02633D01*
X029585Y026463D01*
Y02673D01*
X031111D02*
X031377D01*
X031244D01*
Y02633D01*
X031511Y02673D02*
X031777Y02633D01*
Y02673D02*
X031511Y02633D01*
X029013Y042474D02*
X029092Y042396D01*
X029249D01*
X029328Y042474D01*
Y042789D01*
X029249Y042868D01*
X029092D01*
X029013Y042789D01*
Y042632D01*
X02917D01*
X028856Y042868D02*
Y042396D01*
X028541Y042868D01*
Y042396D01*
X028383D02*
Y042868D01*
X028147D01*
X028068Y042789D01*
Y042474D01*
X028147Y042396D01*
X028383D01*
D11*
X028387Y028499D02*
G03*
X028372Y028499I-000017J002912D01*
G01*
X033569Y01752D02*
G03*
X033569Y01752I-00013J0D01*
G01*
X036025D02*
G03*
X036025Y01752I-00013J0D01*
G01*
X038441D02*
G03*
X038441Y01752I-00013J0D01*
G01*
X040857D02*
G03*
X040857Y01752I-00013J0D01*
G01*
X043274D02*
G03*
X043274Y01752I-00013J0D01*
G01*
X04569D02*
G03*
X04569Y01752I-00013J0D01*
G01*
X048106D02*
G03*
X048106Y01752I-00013J0D01*
G01*
X050522D02*
G03*
X050522Y01752I-00013J0D01*
G01*
X052939D02*
G03*
X052939Y01752I-00013J0D01*
G01*
X024382Y03215D02*
G03*
X024382Y03215I-001575J0D01*
G01*
X020682Y03924D02*
G03*
X020668Y039227I-001333J001417D01*
G01*
X020553Y03215D02*
G03*
X020553Y03215I-001575J0D01*
G01*
X026843Y040402D02*
G03*
X026843Y040902I0J00025D01*
G01*
Y039902D02*
G03*
X026843Y040402I0J00025D01*
G01*
X028343D02*
G03*
X028343Y040402I-0015J0D01*
G01*
X014374Y017221D02*
X017308D01*
X023542D02*
X023799D01*
X014374Y023586D02*
X017309D01*
X023542D02*
X023799D01*
X014374Y017221D02*
Y023586D01*
X023799Y017221D02*
Y018068D01*
Y022739D02*
Y023586D01*
X025682Y033838D02*
X026735D01*
X031076D02*
Y034576D01*
X030023Y033838D02*
X031076D01*
X025682D02*
Y034576D01*
X031076D01*
X02483Y022371D02*
X025618D01*
X02483Y022461D02*
X025618D01*
X02483Y022541D02*
X025618D01*
Y022391D02*
Y025041D01*
X02483D02*
X025618D01*
X02483Y022391D02*
Y025041D01*
X025834Y022752D02*
X026284D01*
X026844D02*
X027294D01*
X026314Y024362D02*
X026814D01*
X026314Y023362D02*
Y024362D01*
Y023362D02*
X026814D01*
Y024362D01*
X027294Y022752D02*
Y024972D01*
X025834Y022752D02*
Y024972D01*
X026284D01*
X026844D02*
X027294D01*
X061022Y024059D02*
X065827D01*
Y032054D01*
X061022Y024059D02*
Y028059D01*
Y032059D01*
X061072D02*
X065827D01*
Y032054D02*
Y032059D01*
X065822Y024059D02*
Y032059D01*
Y026054D02*
Y032059D01*
X061022Y026054D02*
Y032059D01*
X061072D02*
X065822D01*
X034645Y043194D02*
X038645D01*
X030584D02*
X034645D01*
X030584D02*
Y047994D01*
X038645D01*
X037095D02*
X046706D01*
X038645Y043194D02*
X042645D01*
X046706D01*
Y047994D01*
X0432Y00855D02*
Y01335D01*
Y00855D02*
X04974D01*
X0432Y01335D02*
X0492D01*
X0532D01*
Y00855D02*
Y0133D01*
X04974Y00855D02*
X0532D01*
X0432D02*
X0532D01*
X018671Y034502D02*
X019371D01*
X018471Y034702D02*
X018671Y034502D01*
X018471Y034702D02*
Y037502D01*
X018671Y037702D01*
X019371D01*
X022771Y034302D02*
Y037902D01*
X019371D02*
X022771D01*
X019371Y034302D02*
Y037902D01*
Y034302D02*
X022771D01*
X061022Y032154D02*
X065822D01*
X061072Y038159D02*
X065822D01*
X061022Y032154D02*
Y038159D01*
X065822Y032154D02*
Y038159D01*
X061022Y017954D02*
X065822D01*
X061072Y023959D02*
X065822D01*
X061022Y017954D02*
Y023959D01*
X065822Y017954D02*
Y023959D01*
X0331Y00855D02*
X0431D01*
X03964D02*
X0431D01*
Y0133D01*
X0391Y01335D02*
X0431D01*
X0331D02*
X0391D01*
X0331Y00855D02*
X03964D01*
X0331D02*
Y01335D01*
X046681Y047992D02*
X056681D01*
X046681D02*
X050141D01*
X046681Y043242D02*
Y047992D01*
Y043192D02*
X050681D01*
X056681D01*
X050141Y047992D02*
X056681D01*
Y043192D02*
Y047992D01*
X025551Y048022D02*
X029551D01*
Y043222D02*
Y048042D01*
X025551Y043272D02*
Y048027D01*
Y043222D02*
X029551D01*
X036759Y032885D02*
Y033335D01*
Y033895D02*
Y034345D01*
X035149Y033365D02*
Y033865D01*
Y033365D02*
X036149D01*
Y033865D01*
X035149D02*
X036149D01*
X034539Y034345D02*
X036759D01*
X034539Y032885D02*
X036759D01*
X034539D02*
Y033335D01*
Y033895D02*
Y034345D01*
X025621Y028803D02*
Y029591D01*
X025531Y028803D02*
Y029591D01*
X025451Y028803D02*
Y029591D01*
X022951D02*
X025601D01*
X022951Y028803D02*
Y029591D01*
Y028803D02*
X025601D01*
X021232Y03215D02*
X024382D01*
X021687D02*
X021767D01*
X021307Y03253D02*
X021687Y03215D01*
X022067D02*
X022297D01*
X021407Y03281D02*
X022067Y03215D01*
X022467D02*
X022587D01*
X021557Y03306D02*
X022467Y03215D01*
X022857D02*
X023037D01*
X021727Y03328D02*
X022857Y03215D01*
X023267D02*
X023347D01*
X021957Y03346D02*
X023267Y03215D01*
X022217Y0336D02*
X023667Y03215D01*
X022537Y03368D02*
X024067Y03215D01*
X024377Y03217D02*
Y0323D01*
X022957Y03372D02*
X024377Y0323D01*
X024207Y03283D02*
Y03285D01*
X023497Y03356D02*
X024207Y03285D01*
X017407Y040654D02*
X021257D01*
X020507D02*
X020757D01*
X021207Y040204D01*
X020107Y040654D02*
X020307D01*
X021107Y039854D01*
X019907Y040654D02*
X020957Y039604D01*
X019457Y040654D02*
X019507D01*
X020757Y039404D01*
X018907Y040654D02*
X019107D01*
X020557Y039204D01*
X018607Y040654D02*
X018657D01*
X020307Y039004D01*
X018057Y040654D02*
X018207D01*
X020007Y038854D01*
X017757Y040654D02*
X019657Y038754D01*
X017407Y040554D02*
Y040654D01*
Y040554D02*
X019207Y038754D01*
X017507Y040004D02*
X018657Y038854D01*
X019668Y03356D02*
X020378Y03285D01*
Y03283D02*
Y03285D01*
X019128Y03372D02*
X020548Y0323D01*
Y03217D02*
Y0323D01*
X018708Y03368D02*
X020238Y03215D01*
X018388Y0336D02*
X019838Y03215D01*
X018128Y03346D02*
X019438Y03215D01*
X019518D01*
X017898Y03328D02*
X019028Y03215D01*
X019208D01*
X017728Y03306D02*
X018638Y03215D01*
X018758D01*
X017578Y03281D02*
X018238Y03215D01*
X018468D01*
X017478Y03253D02*
X017858Y03215D01*
X017938D01*
X017403D02*
X020553D01*
X027441Y010948D02*
X027841D01*
Y011248D01*
X027641D01*
X027841D01*
Y011548D01*
X027241D02*
Y010948D01*
X027041Y011148D01*
X026841Y010948D01*
Y011548D01*
X026641D02*
Y011148D01*
X026441Y010948D01*
X026241Y011148D01*
Y011548D01*
Y011248D01*
X026641D01*
X026041Y010948D02*
Y011548D01*
X025641D01*
X025041Y010948D02*
X025441D01*
Y011548D01*
X025041D01*
X025441Y011248D02*
X025241D01*
D12*
X027177Y016864D02*
G03*
X026889Y016864I-000144J0D01*
G01*
X050782Y022622D02*
G03*
X050782Y022622I-000142J0D01*
G01*
X039459Y022545D02*
G03*
X039459Y022545I-000142J0D01*
G01*
X022852Y008569D02*
G03*
X023126Y008295I000274J0D01*
G01*
X02285Y010382D02*
G03*
X022577Y010656I-000274J0D01*
G01*
X029555Y008295D02*
G03*
X029829Y008569I0J000274D01*
G01*
X030104Y010656D02*
G03*
X029831Y010382I0J-000274D01*
G01*
X053055Y022672D02*
G03*
X053055Y022672I-000142J0D01*
G01*
X04851Y022545D02*
G03*
X04851Y022545I-000142J0D01*
G01*
X046237D02*
G03*
X046237Y022545I-000142J0D01*
G01*
X043965D02*
G03*
X043965Y022545I-000142J0D01*
G01*
X041712D02*
G03*
X041712Y022545I-000142J0D01*
G01*
X037187D02*
G03*
X037187Y022545I-000142J0D01*
G01*
X034934D02*
G03*
X034934Y022545I-000142J0D01*
G01*
X057097Y039941D02*
G03*
X057097Y039941I-000142J0D01*
G01*
X054807D02*
G03*
X054807Y039941I-000142J0D01*
G01*
X052516D02*
G03*
X052516Y039941I-000142J0D01*
G01*
X050226D02*
G03*
X050226Y039941I-000142J0D01*
G01*
X047935D02*
G03*
X047935Y039941I-000142J0D01*
G01*
X045645D02*
G03*
X045645Y039941I-000142J0D01*
G01*
X043354D02*
G03*
X043354Y039941I-000142J0D01*
G01*
X041064D02*
G03*
X041064Y039941I-000142J0D01*
G01*
X038773D02*
G03*
X038773Y039941I-000142J0D01*
G01*
X036483D02*
G03*
X036483Y039941I-000142J0D01*
G01*
X034192D02*
G03*
X034192Y039941I-000142J0D01*
G01*
X031902D02*
G03*
X031902Y039941I-000142J0D01*
G01*
X034564Y02953D02*
X035093D01*
X033713D02*
X034259D01*
X033713Y02883D02*
X034259D01*
X034564D02*
X035093D01*
X033713D02*
Y02953D01*
X035093Y02883D02*
Y02953D01*
X034558Y030416D02*
X035087D01*
X033707D02*
X034253D01*
X033707Y029716D02*
X034253D01*
X034558D02*
X035087D01*
X033707D02*
Y030416D01*
X035087Y029716D02*
Y030416D01*
X031987Y027062D02*
X031995Y026083D01*
X027954Y027054D02*
X033468Y027071D01*
X027954Y026075D02*
Y027054D01*
X033467Y026076D02*
X033468Y027071D01*
X0309Y026854D02*
Y027058D01*
X029812Y027047D02*
X029814Y026831D01*
X047193Y034448D02*
Y035128D01*
Y034448D02*
X048139D01*
X048996Y034452D02*
Y035125D01*
X053675Y034449D02*
Y035133D01*
X052123Y034449D02*
X053675D01*
X050498Y035133D02*
X050503Y034455D01*
X049143Y033448D02*
Y034448D01*
X048143Y033448D02*
Y034448D01*
X052143D01*
X048143Y033448D02*
X052143D01*
Y034448D01*
X030896Y026087D02*
X0309Y026854D01*
X029814Y026078D02*
Y026831D01*
X028832Y026075D02*
X028834Y026077D01*
X032824Y026076D02*
X033467D01*
X027954Y026075D02*
X028832D01*
X02883Y025076D02*
Y026076D01*
X03283D01*
X02883Y025076D02*
X03283D01*
Y026076D01*
X03183Y025076D02*
Y026076D01*
X01795Y015317D02*
X018478D01*
Y016027D01*
X01795D02*
X018478D01*
X0171D02*
X017645D01*
X0171Y015317D02*
X017645D01*
X0171D02*
Y016027D01*
X018777Y024261D02*
Y024971D01*
Y024261D02*
X019322D01*
X018777Y024971D02*
X019322D01*
X019627D02*
X020155D01*
Y024261D02*
Y024971D01*
X019627Y024261D02*
X020155D01*
X020372D02*
Y024971D01*
Y024261D02*
X020916D01*
X020372Y024971D02*
X020916D01*
X021221D02*
X02175D01*
Y024261D02*
Y024971D01*
X021221Y024261D02*
X02175D01*
X023345D02*
Y024971D01*
X0228D02*
X023345D01*
X0228Y024261D02*
X023345D01*
X021967D02*
X022495D01*
X021967D02*
Y024971D01*
X022495D01*
X0266Y016864D02*
Y020801D01*
X027466Y016864D02*
Y020801D01*
X0266D02*
X027466D01*
X0266Y016864D02*
X026889D01*
X027177D02*
X027466D01*
X048087Y026349D02*
X048787D01*
X048087Y027729D02*
X048787D01*
X048087Y026349D02*
Y026879D01*
Y027184D02*
Y027729D01*
X048787Y027184D02*
Y027729D01*
Y026349D02*
Y026879D01*
X039684Y028798D02*
X040384D01*
X039684Y027418D02*
X040384D01*
Y028269D02*
Y028798D01*
Y027418D02*
Y027964D01*
X039684Y027418D02*
Y027964D01*
Y028269D02*
Y028798D01*
X040593Y02613D02*
Y02683D01*
X041973Y02613D02*
Y02683D01*
X040593D02*
X041122D01*
X041427D02*
X041973D01*
X041427Y02613D02*
X041973D01*
X040593D02*
X041122D01*
X039684Y029766D02*
Y030295D01*
Y028915D02*
Y029461D01*
X040384Y028915D02*
Y029461D01*
Y029766D02*
Y030295D01*
X039684Y028915D02*
X040384D01*
X039684Y030295D02*
X040384D01*
X039684Y032115D02*
X040384D01*
X039684Y030735D02*
X040384D01*
Y031586D02*
Y032115D01*
Y030735D02*
Y031281D01*
X039684Y030735D02*
Y031281D01*
Y031586D02*
Y032115D01*
X049223Y023075D02*
X051034D01*
X049223Y020831D02*
Y023075D01*
Y020831D02*
X051034D01*
Y023075D01*
X059498Y029517D02*
X060208D01*
X059498Y028973D02*
Y029517D01*
X060208Y028973D02*
Y029517D01*
Y02814D02*
Y028668D01*
X059498Y02814D02*
X060208D01*
X059498D02*
Y028668D01*
X051756Y035111D02*
X051758Y034451D01*
X047193Y035128D02*
X053675Y035133D01*
X039684Y033647D02*
Y034176D01*
Y032796D02*
Y033342D01*
X040384Y032796D02*
Y033342D01*
Y033647D02*
Y034176D01*
X039684Y032796D02*
X040384D01*
X039684Y034176D02*
X040384D01*
X056654Y035966D02*
X057182D01*
Y036676D01*
X056654D02*
X057182D01*
X055804D02*
X056349D01*
X055804Y035966D02*
X056349D01*
X055804D02*
Y036676D01*
X054372Y035966D02*
X0549D01*
Y036676D01*
X054372D02*
X0549D01*
X053523D02*
X054067D01*
X053523Y035966D02*
X054067D01*
X053523D02*
Y036676D01*
X05209Y035966D02*
X052619D01*
Y036676D01*
X05209D02*
X052619D01*
X051241D02*
X051785D01*
X051241Y035966D02*
X051785D01*
X051241D02*
Y036676D01*
X049809Y035966D02*
X050337D01*
Y036676D01*
X049809D02*
X050337D01*
X048959D02*
X049503D01*
X048959Y035966D02*
X049503D01*
X048959D02*
Y036676D01*
X047527Y035966D02*
X048055D01*
Y036676D01*
X047527D02*
X048055D01*
X046677D02*
X047222D01*
X046677Y035966D02*
X047222D01*
X046677D02*
Y036676D01*
X045245Y035966D02*
X045773D01*
Y036676D01*
X045245D02*
X045773D01*
X044395D02*
X04494D01*
X044395Y035966D02*
X04494D01*
X044395D02*
Y036676D01*
X042963Y035966D02*
X043491D01*
Y036676D01*
X042963D02*
X043491D01*
X042113D02*
X042658D01*
X042113Y035966D02*
X042658D01*
X042113D02*
Y036676D01*
X040681Y035966D02*
X04121D01*
Y036676D01*
X040681D02*
X04121D01*
X039832D02*
X040376D01*
X039832Y035966D02*
X040376D01*
X039832D02*
Y036676D01*
X038399Y035966D02*
X038928D01*
Y036676D01*
X038399D02*
X038928D01*
X03755D02*
X038094D01*
X03755Y035966D02*
X038094D01*
X03755D02*
Y036676D01*
X036118Y035966D02*
X036646D01*
Y036676D01*
X036118D02*
X036646D01*
X035268D02*
X035813D01*
X035268Y035966D02*
X035813D01*
X035268D02*
Y036676D01*
X033836Y035966D02*
X034364D01*
Y036676D01*
X033836D02*
X034364D01*
X032986D02*
X033531D01*
X032986Y035966D02*
X033531D01*
X032986D02*
Y036676D01*
X031554Y035966D02*
X032082D01*
Y036676D01*
X031554D02*
X032082D01*
X030704D02*
X031249D01*
X030704Y035966D02*
X031249D01*
X030704D02*
Y036676D01*
X051705Y018001D02*
Y018711D01*
Y018001D02*
X052249D01*
X051705Y018711D02*
X052249D01*
X052554D02*
X053083D01*
Y018001D02*
Y018711D01*
X052554Y018001D02*
X053083D01*
X054833Y041742D02*
Y042452D01*
Y041742D02*
X055378D01*
X054833Y042452D02*
X055378D01*
X055683D02*
X056211D01*
Y041742D02*
Y042452D01*
X055683Y041742D02*
X056211D01*
X052813Y041774D02*
Y042484D01*
Y041774D02*
X053358D01*
X052813Y042484D02*
X053358D01*
X053663D02*
X054191D01*
Y041774D02*
Y042484D01*
X053663Y041774D02*
X054191D01*
X050557Y041711D02*
Y042421D01*
Y041711D02*
X051102D01*
X050557Y042421D02*
X051102D01*
X051407D02*
X051935D01*
Y041711D02*
Y042421D01*
X051407Y041711D02*
X051935D01*
X048384Y041691D02*
Y042401D01*
Y041691D02*
X048929D01*
X048384Y042401D02*
X048929D01*
X049234D02*
X049762D01*
Y041691D02*
Y042401D01*
X049234Y041691D02*
X049762D01*
X046376Y041666D02*
Y042376D01*
Y041666D02*
X04692D01*
X046376Y042376D02*
X04692D01*
X047225D02*
X047754D01*
Y041666D02*
Y042376D01*
X047225Y041666D02*
X047754D01*
X0439Y04164D02*
Y04235D01*
Y04164D02*
X044444D01*
X0439Y04235D02*
X044444D01*
X04475D02*
X045278D01*
Y04164D02*
Y04235D01*
X04475Y04164D02*
X045278D01*
X039577Y041666D02*
Y042376D01*
Y041666D02*
X040121D01*
X039577Y042376D02*
X040121D01*
X040426D02*
X040955D01*
Y041666D02*
Y042376D01*
X040426Y041666D02*
X040955D01*
X037304Y041642D02*
Y042352D01*
Y041642D02*
X037849D01*
X037304Y042352D02*
X037849D01*
X038154D02*
X038682D01*
Y041642D02*
Y042352D01*
X038154Y041642D02*
X038682D01*
X0379Y022998D02*
X039711D01*
X0379Y020754D02*
Y022998D01*
Y020754D02*
X039711D01*
Y022998D01*
X027673Y024828D02*
X028201D01*
X027673Y024118D02*
Y024828D01*
Y024118D02*
X028201D01*
X028507D02*
X029051D01*
X028507Y024828D02*
X029051D01*
Y024118D02*
Y024828D01*
X027673Y023522D02*
X028201D01*
X027673Y022812D02*
Y023522D01*
Y022812D02*
X028201D01*
X028507D02*
X029051D01*
X028507Y023522D02*
X029051D01*
Y022812D02*
Y023522D01*
X02285Y008571D02*
Y010382D01*
X029831Y008571D02*
Y010382D01*
X029096Y011839D02*
Y015539D01*
X020278Y010657D02*
X032404D01*
X023585Y011839D02*
Y015539D01*
X020278Y015539D02*
X032404D01*
X023126Y008295D02*
X029555D01*
X032404Y010657D02*
Y015539D01*
X020278Y010657D02*
Y015539D01*
Y011839D02*
X032404D01*
X019391Y016164D02*
Y016692D01*
X018681D02*
X019391D01*
X018681Y016164D02*
Y016692D01*
Y015314D02*
Y015859D01*
X019391Y015314D02*
Y015859D01*
X018681Y015314D02*
X019391D01*
X03047Y01835D02*
X03117D01*
X03047Y01697D02*
X03117D01*
Y017821D02*
Y01835D01*
Y01697D02*
Y017516D01*
X03047Y01697D02*
Y017516D01*
Y017821D02*
Y01835D01*
X029481Y016978D02*
X030181D01*
X029481Y018358D02*
X030181D01*
X029481Y016978D02*
Y017507D01*
Y017813D02*
Y018358D01*
X030181Y017813D02*
Y018358D01*
Y016978D02*
Y017507D01*
Y018506D02*
Y019035D01*
Y01934D02*
Y019886D01*
X029481Y01934D02*
Y019886D01*
Y018506D02*
Y019035D01*
Y019886D02*
X030181D01*
X029481Y018506D02*
X030181D01*
X03047Y018498D02*
X03117D01*
X03047Y019878D02*
X03117D01*
X03047Y018498D02*
Y019027D01*
Y019332D02*
Y019878D01*
X03117Y019332D02*
Y019878D01*
Y018498D02*
Y019027D01*
X056577Y031839D02*
X057896D01*
X056577Y033846D02*
X057896D01*
Y031839D02*
Y033846D01*
X056577Y031839D02*
Y033846D01*
X05951Y033039D02*
X06022D01*
X05951Y032495D02*
Y033039D01*
X06022Y032495D02*
Y033039D01*
Y031661D02*
Y03219D01*
X05951Y031661D02*
X06022D01*
X05951D02*
Y03219D01*
X057125Y027917D02*
X057834D01*
X057125Y029886D02*
X057834D01*
Y027917D02*
Y029886D01*
X057125Y027917D02*
Y029886D01*
X056577Y024559D02*
Y026567D01*
X057896Y024559D02*
Y026567D01*
X056577D02*
X057896D01*
X056577Y024559D02*
X057896D01*
X057101Y018891D02*
Y019601D01*
Y018891D02*
X057646D01*
X057101Y019601D02*
X057646D01*
X057951D02*
X058479D01*
Y018891D02*
Y019601D01*
X057951Y018891D02*
X058479D01*
X057104Y020108D02*
Y020819D01*
Y020108D02*
X057649D01*
X057104Y020819D02*
X057649D01*
X057954D02*
X058482D01*
Y020108D02*
Y020819D01*
X057954Y020108D02*
X058482D01*
X057087Y021797D02*
Y022507D01*
Y021797D02*
X057631D01*
X057087Y022507D02*
X057631D01*
X057936D02*
X058465D01*
Y021797D02*
Y022507D01*
X057936Y021797D02*
X058465D01*
X057104Y023038D02*
Y023748D01*
Y023038D02*
X057649D01*
X057104Y023748D02*
X057649D01*
X057954D02*
X058482D01*
Y023038D02*
Y023748D01*
X057954Y023038D02*
X058482D01*
X053307Y020881D02*
Y023125D01*
X051496Y020881D02*
X053307D01*
X051496D02*
Y023125D01*
X053307D01*
X048762Y020754D02*
Y022998D01*
X046951Y020754D02*
X048762D01*
X046951D02*
Y022998D01*
X048762D01*
X046489Y020754D02*
Y022998D01*
X044678Y020754D02*
X046489D01*
X044678D02*
Y022998D01*
X046489D01*
X044217Y020754D02*
Y022998D01*
X042406Y020754D02*
X044217D01*
X042406D02*
Y022998D01*
X044217D01*
X041964Y020754D02*
Y022998D01*
X040153Y020754D02*
X041964D01*
X040153D02*
Y022998D01*
X041964D01*
X037438Y020754D02*
Y022998D01*
X035627Y020754D02*
X037438D01*
X035627D02*
Y022998D01*
X037438D01*
X035186Y020754D02*
Y022998D01*
X033375Y020754D02*
X035186D01*
X033375D02*
Y022998D01*
X035186D01*
X048355Y032032D02*
X049055D01*
X048355Y033412D02*
X049055D01*
X048355Y032032D02*
Y032562D01*
Y032867D02*
Y033412D01*
X049055Y032867D02*
Y033412D01*
Y032032D02*
Y032562D01*
X035368Y029666D02*
X036068D01*
X035368Y031046D02*
X036068D01*
X035368Y029666D02*
Y030195D01*
Y0305D02*
Y031046D01*
X036068Y0305D02*
Y031046D01*
Y029666D02*
Y030195D01*
X035342Y029432D02*
X036042D01*
X035342Y028052D02*
X036042D01*
Y028903D02*
Y029432D01*
Y028052D02*
Y028598D01*
X035342Y028052D02*
Y028598D01*
Y028903D02*
Y029432D01*
X04185Y02777D02*
X047047D01*
X04185Y032967D02*
X047047D01*
Y02777D02*
Y032967D01*
X04185Y02777D02*
Y032967D01*
X041363Y034651D02*
X041891D01*
X041363Y033941D02*
Y034651D01*
Y033941D02*
X041891D01*
X042196D02*
X042741D01*
X042196Y034651D02*
X042741D01*
Y033941D02*
Y034651D01*
X057349Y03815D02*
Y040394D01*
X055538Y03815D02*
X057349D01*
X055538D02*
Y040394D01*
X057349D01*
X055058Y03815D02*
Y040394D01*
X053247Y03815D02*
X055058D01*
X053247D02*
Y040394D01*
X055058D01*
X052768Y03815D02*
Y040394D01*
X050957Y03815D02*
X052768D01*
X050957D02*
Y040394D01*
X052768D01*
X050477Y03815D02*
Y040394D01*
X048666Y03815D02*
X050477D01*
X048666D02*
Y040394D01*
X050477D01*
X048187Y03815D02*
Y040394D01*
X046376Y03815D02*
X048187D01*
X046376D02*
Y040394D01*
X048187D01*
X045896Y03815D02*
Y040394D01*
X044085Y03815D02*
X045896D01*
X044085D02*
Y040394D01*
X045896D01*
X043606Y03815D02*
Y040394D01*
X041795Y03815D02*
X043606D01*
X041795D02*
Y040394D01*
X043606D01*
X041315Y03815D02*
Y040394D01*
X039504Y03815D02*
X041315D01*
X039504D02*
Y040394D01*
X041315D01*
X039025Y03815D02*
Y040394D01*
X037214Y03815D02*
X039025D01*
X037214D02*
Y040394D01*
X039025D01*
X036734Y03815D02*
Y040394D01*
X034923Y03815D02*
X036734D01*
X034923D02*
Y040394D01*
X036734D01*
X034444Y03815D02*
Y040394D01*
X032633Y03815D02*
X034444D01*
X032633D02*
Y040394D01*
X034444D01*
X032153Y03815D02*
Y040394D01*
X030342Y03815D02*
X032153D01*
X030342D02*
Y040394D01*
X032153D01*
X021371Y028838D02*
Y029538D01*
X022751Y028838D02*
Y029538D01*
X021371D02*
X0219D01*
X022205D02*
X022751D01*
X022205Y028838D02*
X022751D01*
X021371D02*
X0219D01*
X022808Y028084D02*
Y028612D01*
X022098D02*
X022808D01*
X022098Y028084D02*
Y028612D01*
Y027234D02*
Y027779D01*
X022808Y027234D02*
Y027779D01*
X022098Y027234D02*
X022808D01*
X021307Y028085D02*
Y028614D01*
Y027234D02*
Y02778D01*
X022007Y027234D02*
Y02778D01*
Y028085D02*
Y028614D01*
X021307Y027234D02*
X022007D01*
X021307Y028614D02*
X022007D01*
X023648Y040383D02*
Y040462D01*
Y040737D02*
Y040777D01*
X023491Y040462D02*
X023845D01*
X023648Y040737D02*
X023845Y040462D01*
X023491D02*
X023648Y040737D01*
X023451D02*
X023845D01*
X023748Y042056D02*
X024298D01*
Y03913D02*
Y042056D01*
X023748Y04198D02*
Y042056D01*
Y04198D02*
X024298D01*
X022998D02*
X023548D01*
Y042056D01*
X024111Y03913D02*
X024298D01*
X022998Y042056D02*
X023548D01*
X022998Y03913D02*
X023185D01*
X022998D02*
Y042056D01*
X034424Y024254D02*
X034953D01*
Y024964D01*
X034424D02*
X034953D01*
X033575D02*
X034119D01*
X033575Y024254D02*
X034119D01*
X033575D02*
Y024964D01*
X031354Y041642D02*
X031882D01*
Y042352D01*
X031354D02*
X031882D01*
X030504D02*
X031049D01*
X030504Y041642D02*
X031049D01*
X030504D02*
Y042352D01*
X033604Y041642D02*
X034132D01*
Y042352D01*
X033604D02*
X034132D01*
X032754D02*
X033299D01*
X032754Y041642D02*
X033299D01*
X032754D02*
Y042352D01*
X035838Y041671D02*
X036366D01*
Y042381D01*
X035838D02*
X036366D01*
X034988D02*
X035533D01*
X034988Y041671D02*
X035533D01*
X034988D02*
Y042381D01*
X042401Y04162D02*
X042929D01*
Y04233D01*
X042401D02*
X042929D01*
X041551D02*
X042096D01*
X041551Y04162D02*
X042096D01*
X041551D02*
Y04233D01*
X043442Y024254D02*
X043971D01*
Y024964D01*
X043442D02*
X043971D01*
X042593D02*
X043137D01*
X042593Y024254D02*
X043137D01*
X042593D02*
Y024964D01*
X038903Y024254D02*
X039431D01*
Y024964D01*
X038903D02*
X039431D01*
X038053D02*
X038598D01*
X038053Y024254D02*
X038598D01*
X038053D02*
Y024964D01*
X045549Y024254D02*
X046077D01*
Y024964D01*
X045549D02*
X046077D01*
X044699D02*
X045244D01*
X044699Y024254D02*
X045244D01*
X044699D02*
Y024964D01*
X038682Y018006D02*
X03921D01*
Y018716D01*
X038682D02*
X03921D01*
X037832D02*
X038377D01*
X037832Y018006D02*
X038377D01*
X037832D02*
Y018716D01*
X047885Y024254D02*
X048413D01*
Y024964D01*
X047885D02*
X048413D01*
X047035D02*
X04758D01*
X047035Y024254D02*
X04758D01*
X047035D02*
Y024964D01*
X045618Y018001D02*
X046147D01*
Y018711D01*
X045618D02*
X046147D01*
X044769D02*
X045313D01*
X044769Y018001D02*
X045313D01*
X044769D02*
Y018711D01*
X04793Y018001D02*
X048459D01*
Y018711D01*
X04793D02*
X048459D01*
X047081D02*
X047625D01*
X047081Y018001D02*
X047625D01*
X047081D02*
Y018711D01*
X050224Y024254D02*
X050752D01*
Y024964D01*
X050224D02*
X050752D01*
X049374D02*
X049919D01*
X049374Y024254D02*
X049919D01*
X049374D02*
Y024964D01*
X036602Y024254D02*
X03713D01*
Y024964D01*
X036602D02*
X03713D01*
X035752D02*
X036297D01*
X035752Y024254D02*
X036297D01*
X035752D02*
Y024964D01*
X050243Y017982D02*
X050771D01*
Y018692D01*
X050243D02*
X050771D01*
X049393D02*
X049938D01*
X049393Y017982D02*
X049938D01*
X049393D02*
Y018692D01*
X043306Y018001D02*
X043834D01*
Y018711D01*
X043306D02*
X043834D01*
X042456D02*
X043001D01*
X042456Y018001D02*
X043001D01*
X042456D02*
Y018711D01*
X03637Y018014D02*
X036898D01*
Y018724D01*
X03637D02*
X036898D01*
X03552D02*
X036065D01*
X03552Y018014D02*
X036065D01*
X03552D02*
Y018724D01*
X041234Y024254D02*
X041762D01*
Y024964D01*
X041234D02*
X041762D01*
X040384D02*
X040929D01*
X040384Y024254D02*
X040929D01*
X040384D02*
Y024964D01*
X051713Y024254D02*
Y024964D01*
Y024254D02*
X052257D01*
X051713Y024964D02*
X052257D01*
X052562D02*
X053091D01*
Y024254D02*
Y024964D01*
X052562Y024254D02*
X053091D01*
X040994Y018001D02*
X041522D01*
Y018711D01*
X040994D02*
X041522D01*
X040144D02*
X040689D01*
X040144Y018001D02*
X040689D01*
X040144D02*
Y018711D01*
X034058Y018006D02*
X034586D01*
Y018716D01*
X034058D02*
X034586D01*
X033208D02*
X033753D01*
X033208Y018006D02*
X033753D01*
X033208D02*
Y018716D01*
X055014Y032586D02*
Y033114D01*
X054304D02*
X055014D01*
X054304Y032586D02*
Y033114D01*
Y031736D02*
Y032281D01*
X055014Y031736D02*
Y032281D01*
X054304Y031736D02*
X055014D01*
Y033972D02*
Y0345D01*
X054304D02*
X055014D01*
X054304Y033972D02*
Y0345D01*
Y033122D02*
Y033667D01*
X055014Y033122D02*
Y033667D01*
X054304Y033122D02*
X055014D01*
X059498Y033114D02*
Y033642D01*
Y033114D02*
X060208D01*
Y033642D01*
Y033948D02*
Y034492D01*
X059498Y033948D02*
Y034492D01*
X060208D01*
X019598Y026957D02*
Y029594D01*
X018495Y026957D02*
Y029594D01*
Y026957D02*
X019598D01*
X018495Y029594D02*
X019598D01*
X047601Y034894D02*
X047548Y034947D01*
X047443D01*
X047391Y034894D01*
Y034842D01*
X047443Y034789D01*
X047548D01*
X047601Y034737D01*
Y034684D01*
X047548Y034632D01*
X047443D01*
X047391Y034684D01*
X047706Y034947D02*
Y034632D01*
X047811Y034737D01*
X047916Y034632D01*
Y034947D01*
X04802D02*
Y034632D01*
X048178D01*
X04823Y034684D01*
Y034894D01*
X048178Y034947D01*
X04802D01*
X048335D02*
X04844D01*
X048388D01*
Y034632D01*
X048335D01*
X04844D01*
X048755Y034947D02*
X04865D01*
X048598Y034894D01*
Y034684D01*
X04865Y034632D01*
X048755D01*
X048808Y034684D01*
Y034894D01*
X048755Y034947D01*
X0492Y034892D02*
X049252Y034944D01*
X049357D01*
X04941Y034892D01*
Y034839D01*
X049357Y034787D01*
X049305D01*
X049357D01*
X04941Y034735D01*
Y034682D01*
X049357Y03463D01*
X049252D01*
X0492Y034682D01*
X049515Y03463D02*
Y034682D01*
X049567D01*
Y03463D01*
X049515D01*
X049777Y034892D02*
X04983Y034944D01*
X049935D01*
X049987Y034892D01*
Y034839D01*
X049935Y034787D01*
X049882D01*
X049935D01*
X049987Y034735D01*
Y034682D01*
X049935Y03463D01*
X04983D01*
X049777Y034682D01*
X050092Y034944D02*
Y034735D01*
X050197Y03463D01*
X050302Y034735D01*
Y034944D01*
X052152Y034893D02*
X052099Y034946D01*
X051994D01*
X051942Y034893D01*
Y034841D01*
X051994Y034788D01*
X052099D01*
X052152Y034736D01*
Y034683D01*
X052099Y034631D01*
X051994D01*
X051942Y034683D01*
X052257Y034946D02*
Y034631D01*
X052362Y034736D01*
X052467Y034631D01*
Y034946D01*
X052781Y034893D02*
X052729Y034946D01*
X052624D01*
X052571Y034893D01*
Y034683D01*
X052624Y034631D01*
X052729D01*
X052781Y034683D01*
X052886Y034946D02*
Y034631D01*
X053096D01*
X053201Y034946D02*
Y034631D01*
Y034736D01*
X053411Y034946D01*
X053254Y034788D01*
X053411Y034631D01*
X050898Y034894D02*
X050845Y034947D01*
X05074D01*
X050688Y034894D01*
Y034684D01*
X05074Y034632D01*
X050845D01*
X050898Y034684D01*
Y034789D01*
X050793D01*
X051003Y034632D02*
Y034947D01*
X051213Y034632D01*
Y034947D01*
X051317D02*
Y034632D01*
X051475D01*
X051527Y034684D01*
Y034894D01*
X051475Y034947D01*
X051317D01*
D13*
X027332Y017133D02*
G03*
X027332Y017133I-000049J0D01*
G01*
X056173Y033967D02*
G03*
X056173Y033967I-000049J0D01*
G01*
X057434Y029636D02*
G03*
X057434Y029636I-000049J0D01*
G01*
X056173Y026687D02*
G03*
X056173Y026687I-000049J0D01*
G01*
X041457Y033006D02*
G03*
X041457Y033006I-000049J0D01*
G01*
X020237Y026957D02*
G03*
X020237Y026957I-000049J0D01*
G01*
D14*
X057089Y033453D02*
G03*
X057089Y033453I-000118J0D01*
G01*
Y026173D02*
G03*
X057089Y026173I-000118J0D01*
G01*
X042362Y032573D02*
G03*
X042362Y032573I-000118J0D01*
G01*
D15*
X032887Y030507D02*
Y030657D01*
X032762D02*
X033012D01*
X032762Y030957D02*
X033012D01*
X032887D02*
Y031087D01*
X032317Y031227D02*
X033407D01*
X032317Y031117D02*
Y031227D01*
X033407Y031117D02*
Y031227D01*
Y030397D02*
Y030507D01*
X032307Y030397D02*
X033407D01*
X032307D02*
Y030507D01*
X038446Y027224D02*
Y031824D01*
X036546Y027224D02*
X037046D01*
X037946D02*
X038446D01*
X037946Y031824D02*
X038446D01*
X037496Y029074D02*
Y029274D01*
X037196D02*
X037796D01*
X036996Y029424D02*
X037996D01*
Y029624D01*
X036996D02*
X037996D01*
X036996Y029424D02*
Y029624D01*
X037196Y029774D02*
X037796D01*
X037496D02*
Y029974D01*
X036546Y027224D02*
Y031824D01*
X037046D01*
D16*
X034315Y029449D02*
X034495D01*
X034315Y028909D02*
X034495D01*
X034309Y030335D02*
X034489D01*
X034309Y029795D02*
X034489D01*
X017701Y015403D02*
X017881D01*
X017701Y015943D02*
X017881D01*
X019378Y024887D02*
X019558D01*
X019378Y024347D02*
X019558D01*
X020972Y024887D02*
X021152D01*
X020972Y024347D02*
X021152D01*
X022564Y024345D02*
X022744D01*
X022564Y024885D02*
X022744D01*
X048166Y026948D02*
Y027128D01*
X048706Y026948D02*
Y027128D01*
X040305Y02802D02*
Y0282D01*
X039765Y02802D02*
Y0282D01*
X041191Y026751D02*
X041371D01*
X041191Y026211D02*
X041371D01*
X039765Y029517D02*
Y029697D01*
X040305Y029517D02*
Y029697D01*
Y031337D02*
Y031517D01*
X039765Y031337D02*
Y031517D01*
X060124Y028737D02*
Y028917D01*
X059584Y028737D02*
Y028917D01*
X039765Y033398D02*
Y033578D01*
X040305Y033398D02*
Y033578D01*
X056405Y036052D02*
X056585D01*
X056405Y036592D02*
X056585D01*
X054123Y036052D02*
X054303D01*
X054123Y036592D02*
X054303D01*
X051841Y036052D02*
X052021D01*
X051841Y036592D02*
X052021D01*
X049559Y036052D02*
X049739D01*
X049559Y036592D02*
X049739D01*
X047278Y036052D02*
X047458D01*
X047278Y036592D02*
X047458D01*
X044996Y036052D02*
X045176D01*
X044996Y036592D02*
X045176D01*
X042714Y036052D02*
X042894D01*
X042714Y036592D02*
X042894D01*
X040432Y036052D02*
X040612D01*
X040432Y036592D02*
X040612D01*
X03815Y036052D02*
X03833D01*
X03815Y036592D02*
X03833D01*
X035869Y036052D02*
X036049D01*
X035869Y036592D02*
X036049D01*
X033587Y036052D02*
X033767D01*
X033587Y036592D02*
X033767D01*
X031305Y036052D02*
X031485D01*
X031305Y036592D02*
X031485D01*
X052305Y018627D02*
X052485D01*
X052305Y018087D02*
X052485D01*
X055434Y042368D02*
X055614D01*
X055434Y041828D02*
X055614D01*
X053414Y0424D02*
X053594D01*
X053414Y04186D02*
X053594D01*
X051158Y042337D02*
X051338D01*
X051158Y041797D02*
X051338D01*
X048985Y042317D02*
X049165D01*
X048985Y041777D02*
X049165D01*
X046976Y042292D02*
X047156D01*
X046976Y041752D02*
X047156D01*
X0445Y042266D02*
X04468D01*
X0445Y041726D02*
X04468D01*
X040177Y042292D02*
X040357D01*
X040177Y041752D02*
X040357D01*
X037905Y042268D02*
X038085D01*
X037905Y041728D02*
X038085D01*
X03485Y01381D02*
X03499Y01382D01*
X03316Y01756D02*
Y01779D01*
X03317Y0178D01*
X03522D01*
Y01381D02*
Y0178D01*
X03317Y01381D02*
X03522D01*
X03316Y0138D02*
X03317Y01381D01*
X03316Y0138D02*
Y01756D01*
X037305Y01381D02*
X037445Y01382D01*
X035615Y01756D02*
Y01779D01*
X035625Y0178D01*
X037675D01*
Y01381D02*
Y0178D01*
X035625Y01381D02*
X037675D01*
X035615Y0138D02*
X035625Y01381D01*
X035615Y0138D02*
Y01756D01*
X039722Y01381D02*
X039862Y01382D01*
X038032Y01756D02*
Y01779D01*
X038042Y0178D01*
X040092D01*
Y01381D02*
Y0178D01*
X038042Y01381D02*
X040092D01*
X038032Y0138D02*
X038042Y01381D01*
X038032Y0138D02*
Y01756D01*
X042138Y01381D02*
X042278Y01382D01*
X040448Y01756D02*
Y01779D01*
X040458Y0178D01*
X042508D01*
Y01381D02*
Y0178D01*
X040458Y01381D02*
X042508D01*
X040448Y0138D02*
X040458Y01381D01*
X040448Y0138D02*
Y01756D01*
X042864Y0138D02*
Y01756D01*
Y0138D02*
X042874Y01381D01*
X044924D01*
Y0178D01*
X042874D02*
X044924D01*
X042864Y01779D02*
X042874Y0178D01*
X042864Y01756D02*
Y01779D01*
X044554Y01381D02*
X044694Y01382D01*
X04697Y01381D02*
X04711Y01382D01*
X04528Y01756D02*
Y01779D01*
X04529Y0178D01*
X04734D01*
Y01381D02*
Y0178D01*
X04529Y01381D02*
X04734D01*
X04528Y0138D02*
X04529Y01381D01*
X04528Y0138D02*
Y01756D01*
X049387Y01381D02*
X049527Y01382D01*
X047696Y01756D02*
Y01779D01*
X047706Y0178D01*
X049756D01*
Y01381D02*
Y0178D01*
X047706Y01381D02*
X049756D01*
X047696Y0138D02*
X047706Y01381D01*
X047696Y0138D02*
Y01756D01*
X051803Y01381D02*
X051943Y01382D01*
X050113Y01756D02*
Y01779D01*
X050123Y0178D01*
X052173D01*
Y01381D02*
Y0178D01*
X050123Y01381D02*
X052173D01*
X050113Y0138D02*
X050123Y01381D01*
X050113Y0138D02*
Y01756D01*
X054219Y01381D02*
X054359Y01382D01*
X052529Y01756D02*
Y01779D01*
X052539Y0178D01*
X054589D01*
Y01381D02*
Y0178D01*
X052539Y01381D02*
X054589D01*
X052529Y0138D02*
X052539Y01381D01*
X052529Y0138D02*
Y01756D01*
X028271Y024742D02*
X028451D01*
X028271Y024202D02*
X028451D01*
X028271Y023436D02*
X028451D01*
X028271Y022896D02*
X028451D01*
X019305Y015915D02*
Y016095D01*
X018765Y015915D02*
Y016095D01*
X031092Y017572D02*
Y017752D01*
X030552Y017572D02*
Y017752D01*
X02956Y017576D02*
Y017756D01*
X0301Y017576D02*
Y017756D01*
Y019104D02*
Y019284D01*
X02956Y019104D02*
Y019284D01*
X030549Y019096D02*
Y019276D01*
X031089Y019096D02*
Y019276D01*
X060136Y032259D02*
Y032439D01*
X059596Y032259D02*
Y032439D01*
X057702Y019517D02*
X057882D01*
X057702Y018977D02*
X057882D01*
X057705Y020735D02*
X057885D01*
X057705Y020195D02*
X057885D01*
X057687Y022423D02*
X057867D01*
X057687Y021883D02*
X057867D01*
X057705Y023664D02*
X057885D01*
X057705Y023124D02*
X057885D01*
X048433Y032631D02*
Y032811D01*
X048973Y032631D02*
Y032811D01*
X035447Y030264D02*
Y030444D01*
X035987Y030264D02*
Y030444D01*
X035963Y028654D02*
Y028834D01*
X035423Y028654D02*
Y028834D01*
X04196Y034565D02*
X04214D01*
X04196Y034025D02*
X04214D01*
X021969Y029459D02*
X022149D01*
X021969Y028919D02*
X022149D01*
X022722Y027835D02*
Y028015D01*
X022182Y027835D02*
Y028015D01*
X021388Y027836D02*
Y028016D01*
X021928Y027836D02*
Y028016D01*
X034175Y02434D02*
X034355D01*
X034175Y02488D02*
X034355D01*
X031105Y041728D02*
X031285D01*
X031105Y042268D02*
X031285D01*
X033355Y041728D02*
X033535D01*
X033355Y042268D02*
X033535D01*
X035589Y041757D02*
X035769D01*
X035589Y042297D02*
X035769D01*
X042152Y041706D02*
X042332D01*
X042152Y042246D02*
X042332D01*
X043193Y02434D02*
X043373D01*
X043193Y02488D02*
X043373D01*
X038654Y02434D02*
X038834D01*
X038654Y02488D02*
X038834D01*
X0453Y02434D02*
X04548D01*
X0453Y02488D02*
X04548D01*
X038433Y018092D02*
X038613D01*
X038433Y018632D02*
X038613D01*
X047636Y02434D02*
X047816D01*
X047636Y02488D02*
X047816D01*
X045369Y018087D02*
X045549D01*
X045369Y018627D02*
X045549D01*
X047681Y018087D02*
X047861D01*
X047681Y018627D02*
X047861D01*
X049975Y02434D02*
X050155D01*
X049975Y02488D02*
X050155D01*
X036353Y02434D02*
X036533D01*
X036353Y02488D02*
X036533D01*
X049994Y018068D02*
X050174D01*
X049994Y018608D02*
X050174D01*
X043057Y018087D02*
X043237D01*
X043057Y018627D02*
X043237D01*
X036121Y0181D02*
X036301D01*
X036121Y01864D02*
X036301D01*
X040985Y02434D02*
X041165D01*
X040985Y02488D02*
X041165D01*
X052313D02*
X052493D01*
X052313Y02434D02*
X052493D01*
X040745Y018087D02*
X040925D01*
X040745Y018627D02*
X040925D01*
X033809Y018092D02*
X033989D01*
X033809Y018632D02*
X033989D01*
X054928Y032337D02*
Y032517D01*
X054388Y032337D02*
Y032517D01*
X054928Y033723D02*
Y033903D01*
X054388Y033723D02*
Y033903D01*
X059584Y033711D02*
Y033891D01*
X060124Y033711D02*
Y033891D01*
X027824Y012698D02*
X027957Y012764D01*
X028091Y012898D01*
Y013031D01*
X028024Y013098D01*
X027891D01*
X027824Y013031D01*
Y012964D01*
X027891Y012898D01*
X028091D01*
X024791Y013031D02*
X024724Y013098D01*
X024591D01*
X024524Y013031D01*
Y012764D01*
X024591Y012698D01*
X024724D01*
X024791Y012764D01*
Y012831D01*
X024724Y012898D01*
X024524D01*
X023024Y014748D02*
X023291D01*
Y014948D01*
X023157Y014881D01*
X023091D01*
X023024Y014948D01*
Y015081D01*
X023091Y015148D01*
X023224D01*
X023291Y015081D01*
X029491Y015148D02*
X029357D01*
X029424D01*
Y014748D01*
X029491Y014814D01*
D17*
X017647Y016584D02*
X017727D01*
X017647Y016264D02*
X017727D01*
X017147Y016194D02*
X018217D01*
X017147D02*
Y016654D01*
X018217D01*
Y016194D02*
Y016654D01*
X024037Y024597D02*
X024117D01*
X024037Y024917D02*
X024117D01*
X023547Y024987D02*
X024617D01*
Y024527D02*
Y024987D01*
X023547Y024527D02*
X024617D01*
X023547D02*
Y024987D01*
X03064Y024749D02*
Y024799D01*
X02974D02*
X03064D01*
X02974Y024749D02*
Y024799D01*
X03064Y024099D02*
Y024149D01*
X02974Y024099D02*
X03064D01*
X02974D02*
Y024149D01*
X03064Y023438D02*
Y023488D01*
X02974D02*
X03064D01*
X02974Y023438D02*
Y023488D01*
X03064Y022788D02*
Y022838D01*
X02974Y022788D02*
X03064D01*
X02974D02*
Y022838D01*
X023785Y027389D02*
X023835D01*
Y028289D01*
X023785D02*
X023835D01*
X023135Y027389D02*
X023185D01*
X023135D02*
Y028289D01*
X023185D01*
D18*
X021071Y010407D02*
Y010657D01*
X022071Y008907D02*
Y010407D01*
X020821Y008907D02*
X022071D01*
X020821D02*
Y010407D01*
X022071D01*
X021071Y009157D02*
Y010157D01*
X021821Y009157D02*
Y010157D01*
Y010407D02*
Y010657D01*
X030971Y010387D02*
Y010637D01*
X031971Y008887D02*
Y010387D01*
X030721Y008887D02*
X031971D01*
X030721D02*
Y010387D01*
X031971D01*
X030971Y009137D02*
Y010137D01*
X031721Y009137D02*
Y010137D01*
Y010387D02*
Y010637D01*
D19*
X032636Y031889D02*
Y031822D01*
X03277Y031689D01*
X032903Y031822D01*
Y031889D01*
X03277Y031689D02*
Y031489D01*
X033036D02*
X03317D01*
X033103D01*
Y031889D01*
X033036Y031822D01*
X034347Y030977D02*
X034281Y031044D01*
X034147D01*
X034081Y030977D01*
Y030711D01*
X034147Y030644D01*
X034281D01*
X034347Y030711D01*
X034747Y030644D02*
X034481D01*
X034747Y030911D01*
Y030977D01*
X034681Y031044D01*
X034547D01*
X034481Y030977D01*
X03443Y028511D02*
X034363Y028578D01*
X03423D01*
X034163Y028511D01*
Y028245D01*
X03423Y028178D01*
X034363D01*
X03443Y028245D01*
X034563Y028178D02*
X034697D01*
X03463D01*
Y028578D01*
X034563Y028511D01*
X0173Y01472D02*
Y01512D01*
X0175D01*
X017566Y015053D01*
Y01492D01*
X0175Y014853D01*
X0173D01*
X017433D02*
X017566Y01472D01*
X017966Y01512D02*
X0177D01*
Y01492D01*
X017833Y014987D01*
X0179D01*
X017966Y01492D01*
Y014787D01*
X0179Y01472D01*
X017766D01*
X0177Y014787D01*
X0181D02*
X018166Y01472D01*
X0183D01*
X018366Y014787D01*
Y015053D01*
X0183Y01512D01*
X018166D01*
X0181Y015053D01*
Y014987D01*
X018166Y01492D01*
X018366D01*
X016456Y015945D02*
X016389Y015878D01*
Y015745D01*
X016456Y015678D01*
X016722D01*
X016789Y015745D01*
Y015878D01*
X016722Y015945D01*
X016789Y016078D02*
Y016211D01*
Y016145D01*
X016389D01*
X016456Y016078D01*
X016722Y016411D02*
X016789Y016478D01*
Y016611D01*
X016722Y016678D01*
X016456D01*
X016389Y016611D01*
Y016478D01*
X016456Y016411D01*
X016522D01*
X016589Y016478D01*
Y016678D01*
X023657Y025634D02*
X02359Y025701D01*
X023457D01*
X02339Y025634D01*
Y025368D01*
X023457Y025301D01*
X02359D01*
X023657Y025368D01*
X02379Y025301D02*
X023923D01*
X023857D01*
Y025701D01*
X02379Y025634D01*
X024123D02*
X02419Y025701D01*
X024323D01*
X02439Y025634D01*
Y025568D01*
X024323Y025501D01*
X02439Y025434D01*
Y025368D01*
X024323Y025301D01*
X02419D01*
X024123Y025368D01*
Y025434D01*
X02419Y025501D01*
X024123Y025568D01*
Y025634D01*
X02419Y025501D02*
X024323D01*
X025009Y025643D02*
X024942Y02571D01*
X024809D01*
X024742Y025643D01*
Y025377D01*
X024809Y02531D01*
X024942D01*
X025009Y025377D01*
X025142Y02531D02*
X025275D01*
X025209D01*
Y02571D01*
X025142Y025643D01*
X025475Y02571D02*
X025742D01*
Y025643D01*
X025475Y025377D01*
Y02531D01*
X026134Y026157D02*
Y025757D01*
X026334D01*
X0264Y025824D01*
Y02589D01*
X026334Y025957D01*
X026134D01*
X026334D01*
X0264Y026024D01*
Y02609D01*
X026334Y026157D01*
X026134D01*
X026534D02*
X0268D01*
X026667D01*
Y025757D01*
X026934Y02609D02*
X027Y026157D01*
X027134D01*
X0272Y02609D01*
Y026024D01*
X027134Y025957D01*
X027067D01*
X027134D01*
X0272Y02589D01*
Y025824D01*
X027134Y025757D01*
X027D01*
X026934Y025824D01*
X01786Y035679D02*
X018193D01*
X01826Y035745D01*
Y035879D01*
X018193Y035945D01*
X01786D01*
X01826Y036345D02*
Y036079D01*
X017993Y036345D01*
X017927D01*
X01786Y036279D01*
Y036145D01*
X017927Y036079D01*
X01826Y036679D02*
X01786D01*
X01806Y036479D01*
Y036745D01*
X02791Y025015D02*
Y025415D01*
X02811D01*
X028176Y025348D01*
Y025215D01*
X02811Y025148D01*
X02791D01*
X028043D02*
X028176Y025015D01*
X02831Y025348D02*
X028376Y025415D01*
X02851D01*
X028576Y025348D01*
Y025282D01*
X02851Y025215D01*
X028443D01*
X02851D01*
X028576Y025148D01*
Y025082D01*
X02851Y025015D01*
X028376D01*
X02831Y025082D01*
X027925Y022192D02*
Y022592D01*
X028125D01*
X028191Y022525D01*
Y022392D01*
X028125Y022325D01*
X027925D01*
X028058D02*
X028191Y022192D01*
X028591D02*
X028325D01*
X028591Y022459D01*
Y022525D01*
X028525Y022592D01*
X028391D01*
X028325Y022525D01*
X032038Y02475D02*
X031638D01*
Y024484D01*
Y024084D02*
Y02435D01*
X031905Y024084D01*
X031971D01*
X032038Y02415D01*
Y024284D01*
X031971Y02435D01*
X032055Y023263D02*
X031655D01*
Y022996D01*
Y022863D02*
Y022729D01*
Y022796D01*
X032055D01*
X031988Y022863D01*
X05669Y02734D02*
X056823D01*
X056756D01*
Y02694D01*
X05669D01*
X056823D01*
X05729Y027273D02*
X057223Y02734D01*
X05709D01*
X057023Y027273D01*
Y027007D01*
X05709Y02694D01*
X057223D01*
X05729Y027007D01*
X057423Y02694D02*
X057556D01*
X05749D01*
Y02734D01*
X057423Y027273D01*
X037138Y032851D02*
Y032784D01*
X037271Y032651D01*
X037404Y032784D01*
Y032851D01*
X037271Y032651D02*
Y032451D01*
X037804D02*
X037538D01*
X037804Y032718D01*
Y032784D01*
X037738Y032851D01*
X037604D01*
X037538Y032784D01*
X021804Y02531D02*
Y02571D01*
X022004D01*
X022071Y025643D01*
Y02551D01*
X022004Y025443D01*
X021804D01*
X021938D02*
X022071Y02531D01*
X022471Y02571D02*
X022204D01*
Y02551D01*
X022338Y025577D01*
X022404D01*
X022471Y02551D01*
Y025377D01*
X022404Y02531D01*
X022271D01*
X022204Y025377D01*
X022604Y025643D02*
X022671Y02571D01*
X022804D01*
X022871Y025643D01*
Y025577D01*
X022804Y02551D01*
X022871Y025443D01*
Y025377D01*
X022804Y02531D01*
X022671D01*
X022604Y025377D01*
Y025443D01*
X022671Y02551D01*
X022604Y025577D01*
Y025643D01*
X022671Y02551D02*
X022804D01*
X020302Y02531D02*
Y02571D01*
X020502D01*
X020569Y025643D01*
Y02551D01*
X020502Y025443D01*
X020302D01*
X020435D02*
X020569Y02531D01*
X020969Y02571D02*
X020702D01*
Y02551D01*
X020835Y025577D01*
X020902D01*
X020969Y02551D01*
Y025377D01*
X020902Y02531D01*
X020769D01*
X020702Y025377D01*
X021369Y02571D02*
X021235Y025643D01*
X021102Y02551D01*
Y025377D01*
X021169Y02531D01*
X021302D01*
X021369Y025377D01*
Y025443D01*
X021302Y02551D01*
X021102D01*
X0188Y02531D02*
Y02571D01*
X019D01*
X019067Y025643D01*
Y02551D01*
X019Y025443D01*
X0188D01*
X018933D02*
X019067Y02531D01*
X019466Y02571D02*
X0192D01*
Y02551D01*
X019333Y025577D01*
X0194D01*
X019466Y02551D01*
Y025377D01*
X0194Y02531D01*
X019267D01*
X0192Y025377D01*
X019866Y02571D02*
X0196D01*
Y02551D01*
X019733Y025577D01*
X0198D01*
X019866Y02551D01*
Y025377D01*
X0198Y02531D01*
X019666D01*
X0196Y025377D01*
X022085Y026575D02*
Y026975D01*
X022285D01*
X022351Y026908D01*
Y026775D01*
X022285Y026708D01*
X022085D01*
X022218D02*
X022351Y026575D01*
X022751Y026975D02*
X022618Y026908D01*
X022485Y026775D01*
Y026642D01*
X022551Y026575D01*
X022685D01*
X022751Y026642D01*
Y026708D01*
X022685Y026775D01*
X022485D01*
X022885Y026908D02*
X022951Y026975D01*
X023085D01*
X023151Y026908D01*
Y026642D01*
X023085Y026575D01*
X022951D01*
X022885Y026642D01*
Y026908D01*
X029268Y040708D02*
X028868D01*
Y040442D01*
Y040108D02*
X029268D01*
X029068Y040308D01*
Y040042D01*
X024084Y027578D02*
X024484D01*
Y027844D01*
X024151Y027978D02*
X024084Y028044D01*
Y028178D01*
X024151Y028244D01*
X024217D01*
X024284Y028178D01*
Y028111D01*
Y028178D01*
X024351Y028244D01*
X024417D01*
X024484Y028178D01*
Y028044D01*
X024417Y027978D01*
X023201Y042706D02*
Y042306D01*
X023401D01*
X023467Y042373D01*
Y042639D01*
X023401Y042706D01*
X023201D01*
X023601Y042639D02*
X023667Y042706D01*
X023801D01*
X023867Y042639D01*
Y042573D01*
X023801Y042506D01*
X023734D01*
X023801D01*
X023867Y042439D01*
Y042373D01*
X023801Y042306D01*
X023667D01*
X023601Y042373D01*
X020818Y027612D02*
X020751Y027546D01*
Y027412D01*
X020818Y027346D01*
X021084D01*
X021151Y027412D01*
Y027546D01*
X021084Y027612D01*
X021151Y028012D02*
Y027746D01*
X020884Y028012D01*
X020818D01*
X020751Y027946D01*
Y027812D01*
X020818Y027746D01*
X021151Y028346D02*
X020751D01*
X020951Y028146D01*
Y028412D01*
X020818Y0289D02*
X020751Y028834D01*
Y0287D01*
X020818Y028634D01*
X021084D01*
X021151Y0287D01*
Y028834D01*
X021084Y0289D01*
X021151Y0293D02*
Y029034D01*
X020884Y0293D01*
X020818D01*
X020751Y029234D01*
Y0291D01*
X020818Y029034D01*
Y029434D02*
X020751Y0295D01*
Y029634D01*
X020818Y0297D01*
X020884D01*
X020951Y029634D01*
Y029567D01*
Y029634D01*
X021018Y0297D01*
X021084D01*
X021151Y029634D01*
Y0295D01*
X021084Y029434D01*
X019021Y043147D02*
X018955Y043214D01*
X018821D01*
X018755Y043147D01*
Y042881D01*
X018821Y042814D01*
X018955D01*
X019021Y042881D01*
X019421Y042814D02*
X019155D01*
X019421Y043081D01*
Y043147D01*
X019355Y043214D01*
X019221D01*
X019155Y043147D01*
X019821Y042814D02*
X019555D01*
X019821Y043081D01*
Y043147D01*
X019755Y043214D01*
X019621D01*
X019555Y043147D01*
X017161Y03224D02*
X017228Y032307D01*
Y03244D01*
X017161Y032507D01*
X016895D01*
X016828Y03244D01*
Y032307D01*
X016895Y03224D01*
X016828Y03184D02*
Y032107D01*
X017095Y03184D01*
X017161D01*
X017228Y031907D01*
Y03204D01*
X017161Y032107D01*
X016828Y031707D02*
Y031573D01*
Y03164D01*
X017228D01*
X017161Y031707D01*
X025041Y032603D02*
X025108Y032669D01*
Y032803D01*
X025041Y032869D01*
X024775D01*
X024708Y032803D01*
Y032669D01*
X024775Y032603D01*
X024708Y032203D02*
Y032469D01*
X024975Y032203D01*
X025041D01*
X025108Y032269D01*
Y032403D01*
X025041Y032469D01*
Y032069D02*
X025108Y032003D01*
Y031869D01*
X025041Y031803D01*
X024775D01*
X024708Y031869D01*
Y032003D01*
X024775Y032069D01*
X025041D01*
X017157Y027638D02*
X01689D01*
X016757Y027771D01*
X01689Y027904D01*
X017157D01*
X016957D01*
Y027638D01*
X017157Y028037D02*
X016757D01*
X01689Y028171D01*
X016757Y028304D01*
X017157D01*
X016824Y028704D02*
X016757Y028637D01*
Y028504D01*
X016824Y028437D01*
X01689D01*
X016957Y028504D01*
Y028637D01*
X017024Y028704D01*
X01709D01*
X017157Y028637D01*
Y028504D01*
X01709Y028437D01*
X017157Y028837D02*
Y02897D01*
Y028904D01*
X016757D01*
X016824Y028837D01*
X038325Y022013D02*
Y02168D01*
X038391Y021613D01*
X038525D01*
X038591Y02168D01*
Y022013D01*
X038991Y021613D02*
X038725D01*
X038991Y02188D01*
Y021946D01*
X038925Y022013D01*
X038791D01*
X038725Y021946D01*
X039391Y021613D02*
X039125D01*
X039391Y02188D01*
Y021946D01*
X039325Y022013D01*
X039191D01*
X039125Y021946D01*
X045104Y022003D02*
Y02167D01*
X045171Y021603D01*
X045304D01*
X045371Y02167D01*
Y022003D01*
X045771Y021603D02*
X045504D01*
X045771Y02187D01*
Y021936D01*
X045704Y022003D01*
X045571D01*
X045504Y021936D01*
X045904Y021603D02*
X046038D01*
X045971D01*
Y022003D01*
X045904Y021936D01*
X047342Y02196D02*
Y021627D01*
X047408Y02156D01*
X047542D01*
X047608Y021627D01*
Y02196D01*
X048008Y02156D02*
X047742D01*
X048008Y021827D01*
Y021893D01*
X047942Y02196D01*
X047808D01*
X047742Y021893D01*
X048142D02*
X048208Y02196D01*
X048342D01*
X048408Y021893D01*
Y021627D01*
X048342Y02156D01*
X048208D01*
X048142Y021627D01*
Y021893D01*
X049701Y022047D02*
Y021714D01*
X049768Y021647D01*
X049901D01*
X049968Y021714D01*
Y022047D01*
X050101Y021647D02*
X050234D01*
X050168D01*
Y022047D01*
X050101Y02198D01*
X050434Y021714D02*
X050501Y021647D01*
X050634D01*
X050701Y021714D01*
Y02198D01*
X050634Y022047D01*
X050501D01*
X050434Y02198D01*
Y021914D01*
X050501Y021847D01*
X050701D01*
X042732Y021968D02*
Y021635D01*
X042799Y021568D01*
X042932D01*
X042999Y021635D01*
Y021968D01*
X043132Y021568D02*
X043265D01*
X043199D01*
Y021968D01*
X043132Y021901D01*
X043465D02*
X043532Y021968D01*
X043665D01*
X043732Y021901D01*
Y021835D01*
X043665Y021768D01*
X043732Y021701D01*
Y021635D01*
X043665Y021568D01*
X043532D01*
X043465Y021635D01*
Y021701D01*
X043532Y021768D01*
X043465Y021835D01*
Y021901D01*
X043532Y021768D02*
X043665D01*
X036029Y022032D02*
Y021699D01*
X036096Y021632D01*
X036229D01*
X036296Y021699D01*
Y022032D01*
X036429Y021632D02*
X036562D01*
X036496D01*
Y022032D01*
X036429Y021965D01*
X036762Y022032D02*
X037029D01*
Y021965D01*
X036762Y021699D01*
Y021632D01*
X040528Y022033D02*
Y0217D01*
X040595Y021633D01*
X040728D01*
X040795Y0217D01*
Y022033D01*
X040928Y021633D02*
X041061D01*
X040995D01*
Y022033D01*
X040928Y021966D01*
X041528Y022033D02*
X041395Y021966D01*
X041261Y021833D01*
Y0217D01*
X041328Y021633D01*
X041461D01*
X041528Y0217D01*
Y021766D01*
X041461Y021833D01*
X041261D01*
X033825Y022032D02*
Y021699D01*
X033892Y021632D01*
X034025D01*
X034092Y021699D01*
Y022032D01*
X034225Y021632D02*
X034358D01*
X034292D01*
Y022032D01*
X034225Y021965D01*
X034825Y022032D02*
X034558D01*
Y021832D01*
X034692Y021899D01*
X034758D01*
X034825Y021832D01*
Y021699D01*
X034758Y021632D01*
X034625D01*
X034558Y021699D01*
X051902Y021994D02*
Y021661D01*
X051969Y021594D01*
X052102D01*
X052169Y021661D01*
Y021994D01*
X052302Y021594D02*
X052435D01*
X052369D01*
Y021994D01*
X052302Y021927D01*
X052835Y021594D02*
Y021994D01*
X052635Y021794D01*
X052902D01*
X037811Y039314D02*
Y038981D01*
X037877Y038914D01*
X038011D01*
X038077Y038981D01*
Y039314D01*
X038211Y038914D02*
X038344D01*
X038277D01*
Y039314D01*
X038211Y039247D01*
X038544D02*
X038611Y039314D01*
X038744D01*
X038811Y039247D01*
Y039181D01*
X038744Y039114D01*
X038677D01*
X038744D01*
X038811Y039047D01*
Y038981D01*
X038744Y038914D01*
X038611D01*
X038544Y038981D01*
X046872Y039314D02*
Y038981D01*
X046938Y038914D01*
X047072D01*
X047138Y038981D01*
Y039314D01*
X047272Y038914D02*
X047405D01*
X047338D01*
Y039314D01*
X047272Y039247D01*
X047871Y038914D02*
X047605D01*
X047871Y039181D01*
Y039247D01*
X047805Y039314D01*
X047672D01*
X047605Y039247D01*
X055933Y039314D02*
Y038981D01*
X055999Y038914D01*
X056133D01*
X056199Y038981D01*
Y039314D01*
X056333Y038914D02*
X056466D01*
X056399D01*
Y039314D01*
X056333Y039247D01*
X056666Y038914D02*
X056799D01*
X056733D01*
Y039314D01*
X056666Y039247D01*
X035296Y039314D02*
Y038981D01*
X035362Y038914D01*
X035496D01*
X035562Y038981D01*
Y039314D01*
X035696Y038914D02*
X035829D01*
X035762D01*
Y039314D01*
X035696Y039247D01*
X036029D02*
X036095Y039314D01*
X036229D01*
X036295Y039247D01*
Y038981D01*
X036229Y038914D01*
X036095D01*
X036029Y038981D01*
Y039247D01*
X04469Y039314D02*
Y038981D01*
X044757Y038914D01*
X04489D01*
X044956Y038981D01*
Y039314D01*
X04509Y038981D02*
X045156Y038914D01*
X04529D01*
X045356Y038981D01*
Y039247D01*
X04529Y039314D01*
X045156D01*
X04509Y039247D01*
Y039181D01*
X045156Y039114D01*
X045356D01*
X053751Y039314D02*
Y038981D01*
X053818Y038914D01*
X053951D01*
X054017Y038981D01*
Y039314D01*
X054151Y039247D02*
X054217Y039314D01*
X054351D01*
X054417Y039247D01*
Y039181D01*
X054351Y039114D01*
X054417Y039047D01*
Y038981D01*
X054351Y038914D01*
X054217D01*
X054151Y038981D01*
Y039047D01*
X054217Y039114D01*
X054151Y039181D01*
Y039247D01*
X054217Y039114D02*
X054351D01*
X033114Y039314D02*
Y038981D01*
X03318Y038914D01*
X033314D01*
X03338Y038981D01*
Y039314D01*
X033514D02*
X03378D01*
Y039247D01*
X033514Y038981D01*
Y038914D01*
X042508Y039314D02*
Y038981D01*
X042575Y038914D01*
X042708D01*
X042775Y038981D01*
Y039314D01*
X043174D02*
X043041Y039247D01*
X042908Y039114D01*
Y038981D01*
X042974Y038914D01*
X043108D01*
X043174Y038981D01*
Y039047D01*
X043108Y039114D01*
X042908D01*
X051569Y039314D02*
Y038981D01*
X051636Y038914D01*
X051769D01*
X051835Y038981D01*
Y039314D01*
X052235D02*
X051969D01*
Y039114D01*
X052102Y039181D01*
X052169D01*
X052235Y039114D01*
Y038981D01*
X052169Y038914D01*
X052035D01*
X051969Y038981D01*
X030932Y039314D02*
Y038981D01*
X030998Y038914D01*
X031132D01*
X031198Y038981D01*
Y039314D01*
X031532Y038914D02*
Y039314D01*
X031332Y039114D01*
X031598D01*
X040326Y039314D02*
Y038981D01*
X040393Y038914D01*
X040526D01*
X040593Y038981D01*
Y039314D01*
X040726Y039247D02*
X040793Y039314D01*
X040926D01*
X040992Y039247D01*
Y039181D01*
X040926Y039114D01*
X040859D01*
X040926D01*
X040992Y039047D01*
Y038981D01*
X040926Y038914D01*
X040793D01*
X040726Y038981D01*
X049387Y039314D02*
Y038981D01*
X049454Y038914D01*
X049587D01*
X049654Y038981D01*
Y039314D01*
X050053Y038914D02*
X049787D01*
X050053Y039181D01*
Y039247D01*
X049987Y039314D01*
X049854D01*
X049787Y039247D01*
X045076Y034455D02*
Y034122D01*
X045143Y034055D01*
X045276D01*
X045343Y034122D01*
Y034455D01*
X045476Y034055D02*
X04561D01*
X045543D01*
Y034455D01*
X045476Y034388D01*
X020057Y01551D02*
X019657D01*
Y01571D01*
X019724Y015776D01*
X019857D01*
X019924Y01571D01*
Y01551D01*
Y015643D02*
X020057Y015776D01*
X019657Y016176D02*
Y015909D01*
X019857D01*
X019791Y016043D01*
Y016109D01*
X019857Y016176D01*
X019991D01*
X020057Y016109D01*
Y015976D01*
X019991Y015909D01*
X019657Y016309D02*
Y016576D01*
X019724D01*
X019991Y016309D01*
X020057D01*
X05937Y029878D02*
Y030278D01*
X05957D01*
X059636Y030211D01*
Y030078D01*
X05957Y030011D01*
X05937D01*
X059503D02*
X059636Y029878D01*
X060036Y030278D02*
X05977D01*
Y030078D01*
X059903Y030145D01*
X05997D01*
X060036Y030078D01*
Y029945D01*
X05997Y029878D01*
X059836D01*
X05977Y029945D01*
X06037Y029878D02*
Y030278D01*
X06017Y030078D01*
X060436D01*
X059517Y030999D02*
Y031399D01*
X059717D01*
X059783Y031332D01*
Y031199D01*
X059717Y031132D01*
X059517D01*
X05965D02*
X059783Y030999D01*
X060183Y031399D02*
X059917D01*
Y031199D01*
X06005Y031266D01*
X060117D01*
X060183Y031199D01*
Y031066D01*
X060117Y030999D01*
X059983D01*
X059917Y031066D01*
X060317Y031332D02*
X060383Y031399D01*
X060517D01*
X060583Y031332D01*
Y031266D01*
X060517Y031199D01*
X06045D01*
X060517D01*
X060583Y031132D01*
Y031066D01*
X060517Y030999D01*
X060383D01*
X060317Y031066D01*
X05952Y03479D02*
Y03519D01*
X05972D01*
X059787Y035123D01*
Y03499D01*
X05972Y034923D01*
X05952D01*
X059653D02*
X059787Y03479D01*
X060186Y03519D02*
X05992D01*
Y03499D01*
X060053Y035057D01*
X06012D01*
X060186Y03499D01*
Y034857D01*
X06012Y03479D01*
X059987D01*
X05992Y034857D01*
X060586Y03479D02*
X06032D01*
X060586Y035057D01*
Y035123D01*
X06052Y03519D01*
X060386D01*
X06032Y035123D01*
X053936Y033319D02*
X053537D01*
Y033519D01*
X053603Y033585D01*
X053737D01*
X053803Y033519D01*
Y033319D01*
Y033452D02*
X053936Y033585D01*
X053537Y033985D02*
Y033719D01*
X053737D01*
X05367Y033852D01*
Y033918D01*
X053737Y033985D01*
X05387D01*
X053936Y033918D01*
Y033785D01*
X05387Y033719D01*
X053936Y034118D02*
Y034252D01*
Y034185D01*
X053537D01*
X053603Y034118D01*
X053901Y031825D02*
X053501D01*
Y032025D01*
X053568Y032092D01*
X053701D01*
X053768Y032025D01*
Y031825D01*
Y031958D02*
X053901Y032092D01*
X053501Y032492D02*
Y032225D01*
X053701D01*
X053634Y032358D01*
Y032425D01*
X053701Y032492D01*
X053834D01*
X053901Y032425D01*
Y032292D01*
X053834Y032225D01*
X053568Y032625D02*
X053501Y032692D01*
Y032825D01*
X053568Y032891D01*
X053834D01*
X053901Y032825D01*
Y032692D01*
X053834Y032625D01*
X053568D01*
X03807Y02526D02*
Y02566D01*
X03827D01*
X038337Y025593D01*
Y02546D01*
X03827Y025393D01*
X03807D01*
X038203D02*
X038337Y02526D01*
X03867D02*
Y02566D01*
X03847Y02546D01*
X038736D01*
X03887Y025327D02*
X038936Y02526D01*
X03907D01*
X039136Y025327D01*
Y025593D01*
X03907Y02566D01*
X038936D01*
X03887Y025593D01*
Y025527D01*
X038936Y02546D01*
X039136D01*
X04472Y02526D02*
Y02566D01*
X04492D01*
X044987Y025593D01*
Y02546D01*
X04492Y025393D01*
X04472D01*
X044853D02*
X044987Y02526D01*
X04532D02*
Y02566D01*
X04512Y02546D01*
X045386D01*
X04552Y025593D02*
X045586Y02566D01*
X04572D01*
X045786Y025593D01*
Y025527D01*
X04572Y02546D01*
X045786Y025393D01*
Y025327D01*
X04572Y02526D01*
X045586D01*
X04552Y025327D01*
Y025393D01*
X045586Y02546D01*
X04552Y025527D01*
Y025593D01*
X045586Y02546D02*
X04572D01*
X03785Y01901D02*
Y01941D01*
X03805D01*
X038117Y019343D01*
Y01921D01*
X03805Y019143D01*
X03785D01*
X037983D02*
X038117Y01901D01*
X03845D02*
Y01941D01*
X03825Y01921D01*
X038516D01*
X03865Y01941D02*
X038916D01*
Y019343D01*
X03865Y019077D01*
Y01901D01*
X04706Y02526D02*
Y02566D01*
X04726D01*
X047327Y025593D01*
Y02546D01*
X04726Y025393D01*
X04706D01*
X047193D02*
X047327Y02526D01*
X04766D02*
Y02566D01*
X04746Y02546D01*
X047726D01*
X048126Y02566D02*
X047993Y025593D01*
X04786Y02546D01*
Y025327D01*
X047926Y02526D01*
X04806D01*
X048126Y025327D01*
Y025393D01*
X04806Y02546D01*
X04786D01*
X04479Y01901D02*
Y01941D01*
X04499D01*
X045057Y019343D01*
Y01921D01*
X04499Y019143D01*
X04479D01*
X044923D02*
X045057Y01901D01*
X04539D02*
Y01941D01*
X04519Y01921D01*
X045456D01*
X045856Y01941D02*
X04559D01*
Y01921D01*
X045723Y019277D01*
X04579D01*
X045856Y01921D01*
Y019077D01*
X04579Y01901D01*
X045656D01*
X04559Y019077D01*
X0471Y01901D02*
Y01941D01*
X0473D01*
X047367Y019343D01*
Y01921D01*
X0473Y019143D01*
X0471D01*
X047233D02*
X047367Y01901D01*
X0477D02*
Y01941D01*
X0475Y01921D01*
X047766D01*
X0481Y01901D02*
Y01941D01*
X0479Y01921D01*
X048166D01*
X04939Y02526D02*
Y02566D01*
X04959D01*
X049657Y025593D01*
Y02546D01*
X04959Y025393D01*
X04939D01*
X049523D02*
X049657Y02526D01*
X04999D02*
Y02566D01*
X04979Y02546D01*
X050056D01*
X05019Y025593D02*
X050256Y02566D01*
X05039D01*
X050456Y025593D01*
Y025527D01*
X05039Y02546D01*
X050323D01*
X05039D01*
X050456Y025393D01*
Y025327D01*
X05039Y02526D01*
X050256D01*
X05019Y025327D01*
X04261Y02526D02*
Y02566D01*
X04281D01*
X042877Y025593D01*
Y02546D01*
X04281Y025393D01*
X04261D01*
X042743D02*
X042877Y02526D01*
X04321D02*
Y02566D01*
X04301Y02546D01*
X043276D01*
X043676Y02526D02*
X04341D01*
X043676Y025527D01*
Y025593D01*
X04361Y02566D01*
X043476D01*
X04341Y025593D01*
X03577Y02526D02*
Y02566D01*
X03597D01*
X036037Y025593D01*
Y02546D01*
X03597Y025393D01*
X03577D01*
X035903D02*
X036037Y02526D01*
X03637D02*
Y02566D01*
X03617Y02546D01*
X036436D01*
X03657Y02526D02*
X036703D01*
X036636D01*
Y02566D01*
X03657Y025593D01*
X04941Y01899D02*
Y01939D01*
X04961D01*
X049677Y019323D01*
Y01919D01*
X04961Y019123D01*
X04941D01*
X049543D02*
X049677Y01899D01*
X05001D02*
Y01939D01*
X04981Y01919D01*
X050076D01*
X05021Y019323D02*
X050276Y01939D01*
X05041D01*
X050476Y019323D01*
Y019057D01*
X05041Y01899D01*
X050276D01*
X05021Y019057D01*
Y019323D01*
X04248Y01901D02*
Y01941D01*
X04268D01*
X042747Y019343D01*
Y01921D01*
X04268Y019143D01*
X04248D01*
X042613D02*
X042747Y01901D01*
X04288Y019343D02*
X042947Y01941D01*
X04308D01*
X043146Y019343D01*
Y019277D01*
X04308Y01921D01*
X043013D01*
X04308D01*
X043146Y019143D01*
Y019077D01*
X04308Y01901D01*
X042947D01*
X04288Y019077D01*
X04328D02*
X043346Y01901D01*
X04348D01*
X043546Y019077D01*
Y019343D01*
X04348Y01941D01*
X043346D01*
X04328Y019343D01*
Y019277D01*
X043346Y01921D01*
X043546D01*
X03554Y01902D02*
Y01942D01*
X03574D01*
X035807Y019353D01*
Y01922D01*
X03574Y019153D01*
X03554D01*
X035673D02*
X035807Y01902D01*
X03594Y019353D02*
X036007Y01942D01*
X03614D01*
X036206Y019353D01*
Y019287D01*
X03614Y01922D01*
X036073D01*
X03614D01*
X036206Y019153D01*
Y019087D01*
X03614Y01902D01*
X036007D01*
X03594Y019087D01*
X03634Y019353D02*
X036406Y01942D01*
X03654D01*
X036606Y019353D01*
Y019287D01*
X03654Y01922D01*
X036606Y019153D01*
Y019087D01*
X03654Y01902D01*
X036406D01*
X03634Y019087D01*
Y019153D01*
X036406Y01922D01*
X03634Y019287D01*
Y019353D01*
X036406Y01922D02*
X03654D01*
X0404Y02526D02*
Y02566D01*
X0406D01*
X040667Y025593D01*
Y02546D01*
X0406Y025393D01*
X0404D01*
X040533D02*
X040667Y02526D01*
X0408Y025593D02*
X040867Y02566D01*
X041D01*
X041066Y025593D01*
Y025527D01*
X041Y02546D01*
X040933D01*
X041D01*
X041066Y025393D01*
Y025327D01*
X041Y02526D01*
X040867D01*
X0408Y025327D01*
X0412Y02566D02*
X041466D01*
Y025593D01*
X0412Y025327D01*
Y02526D01*
X0336D02*
Y02566D01*
X0338D01*
X033867Y025593D01*
Y02546D01*
X0338Y025393D01*
X0336D01*
X033733D02*
X033867Y02526D01*
X034Y025593D02*
X034067Y02566D01*
X0342D01*
X034266Y025593D01*
Y025527D01*
X0342Y02546D01*
X034133D01*
X0342D01*
X034266Y025393D01*
Y025327D01*
X0342Y02526D01*
X034067D01*
X034Y025327D01*
X034666Y02566D02*
X034533Y025593D01*
X0344Y02546D01*
Y025327D01*
X034466Y02526D01*
X0346D01*
X034666Y025327D01*
Y025393D01*
X0346Y02546D01*
X0344D01*
X05173Y02526D02*
Y02566D01*
X05193D01*
X051997Y025593D01*
Y02546D01*
X05193Y025393D01*
X05173D01*
X051863D02*
X051997Y02526D01*
X05213Y025593D02*
X052197Y02566D01*
X05233D01*
X052396Y025593D01*
Y025527D01*
X05233Y02546D01*
X052263D01*
X05233D01*
X052396Y025393D01*
Y025327D01*
X05233Y02526D01*
X052197D01*
X05213Y025327D01*
X052796Y02566D02*
X05253D01*
Y02546D01*
X052663Y025527D01*
X05273D01*
X052796Y02546D01*
Y025327D01*
X05273Y02526D01*
X052596D01*
X05253Y025327D01*
X04017Y01901D02*
Y01941D01*
X04037D01*
X040437Y019343D01*
Y01921D01*
X04037Y019143D01*
X04017D01*
X040303D02*
X040437Y01901D01*
X04057Y019343D02*
X040637Y01941D01*
X04077D01*
X040836Y019343D01*
Y019277D01*
X04077Y01921D01*
X040703D01*
X04077D01*
X040836Y019143D01*
Y019077D01*
X04077Y01901D01*
X040637D01*
X04057Y019077D01*
X04117Y01901D02*
Y01941D01*
X04097Y01921D01*
X041236D01*
X03323Y01901D02*
Y01941D01*
X03343D01*
X033497Y019343D01*
Y01921D01*
X03343Y019143D01*
X03323D01*
X033363D02*
X033497Y01901D01*
X03363Y019343D02*
X033697Y01941D01*
X03383D01*
X033896Y019343D01*
Y019277D01*
X03383Y01921D01*
X033763D01*
X03383D01*
X033896Y019143D01*
Y019077D01*
X03383Y01901D01*
X033697D01*
X03363Y019077D01*
X03403Y019343D02*
X034096Y01941D01*
X03423D01*
X034296Y019343D01*
Y019277D01*
X03423Y01921D01*
X034163D01*
X03423D01*
X034296Y019143D01*
Y019077D01*
X03423Y01901D01*
X034096D01*
X03403Y019077D01*
X05173Y01901D02*
Y01941D01*
X05193D01*
X051997Y019343D01*
Y01921D01*
X05193Y019143D01*
X05173D01*
X051863D02*
X051997Y01901D01*
X05213Y019343D02*
X052197Y01941D01*
X05233D01*
X052396Y019343D01*
Y019277D01*
X05233Y01921D01*
X052263D01*
X05233D01*
X052396Y019143D01*
Y019077D01*
X05233Y01901D01*
X052197D01*
X05213Y019077D01*
X052796Y01901D02*
X05253D01*
X052796Y019277D01*
Y019343D01*
X05273Y01941D01*
X052596D01*
X05253Y019343D01*
X058925Y023784D02*
X059325D01*
Y023584D01*
X059258Y023517D01*
X059125D01*
X059058Y023584D01*
Y023784D01*
Y02365D02*
X058925Y023517D01*
X059258Y023384D02*
X059325Y023317D01*
Y023184D01*
X059258Y023117D01*
X059192D01*
X059125Y023184D01*
Y02325D01*
Y023184D01*
X059058Y023117D01*
X058992D01*
X058925Y023184D01*
Y023317D01*
X058992Y023384D01*
X058925Y022984D02*
Y02285D01*
Y022917D01*
X059325D01*
X059258Y022984D01*
X058925Y021084D02*
X059325D01*
Y020884D01*
X059258Y020818D01*
X059125D01*
X059058Y020884D01*
Y021084D01*
Y020951D02*
X058925Y020818D01*
X059258Y020684D02*
X059325Y020618D01*
Y020485D01*
X059258Y020418D01*
X059192D01*
X059125Y020485D01*
Y020551D01*
Y020485D01*
X059058Y020418D01*
X058992D01*
X058925Y020485D01*
Y020618D01*
X058992Y020684D01*
X059258Y020285D02*
X059325Y020218D01*
Y020085D01*
X059258Y020018D01*
X058992D01*
X058925Y020085D01*
Y020218D01*
X058992Y020285D01*
X059258D01*
X058925Y022501D02*
X059325D01*
Y022301D01*
X059258Y022234D01*
X059125D01*
X059058Y022301D01*
Y022501D01*
Y022367D02*
X058925Y022234D01*
Y021834D02*
Y022101D01*
X059192Y021834D01*
X059258D01*
X059325Y021901D01*
Y022034D01*
X059258Y022101D01*
X058992Y021701D02*
X058925Y021634D01*
Y021501D01*
X058992Y021434D01*
X059258D01*
X059325Y021501D01*
Y021634D01*
X059258Y021701D01*
X059192D01*
X059125Y021634D01*
Y021434D01*
X058925Y019668D02*
X059325D01*
Y019468D01*
X059258Y019402D01*
X059125D01*
X059058Y019468D01*
Y019668D01*
Y019535D02*
X058925Y019402D01*
Y019002D02*
Y019268D01*
X059192Y019002D01*
X059258D01*
X059325Y019068D01*
Y019202D01*
X059258Y019268D01*
Y018868D02*
X059325Y018802D01*
Y018668D01*
X059258Y018602D01*
X059192D01*
X059125Y018668D01*
X059058Y018602D01*
X058992D01*
X058925Y018668D01*
Y018802D01*
X058992Y018868D01*
X059058D01*
X059125Y018802D01*
X059192Y018868D01*
X059258D01*
X059125Y018802D02*
Y018668D01*
X037437Y042582D02*
Y042982D01*
X037637D01*
X037703Y042915D01*
Y042782D01*
X037637Y042715D01*
X037437D01*
X03757D02*
X037703Y042582D01*
X038103D02*
X037837D01*
X038103Y042849D01*
Y042915D01*
X038037Y042982D01*
X037903D01*
X037837Y042915D01*
X038237Y042982D02*
X038503D01*
Y042915D01*
X038237Y042649D01*
Y042582D01*
X046461Y042557D02*
Y042957D01*
X046661D01*
X046727Y04289D01*
Y042757D01*
X046661Y04269D01*
X046461D01*
X046594D02*
X046727Y042557D01*
X047127D02*
X046861D01*
X047127Y042824D01*
Y04289D01*
X047061Y042957D01*
X046927D01*
X046861Y04289D01*
X047527Y042957D02*
X047394Y04289D01*
X047261Y042757D01*
Y042624D01*
X047327Y042557D01*
X047461D01*
X047527Y042624D01*
Y04269D01*
X047461Y042757D01*
X047261D01*
X05502Y042683D02*
Y043083D01*
X05522D01*
X055286Y043016D01*
Y042883D01*
X05522Y042816D01*
X05502D01*
X055153D02*
X055286Y042683D01*
X055686D02*
X05542D01*
X055686Y04295D01*
Y043016D01*
X05562Y043083D01*
X055486D01*
X05542Y043016D01*
X056086Y043083D02*
X05582D01*
Y042883D01*
X055953Y04295D01*
X05602D01*
X056086Y042883D01*
Y04275D01*
X05602Y042683D01*
X055886D01*
X05582Y04275D01*
X037911Y035361D02*
Y035761D01*
X038111D01*
X038177Y035694D01*
Y035561D01*
X038111Y035494D01*
X037911D01*
X038044D02*
X038177Y035361D01*
X038577D02*
X038311D01*
X038577Y035628D01*
Y035694D01*
X038511Y035761D01*
X038377D01*
X038311Y035694D01*
X03891Y035361D02*
Y035761D01*
X03871Y035561D01*
X038977D01*
X046907Y035361D02*
Y035761D01*
X047107D01*
X047174Y035694D01*
Y035561D01*
X047107Y035494D01*
X046907D01*
X04704D02*
X047174Y035361D01*
X047574D02*
X047307D01*
X047574Y035628D01*
Y035694D01*
X047507Y035761D01*
X047374D01*
X047307Y035694D01*
X047707D02*
X047774Y035761D01*
X047907D01*
X047973Y035694D01*
Y035628D01*
X047907Y035561D01*
X04784D01*
X047907D01*
X047973Y035494D01*
Y035428D01*
X047907Y035361D01*
X047774D01*
X047707Y035428D01*
X056037Y035361D02*
Y035761D01*
X056237D01*
X056303Y035694D01*
Y035561D01*
X056237Y035494D01*
X056037D01*
X05617D02*
X056303Y035361D01*
X056703D02*
X056437D01*
X056703Y035628D01*
Y035694D01*
X056637Y035761D01*
X056503D01*
X056437Y035694D01*
X057103Y035361D02*
X056837D01*
X057103Y035628D01*
Y035694D01*
X057037Y035761D01*
X056903D01*
X056837Y035694D01*
X035206Y042573D02*
Y042973D01*
X035406D01*
X035473Y042906D01*
Y042773D01*
X035406Y042706D01*
X035206D01*
X035339D02*
X035473Y042573D01*
X035872D02*
X035606D01*
X035872Y04284D01*
Y042906D01*
X035806Y042973D01*
X035673D01*
X035606Y042906D01*
X036006Y042573D02*
X036139D01*
X036072D01*
Y042973D01*
X036006Y042906D01*
X044061Y042577D02*
Y042977D01*
X044261D01*
X044327Y04291D01*
Y042777D01*
X044261Y04271D01*
X044061D01*
X044194D02*
X044327Y042577D01*
X044727D02*
X044461D01*
X044727Y042844D01*
Y04291D01*
X044661Y042977D01*
X044527D01*
X044461Y04291D01*
X044861D02*
X044927Y042977D01*
X045061D01*
X045127Y04291D01*
Y042644D01*
X045061Y042577D01*
X044927D01*
X044861Y042644D01*
Y04291D01*
X0532Y042667D02*
Y043067D01*
X0534D01*
X053467Y043D01*
Y042867D01*
X0534Y0428D01*
X0532D01*
X053333D02*
X053467Y042667D01*
X0536D02*
X053733D01*
X053667D01*
Y043067D01*
X0536Y043D01*
X053933Y042734D02*
X054Y042667D01*
X054133D01*
X0542Y042734D01*
Y043D01*
X054133Y043067D01*
X054D01*
X053933Y043D01*
Y042934D01*
X054Y042867D01*
X0542D01*
X035562Y035361D02*
Y035761D01*
X035762D01*
X035828Y035694D01*
Y035561D01*
X035762Y035494D01*
X035562D01*
X035695D02*
X035828Y035361D01*
X035962D02*
X036095D01*
X036028D01*
Y035761D01*
X035962Y035694D01*
X036295D02*
X036361Y035761D01*
X036495D01*
X036561Y035694D01*
Y035628D01*
X036495Y035561D01*
X036561Y035494D01*
Y035428D01*
X036495Y035361D01*
X036361D01*
X036295Y035428D01*
Y035494D01*
X036361Y035561D01*
X036295Y035628D01*
Y035694D01*
X036361Y035561D02*
X036495D01*
X044558Y035361D02*
Y035761D01*
X044758D01*
X044825Y035694D01*
Y035561D01*
X044758Y035494D01*
X044558D01*
X044691D02*
X044825Y035361D01*
X044958D02*
X045091D01*
X045025D01*
Y035761D01*
X044958Y035694D01*
X045291Y035761D02*
X045558D01*
Y035694D01*
X045291Y035428D01*
Y035361D01*
X053688D02*
Y035761D01*
X053888D01*
X053954Y035694D01*
Y035561D01*
X053888Y035494D01*
X053688D01*
X053821D02*
X053954Y035361D01*
X054088D02*
X054221D01*
X054154D01*
Y035761D01*
X054088Y035694D01*
X054687Y035761D02*
X054554Y035694D01*
X054421Y035561D01*
Y035428D01*
X054488Y035361D01*
X054621D01*
X054687Y035428D01*
Y035494D01*
X054621Y035561D01*
X054421D01*
X032965Y042573D02*
Y042973D01*
X033165D01*
X033232Y042906D01*
Y042773D01*
X033165Y042706D01*
X032965D01*
X033098D02*
X033232Y042573D01*
X033365D02*
X033498D01*
X033432D01*
Y042973D01*
X033365Y042906D01*
X033965Y042973D02*
X033698D01*
Y042773D01*
X033832Y04284D01*
X033898D01*
X033965Y042773D01*
Y04264D01*
X033898Y042573D01*
X033765D01*
X033698Y04264D01*
X041595Y042573D02*
Y042973D01*
X041795D01*
X041862Y042906D01*
Y042773D01*
X041795Y042706D01*
X041595D01*
X041728D02*
X041862Y042573D01*
X041995D02*
X042128D01*
X042062D01*
Y042973D01*
X041995Y042906D01*
X042528Y042573D02*
Y042973D01*
X042328Y042773D01*
X042595D01*
X050831Y042609D02*
Y043009D01*
X051031D01*
X051098Y042942D01*
Y042809D01*
X051031Y042742D01*
X050831D01*
X050964D02*
X051098Y042609D01*
X051231D02*
X051364D01*
X051298D01*
Y043009D01*
X051231Y042942D01*
X051564D02*
X051631Y043009D01*
X051764D01*
X051831Y042942D01*
Y042876D01*
X051764Y042809D01*
X051698D01*
X051764D01*
X051831Y042742D01*
Y042676D01*
X051764Y042609D01*
X051631D01*
X051564Y042676D01*
X033213Y035361D02*
Y035761D01*
X033413D01*
X033479Y035694D01*
Y035561D01*
X033413Y035494D01*
X033213D01*
X033346D02*
X033479Y035361D01*
X033612D02*
X033746D01*
X033679D01*
Y035761D01*
X033612Y035694D01*
X034212Y035361D02*
X033946D01*
X034212Y035628D01*
Y035694D01*
X034146Y035761D01*
X034012D01*
X033946Y035694D01*
X042342Y035361D02*
Y035761D01*
X042542D01*
X042609Y035694D01*
Y035561D01*
X042542Y035494D01*
X042342D01*
X042476D02*
X042609Y035361D01*
X042742D02*
X042875D01*
X042809D01*
Y035761D01*
X042742Y035694D01*
X043075Y035361D02*
X043209D01*
X043142D01*
Y035761D01*
X043075Y035694D01*
X051339Y035361D02*
Y035761D01*
X051539D01*
X051605Y035694D01*
Y035561D01*
X051539Y035494D01*
X051339D01*
X051472D02*
X051605Y035361D01*
X051739D02*
X051872D01*
X051805D01*
Y035761D01*
X051739Y035694D01*
X052072D02*
X052138Y035761D01*
X052272D01*
X052338Y035694D01*
Y035428D01*
X052272Y035361D01*
X052138D01*
X052072Y035428D01*
Y035694D01*
X030902Y042565D02*
Y042965D01*
X031102D01*
X031168Y042898D01*
Y042765D01*
X031102Y042698D01*
X030902D01*
X031035D02*
X031168Y042565D01*
X031302Y042632D02*
X031368Y042565D01*
X031502D01*
X031568Y042632D01*
Y042898D01*
X031502Y042965D01*
X031368D01*
X031302Y042898D01*
Y042832D01*
X031368Y042765D01*
X031568D01*
X03992Y042591D02*
Y042991D01*
X04012D01*
X040186Y042924D01*
Y042791D01*
X04012Y042724D01*
X03992D01*
X040053D02*
X040186Y042591D01*
X04032Y042924D02*
X040386Y042991D01*
X04052D01*
X040586Y042924D01*
Y042858D01*
X04052Y042791D01*
X040586Y042724D01*
Y042658D01*
X04052Y042591D01*
X040386D01*
X04032Y042658D01*
Y042724D01*
X040386Y042791D01*
X04032Y042858D01*
Y042924D01*
X040386Y042791D02*
X04052D01*
X048708Y04261D02*
Y04301D01*
X048908D01*
X048974Y042943D01*
Y04281D01*
X048908Y042743D01*
X048708D01*
X048841D02*
X048974Y04261D01*
X049108Y04301D02*
X049374D01*
Y042943D01*
X049108Y042677D01*
Y04261D01*
X031197Y035361D02*
Y035761D01*
X031397D01*
X031463Y035694D01*
Y035561D01*
X031397Y035494D01*
X031197D01*
X03133D02*
X031463Y035361D01*
X031863Y035761D02*
X03173Y035694D01*
X031597Y035561D01*
Y035428D01*
X031663Y035361D01*
X031797D01*
X031863Y035428D01*
Y035494D01*
X031797Y035561D01*
X031597D01*
X040326Y035361D02*
Y035761D01*
X040526D01*
X040593Y035694D01*
Y035561D01*
X040526Y035494D01*
X040326D01*
X04046D02*
X040593Y035361D01*
X040993Y035761D02*
X040726D01*
Y035561D01*
X04086Y035628D01*
X040926D01*
X040993Y035561D01*
Y035428D01*
X040926Y035361D01*
X040793D01*
X040726Y035428D01*
X049323Y035361D02*
Y035761D01*
X049523D01*
X049589Y035694D01*
Y035561D01*
X049523Y035494D01*
X049323D01*
X049456D02*
X049589Y035361D01*
X049923D02*
Y035761D01*
X049723Y035561D01*
X049989D01*
X04324Y034106D02*
Y034506D01*
X04344D01*
X043507Y034439D01*
Y034306D01*
X04344Y034239D01*
X04324D01*
X043374D02*
X043507Y034106D01*
X04364D02*
X043774D01*
X043707D01*
Y034506D01*
X04364Y034439D01*
X03948Y018372D02*
X039746D01*
X039813Y018438D01*
Y018572D01*
X039746Y018638D01*
X03948D01*
X039413Y018572D01*
Y018438D01*
X039546Y018505D02*
X039413Y018372D01*
Y018438D02*
X03948Y018372D01*
Y018238D02*
X039413Y018172D01*
Y018038D01*
X03948Y017972D01*
X039746D01*
X039813Y018038D01*
Y018172D01*
X039746Y018238D01*
X03968D01*
X039613Y018172D01*
Y017972D01*
X04639Y018385D02*
X046656D01*
X046723Y018451D01*
Y018585D01*
X046656Y018651D01*
X04639D01*
X046323Y018585D01*
Y018451D01*
X046456Y018518D02*
X046323Y018385D01*
Y018451D02*
X04639Y018385D01*
X046656Y018251D02*
X046723Y018185D01*
Y018051D01*
X046656Y017985D01*
X04659D01*
X046523Y018051D01*
X046456Y017985D01*
X04639D01*
X046323Y018051D01*
Y018185D01*
X04639Y018251D01*
X046456D01*
X046523Y018185D01*
X04659Y018251D01*
X046656D01*
X046523Y018185D02*
Y018051D01*
X048805Y018387D02*
X049071D01*
X049138Y018453D01*
Y018587D01*
X049071Y018653D01*
X048805D01*
X048738Y018587D01*
Y018453D01*
X048871Y01852D02*
X048738Y018387D01*
Y018453D02*
X048805Y018387D01*
X049138Y018253D02*
Y017987D01*
X049071D01*
X048805Y018253D01*
X048738D01*
X051124Y018377D02*
X05139D01*
X051457Y018443D01*
Y018577D01*
X05139Y018643D01*
X051124D01*
X051057Y018577D01*
Y018443D01*
X05119Y01851D02*
X051057Y018377D01*
Y018443D02*
X051124Y018377D01*
X051457Y017977D02*
X05139Y01811D01*
X051257Y018243D01*
X051124D01*
X051057Y018177D01*
Y018043D01*
X051124Y017977D01*
X05119D01*
X051257Y018043D01*
Y018243D01*
X044126Y018387D02*
X044392D01*
X044459Y018453D01*
Y018587D01*
X044392Y018653D01*
X044126D01*
X044059Y018587D01*
Y018453D01*
X044192Y01852D02*
X044059Y018387D01*
Y018453D02*
X044126Y018387D01*
X044459Y017987D02*
Y018253D01*
X044259D01*
X044326Y01812D01*
Y018053D01*
X044259Y017987D01*
X044126D01*
X044059Y018053D01*
Y018187D01*
X044126Y018253D01*
X037232Y018381D02*
X037498D01*
X037565Y018447D01*
Y018581D01*
X037498Y018647D01*
X037232D01*
X037165Y018581D01*
Y018447D01*
X037298Y018514D02*
X037165Y018381D01*
Y018447D02*
X037232Y018381D01*
X037165Y018047D02*
X037565D01*
X037365Y018247D01*
Y017981D01*
X041795Y018406D02*
X042061D01*
X042128Y018472D01*
Y018606D01*
X042061Y018672D01*
X041795D01*
X041728Y018606D01*
Y018472D01*
X041861Y018539D02*
X041728Y018406D01*
Y018472D02*
X041795Y018406D01*
X042061Y018272D02*
X042128Y018206D01*
Y018072D01*
X042061Y018006D01*
X041995D01*
X041928Y018072D01*
Y018139D01*
Y018072D01*
X041861Y018006D01*
X041795D01*
X041728Y018072D01*
Y018206D01*
X041795Y018272D01*
X034841Y018396D02*
X035107D01*
X035174Y018462D01*
Y018596D01*
X035107Y018662D01*
X034841D01*
X034774Y018596D01*
Y018462D01*
X034907Y018529D02*
X034774Y018396D01*
Y018462D02*
X034841Y018396D01*
X034774Y017996D02*
Y018262D01*
X035041Y017996D01*
X035107D01*
X035174Y018062D01*
Y018196D01*
X035107Y018262D01*
X053445Y018287D02*
X053711D01*
X053778Y018354D01*
Y018487D01*
X053711Y018554D01*
X053445D01*
X053378Y018487D01*
Y018354D01*
X053511Y01842D02*
X053378Y018287D01*
Y018354D02*
X053445Y018287D01*
X053378Y018154D02*
Y01802D01*
Y018087D01*
X053778D01*
X053711Y018154D01*
X056942Y030557D02*
X057075D01*
X057009D01*
Y030157D01*
X056942D01*
X057075D01*
X057542Y03049D02*
X057475Y030557D01*
X057342D01*
X057275Y03049D01*
Y030224D01*
X057342Y030157D01*
X057475D01*
X057542Y030224D01*
X057875Y030157D02*
Y030557D01*
X057675Y030357D01*
X057942D01*
X026436Y021513D02*
X026569D01*
X026503D01*
Y021113D01*
X026436D01*
X026569D01*
X027036Y021446D02*
X026969Y021513D01*
X026836D01*
X026769Y021446D01*
Y02118D01*
X026836Y021113D01*
X026969D01*
X027036Y02118D01*
X027169Y021446D02*
X027236Y021513D01*
X027369D01*
X027436Y021446D01*
Y02138D01*
X027369Y021313D01*
X027303D01*
X027369D01*
X027436Y021246D01*
Y02118D01*
X027369Y021113D01*
X027236D01*
X027169Y02118D01*
X056688Y034674D02*
X056821D01*
X056755D01*
Y034274D01*
X056688D01*
X056821D01*
X057288Y034607D02*
X057221Y034674D01*
X057088D01*
X057021Y034607D01*
Y034341D01*
X057088Y034274D01*
X057221D01*
X057288Y034341D01*
X057688Y034274D02*
X057421D01*
X057688Y034541D01*
Y034607D01*
X057621Y034674D01*
X057488D01*
X057421Y034607D01*
X055557Y023131D02*
X055157D01*
Y022931D01*
X055224Y022865D01*
X05549D01*
X055557Y022931D01*
Y023131D01*
X055157Y022465D02*
Y022731D01*
X055424Y022465D01*
X05549D01*
X055557Y022531D01*
Y022665D01*
X05549Y022731D01*
X055557Y020321D02*
X055157D01*
Y020121D01*
X055224Y020054D01*
X05549D01*
X055557Y020121D01*
Y020321D01*
X055157Y019921D02*
Y019787D01*
Y019854D01*
X055557D01*
X05549Y019921D01*
X019575Y012754D02*
X019508Y012687D01*
Y012554D01*
X019575Y012488D01*
X019841D01*
X019908Y012554D01*
Y012687D01*
X019841Y012754D01*
X019508Y013087D02*
Y012954D01*
X019575Y012887D01*
X019841D01*
X019908Y012954D01*
Y013087D01*
X019841Y013154D01*
X019575D01*
X019508Y013087D01*
X019908Y013287D02*
X019508D01*
X019641Y013421D01*
X019508Y013554D01*
X019908D01*
Y013687D02*
Y01382D01*
Y013754D01*
X019508D01*
X019575Y013687D01*
X031557Y017427D02*
X03149Y01736D01*
Y017227D01*
X031557Y017161D01*
X031823D01*
X03189Y017227D01*
Y01736D01*
X031823Y017427D01*
X03189Y01756D02*
Y017694D01*
Y017627D01*
X03149D01*
X031557Y01756D01*
X03149Y01816D02*
X031557Y018027D01*
X03169Y017894D01*
X031823D01*
X03189Y01796D01*
Y018094D01*
X031823Y01816D01*
X031757D01*
X03169Y018094D01*
Y017894D01*
X031557Y019002D02*
X03149Y018935D01*
Y018802D01*
X031557Y018735D01*
X031823D01*
X03189Y018802D01*
Y018935D01*
X031823Y019002D01*
X03189Y019135D02*
Y019268D01*
Y019202D01*
X03149D01*
X031557Y019135D01*
X03149Y019735D02*
Y019468D01*
X03169D01*
X031623Y019602D01*
Y019668D01*
X03169Y019735D01*
X031823D01*
X03189Y019668D01*
Y019535D01*
X031823Y019468D01*
X028866Y019002D02*
X028799Y018935D01*
Y018802D01*
X028866Y018735D01*
X029132D01*
X029199Y018802D01*
Y018935D01*
X029132Y019002D01*
X029199Y019135D02*
Y019268D01*
Y019202D01*
X028799D01*
X028866Y019135D01*
X029199Y019668D02*
X028799D01*
X028999Y019468D01*
Y019735D01*
X028866Y017494D02*
X028799Y017427D01*
Y017294D01*
X028866Y017227D01*
X029132D01*
X029199Y017294D01*
Y017427D01*
X029132Y017494D01*
X029199Y017627D02*
Y01776D01*
Y017694D01*
X028799D01*
X028866Y017627D01*
Y01796D02*
X028799Y018027D01*
Y01816D01*
X028866Y018227D01*
X028932D01*
X028999Y01816D01*
Y018094D01*
Y01816D01*
X029066Y018227D01*
X029132D01*
X029199Y01816D01*
Y018027D01*
X029132Y01796D01*
X038934Y031215D02*
X038867Y031148D01*
Y031015D01*
X038934Y030949D01*
X0392D01*
X039267Y031015D01*
Y031148D01*
X0392Y031215D01*
X039267Y031348D02*
Y031482D01*
Y031415D01*
X038867D01*
X038934Y031348D01*
X039267Y031948D02*
Y031682D01*
X039Y031948D01*
X038934D01*
X038867Y031882D01*
Y031748D01*
X038934Y031682D01*
X038914Y033131D02*
X038847Y033064D01*
Y032931D01*
X038914Y032865D01*
X039181D01*
X039247Y032931D01*
Y033064D01*
X039181Y033131D01*
X039247Y033264D02*
Y033398D01*
Y033331D01*
X038847D01*
X038914Y033264D01*
X039247Y033598D02*
Y033731D01*
Y033664D01*
X038847D01*
X038914Y033598D01*
X049559Y027016D02*
X049626Y027083D01*
Y027216D01*
X049559Y027283D01*
X049293D01*
X049226Y027216D01*
Y027083D01*
X049293Y027016D01*
X049226Y026883D02*
Y02675D01*
Y026816D01*
X049626D01*
X049559Y026883D01*
Y02655D02*
X049626Y026483D01*
Y02635D01*
X049559Y026283D01*
X049293D01*
X049226Y02635D01*
Y026483D01*
X049293Y02655D01*
X049559D01*
Y032752D02*
X049626Y032818D01*
Y032952D01*
X049559Y033018D01*
X049293D01*
X049226Y032952D01*
Y032818D01*
X049293Y032752D01*
Y032618D02*
X049226Y032552D01*
Y032418D01*
X049293Y032352D01*
X049559D01*
X049626Y032418D01*
Y032552D01*
X049559Y032618D01*
X049493D01*
X049426Y032552D01*
Y032352D01*
X038943Y02811D02*
X038877Y028043D01*
Y02791D01*
X038943Y027843D01*
X03921D01*
X039277Y02791D01*
Y028043D01*
X03921Y02811D01*
X038943Y028243D02*
X038877Y02831D01*
Y028443D01*
X038943Y02851D01*
X03901D01*
X039077Y028443D01*
X039143Y02851D01*
X03921D01*
X039277Y028443D01*
Y02831D01*
X03921Y028243D01*
X039143D01*
X039077Y02831D01*
X03901Y028243D01*
X038943D01*
X039077Y02831D02*
Y028443D01*
X041162Y027375D02*
X041096Y027442D01*
X040962D01*
X040896Y027375D01*
Y027109D01*
X040962Y027042D01*
X041096D01*
X041162Y027109D01*
X041296Y027442D02*
X041562D01*
Y027375D01*
X041296Y027109D01*
Y027042D01*
X024078Y030179D02*
X024012Y030246D01*
X023878D01*
X023812Y030179D01*
Y029913D01*
X023878Y029846D01*
X024012D01*
X024078Y029913D01*
X024478Y030246D02*
X024345Y030179D01*
X024212Y030046D01*
Y029913D01*
X024278Y029846D01*
X024412D01*
X024478Y029913D01*
Y029979D01*
X024412Y030046D01*
X024212D01*
X035652Y027818D02*
X035586Y027885D01*
X035452D01*
X035386Y027818D01*
Y027552D01*
X035452Y027485D01*
X035586D01*
X035652Y027552D01*
X036052Y027885D02*
X035786D01*
Y027685D01*
X035919Y027752D01*
X035986D01*
X036052Y027685D01*
Y027552D01*
X035986Y027485D01*
X035852D01*
X035786Y027552D01*
X038934Y029453D02*
X038867Y029387D01*
Y029253D01*
X038934Y029187D01*
X0392D01*
X039267Y029253D01*
Y029387D01*
X0392Y029453D01*
X039267Y029787D02*
X038867D01*
X039067Y029587D01*
Y029853D01*
X03569Y031579D02*
X035624Y031646D01*
X03549D01*
X035424Y031579D01*
Y031313D01*
X03549Y031246D01*
X035624D01*
X03569Y031313D01*
X035824Y031579D02*
X03589Y031646D01*
X036024D01*
X03609Y031579D01*
Y031513D01*
X036024Y031446D01*
X035957D01*
X036024D01*
X03609Y031379D01*
Y031313D01*
X036024Y031246D01*
X03589D01*
X035824Y031313D01*
X035083Y035003D02*
Y034603D01*
X035283D01*
X035349Y03467D01*
Y034736D01*
X035283Y034803D01*
X035083D01*
X035283D01*
X035349Y03487D01*
Y034936D01*
X035283Y035003D01*
X035083D01*
X035483D02*
X035749D01*
X035616D01*
Y034603D01*
X036149D02*
X035883D01*
X036149Y03487D01*
Y034936D01*
X036083Y035003D01*
X035949D01*
X035883Y034936D01*
X031941Y031658D02*
X031541D01*
Y031458D01*
X031608Y031392D01*
X031675D01*
X031741Y031458D01*
Y031658D01*
Y031458D01*
X031808Y031392D01*
X031875D01*
X031941Y031458D01*
Y031658D01*
Y031258D02*
Y030992D01*
Y031125D01*
X031541D01*
Y030858D02*
Y030725D01*
Y030792D01*
X031941D01*
X031875Y030858D01*
D20*
X032882Y030807D02*
D03*
D21*
X026564Y023862D02*
D03*
D22*
X03504Y015795D02*
D03*
X037495D02*
D03*
X039911D02*
D03*
X042328D02*
D03*
X044744Y015795D02*
D03*
X04716Y015795D02*
D03*
X049576D02*
D03*
X051993D02*
D03*
X054409D02*
D03*
D23*
X035648Y033615D02*
D03*
M02*
