G04*
G04 #@! TF.GenerationSoftware,Altium Limited,Altium Designer,21.3.2 (30)*
G04*
G04 Layer_Color=16711935*
%FSTAX24Y24*%
%MOIN*%
G70*
G04*
G04 #@! TF.SameCoordinates,BE8E01B3-19C9-4167-8173-06ED14820A8A*
G04*
G04*
G04 #@! TF.FilePolarity,Negative*
G04*
G01*
G75*
%ADD74C,0.0560*%
%ADD75C,0.0710*%
%ADD76R,0.0710X0.0710*%
%ADD77R,0.1064X0.0867*%
%ADD78R,0.1064X0.1261*%
%ADD79R,0.0867X0.1064*%
%ADD80O,0.1080X0.0880*%
%ADD81R,0.1080X0.0880*%
%ADD82O,0.0730X0.0980*%
%ADD83C,0.1954*%
%ADD84R,0.0730X0.0980*%
%ADD85R,0.0907X0.0907*%
%ADD86C,0.0907*%
%ADD87C,0.0980*%
D74*
X033362Y030812D02*
D03*
X032362D02*
D03*
D75*
X051643Y033948D02*
D03*
X050643D02*
D03*
X049643D02*
D03*
X03133Y025576D02*
D03*
X03033D02*
D03*
X02933D02*
D03*
D76*
X048643Y033948D02*
D03*
X03233Y025576D02*
D03*
D77*
X061822Y025059D02*
D03*
Y027059D02*
D03*
Y031059D02*
D03*
Y029059D02*
D03*
Y027054D02*
D03*
Y031059D02*
D03*
Y029059D02*
D03*
Y035159D02*
D03*
Y037159D02*
D03*
Y033154D02*
D03*
Y020959D02*
D03*
Y022959D02*
D03*
Y018954D02*
D03*
D78*
X037645Y043994D02*
D03*
X035645D02*
D03*
X031645D02*
D03*
X033645D02*
D03*
X041645D02*
D03*
X039645D02*
D03*
X043645D02*
D03*
X045645D02*
D03*
D79*
X0462Y01255D02*
D03*
X0482D02*
D03*
X0522D02*
D03*
X0502D02*
D03*
X0442D02*
D03*
X0341D02*
D03*
X0401D02*
D03*
X0421D02*
D03*
X0381D02*
D03*
X0361D02*
D03*
X055681Y043992D02*
D03*
X049681D02*
D03*
X047681D02*
D03*
X051681D02*
D03*
X053681D02*
D03*
X028551Y044022D02*
D03*
X026551D02*
D03*
D80*
X03392Y0148D02*
D03*
Y0158D02*
D03*
X036375Y0148D02*
D03*
Y0158D02*
D03*
X038792Y0148D02*
D03*
Y0158D02*
D03*
X041208Y0148D02*
D03*
Y0158D02*
D03*
X043624D02*
D03*
Y0148D02*
D03*
X04604D02*
D03*
Y0158D02*
D03*
X048457Y0148D02*
D03*
Y0158D02*
D03*
X050873Y0148D02*
D03*
Y0158D02*
D03*
X053289Y0148D02*
D03*
Y0158D02*
D03*
D81*
X03392Y0168D02*
D03*
X036375D02*
D03*
X038792D02*
D03*
X041208D02*
D03*
X043624D02*
D03*
X04604D02*
D03*
X048457D02*
D03*
X050873D02*
D03*
X053289D02*
D03*
D82*
X025795Y013839D02*
D03*
X027976D02*
D03*
X027431Y014957D02*
D03*
X026886Y013839D02*
D03*
X026341Y014957D02*
D03*
X02525D02*
D03*
X024705Y013839D02*
D03*
X024159Y014957D02*
D03*
D83*
X021421Y014398D02*
D03*
X03126D02*
D03*
D84*
X028522Y014957D02*
D03*
D85*
X022807Y031461D02*
D03*
X019357Y041654D02*
D03*
X018978Y031461D02*
D03*
D86*
X022807Y032839D02*
D03*
X019357Y039654D02*
D03*
X018978Y032839D02*
D03*
D87*
X026843Y039402D02*
D03*
Y041402D02*
D03*
M02*
