G04*
G04 #@! TF.GenerationSoftware,Altium Limited,Altium Designer,21.3.2 (30)*
G04*
G04 Layer_Color=32896*
%FSTAX24Y24*%
%MOIN*%
G70*
G04*
G04 #@! TF.SameCoordinates,66943899-954D-4C86-8F58-61078407318E*
G04*
G04*
G04 #@! TF.FilePolarity,Positive*
G04*
G01*
G75*
%ADD10C,0.0118*%
D10*
X060444Y024947D02*
X060522Y024868D01*
Y024711D01*
X060444Y024632D01*
X060129D01*
X06005Y024711D01*
Y024868D01*
X060129Y024947D01*
X060286D01*
Y02479D01*
X06005Y025104D02*
X060522D01*
X06005Y025419D01*
X060522D01*
Y025577D02*
X06005D01*
Y025813D01*
X060129Y025892D01*
X060444D01*
X060522Y025813D01*
Y025577D01*
X06005Y026816D02*
X060365D01*
X060522Y026974D01*
X060365Y027131D01*
X06005D01*
X060286D01*
Y026816D01*
X060522Y028834D02*
X06005D01*
Y02907D01*
X060129Y029149D01*
X060208D01*
X060286Y02907D01*
Y028834D01*
Y02907D01*
X060365Y029149D01*
X060444D01*
X060522Y02907D01*
Y028834D01*
X060522Y030957D02*
Y030643D01*
X060286D01*
X060365Y0308D01*
Y030879D01*
X060286Y030957D01*
X060129D01*
X06005Y030879D01*
Y030721D01*
X060129Y030643D01*
X060522Y031115D02*
X060208D01*
X06005Y031272D01*
X060208Y03143D01*
X060522D01*
X06005Y020304D02*
X060365D01*
X060522Y020461D01*
X060365Y020619D01*
X06005D01*
X060286D01*
Y020304D01*
X060522Y020776D02*
Y020934D01*
Y020855D01*
X06005D01*
Y020776D01*
Y020934D01*
Y02117D02*
X060522D01*
X06005Y021485D01*
X060522D01*
X06005Y021642D02*
Y021799D01*
Y021721D01*
X060522D01*
X060444Y021642D01*
X06005Y022458D02*
X060365D01*
X060522Y022616D01*
X060365Y022773D01*
X06005D01*
X060286D01*
Y022458D01*
X060522Y02293D02*
Y023088D01*
Y023009D01*
X06005D01*
Y02293D01*
Y023088D01*
Y023324D02*
X060522D01*
X06005Y023639D01*
X060522D01*
X06005Y024111D02*
Y023796D01*
X060365Y024111D01*
X060444D01*
X060522Y024032D01*
Y023875D01*
X060444Y023796D01*
X06005Y032702D02*
X060365D01*
X060522Y03286D01*
X060365Y033017D01*
X06005D01*
X060286D01*
Y032702D01*
X060444Y033174D02*
X060522Y033253D01*
Y033411D01*
X060444Y033489D01*
X060129D01*
X06005Y033411D01*
Y033253D01*
X060129Y033174D01*
X060444D01*
X06005Y033962D02*
Y033647D01*
X060365Y033962D01*
X060444D01*
X060522Y033883D01*
Y033725D01*
X060444Y033647D01*
X06005Y034624D02*
X060365D01*
X060522Y034782D01*
X060365Y034939D01*
X06005D01*
X060286D01*
Y034624D01*
X060522Y035333D02*
Y035175D01*
X060444Y035097D01*
X060129D01*
X06005Y035175D01*
Y035333D01*
X060129Y035411D01*
X060444D01*
X060522Y035333D01*
X06005Y035569D02*
Y035726D01*
Y035648D01*
X060522D01*
X060444Y035569D01*
X06005Y018307D02*
Y018465D01*
Y018386D01*
X060522D01*
X060444Y018307D01*
Y018701D02*
X060522Y018779D01*
Y018937D01*
X060444Y019016D01*
X060129D01*
X06005Y018937D01*
Y018779D01*
X060129Y018701D01*
X060444D01*
X060522Y019173D02*
X060208D01*
X06005Y01933D01*
X060208Y019488D01*
X060522D01*
X056581Y04241D02*
X056659Y042489D01*
X056817D01*
X056895Y04241D01*
Y042096D01*
X056817Y042017D01*
X056659D01*
X056581Y042096D01*
Y042253D01*
X056738D01*
X056423Y042017D02*
Y042489D01*
X056108Y042017D01*
Y042489D01*
X055951D02*
Y042017D01*
X055715D01*
X055636Y042096D01*
Y04241D01*
X055715Y042489D01*
X055951D01*
X055164Y04241D02*
X055242Y042489D01*
X0554D01*
X055479Y04241D01*
Y042096D01*
X0554Y042017D01*
X055242D01*
X055164Y042096D01*
X055006Y042489D02*
Y042017D01*
X054691D01*
X06005Y036625D02*
Y036783D01*
Y036704D01*
X060522D01*
X060444Y036625D01*
Y037019D02*
X060522Y037097D01*
Y037255D01*
X060444Y037334D01*
X060129D01*
X06005Y037255D01*
Y037097D01*
X060129Y037019D01*
X060444D01*
X060522Y037491D02*
X060208D01*
X06005Y037648D01*
X060208Y037806D01*
X060522D01*
X02662Y042017D02*
X026935D01*
X02662Y042332D01*
Y04241D01*
X026699Y042489D01*
X026856D01*
X026935Y04241D01*
X026226Y042017D02*
Y042489D01*
X026463Y042253D01*
X026148D01*
X02599Y042489D02*
Y042174D01*
X025833Y042017D01*
X025675Y042174D01*
Y042489D01*
X029031Y04241D02*
X02911Y042489D01*
X029267D01*
X029346Y04241D01*
Y042096D01*
X029267Y042017D01*
X02911D01*
X029031Y042096D01*
Y042253D01*
X029188D01*
X028874Y042017D02*
Y042489D01*
X028559Y042017D01*
Y042489D01*
X028401D02*
Y042017D01*
X028165D01*
X028086Y042096D01*
Y04241D01*
X028165Y042489D01*
X028401D01*
X032217D02*
Y042017D01*
X031981D01*
X031902Y042096D01*
Y04241D01*
X031981Y042489D01*
X032217D01*
X031745D02*
X031587D01*
X031666D01*
Y042017D01*
X031745D01*
X031587D01*
X031351D02*
X031194D01*
X031273D01*
Y042489D01*
X031351Y04241D01*
X030643Y042017D02*
X030958D01*
X030643Y042332D01*
Y04241D01*
X030722Y042489D01*
X030879D01*
X030958Y04241D01*
X034169Y042489D02*
Y042017D01*
X033933D01*
X033855Y042096D01*
Y04241D01*
X033933Y042489D01*
X034169D01*
X033697D02*
X03354D01*
X033618D01*
Y042017D01*
X033697D01*
X03354D01*
X033304D02*
X033146D01*
X033225D01*
Y042489D01*
X033304Y04241D01*
X03291Y042017D02*
X032753D01*
X032831D01*
Y042489D01*
X03291Y04241D01*
X036354Y042489D02*
Y042017D01*
X036118D01*
X036039Y042096D01*
Y04241D01*
X036118Y042489D01*
X036354D01*
X035882D02*
X035724D01*
X035803D01*
Y042017D01*
X035882D01*
X035724D01*
X035488D02*
X035331D01*
X03541D01*
Y042489D01*
X035488Y04241D01*
X035095D02*
X035016Y042489D01*
X034859D01*
X03478Y04241D01*
Y042096D01*
X034859Y042017D01*
X035016D01*
X035095Y042096D01*
Y04241D01*
X038253Y042489D02*
Y042017D01*
X038017D01*
X037938Y042096D01*
Y04241D01*
X038017Y042489D01*
X038253D01*
X037781D02*
X037624D01*
X037702D01*
Y042017D01*
X037781D01*
X037624D01*
X037387Y042096D02*
X037309Y042017D01*
X037151D01*
X037073Y042096D01*
Y04241D01*
X037151Y042489D01*
X037309D01*
X037387Y04241D01*
Y042332D01*
X037309Y042253D01*
X037073D01*
X040176Y042489D02*
Y042017D01*
X03994D01*
X039862Y042096D01*
Y04241D01*
X03994Y042489D01*
X040176D01*
X039704D02*
X039547D01*
X039625D01*
Y042017D01*
X039704D01*
X039547D01*
X039311Y04241D02*
X039232Y042489D01*
X039074D01*
X038996Y04241D01*
Y042332D01*
X039074Y042253D01*
X038996Y042174D01*
Y042096D01*
X039074Y042017D01*
X039232D01*
X039311Y042096D01*
Y042174D01*
X039232Y042253D01*
X039311Y042332D01*
Y04241D01*
X039232Y042253D02*
X039074D01*
X042238Y042489D02*
Y042017D01*
X042002D01*
X041923Y042096D01*
Y04241D01*
X042002Y042489D01*
X042238D01*
X041766D02*
X041609D01*
X041687D01*
Y042017D01*
X041766D01*
X041609D01*
X041372Y042489D02*
X041058D01*
Y04241D01*
X041372Y042096D01*
Y042017D01*
X044323Y042489D02*
Y042017D01*
X044087D01*
X044008Y042096D01*
Y04241D01*
X044087Y042489D01*
X044323D01*
X043851D02*
X043693D01*
X043772D01*
Y042017D01*
X043851D01*
X043693D01*
X043142Y042489D02*
X0433Y04241D01*
X043457Y042253D01*
Y042096D01*
X043379Y042017D01*
X043221D01*
X043142Y042096D01*
Y042174D01*
X043221Y042253D01*
X043457D01*
X046297Y042489D02*
Y042017D01*
X04606D01*
X045982Y042096D01*
Y04241D01*
X04606Y042489D01*
X046297D01*
X045824D02*
X045667D01*
X045746D01*
Y042017D01*
X045824D01*
X045667D01*
X045116Y042489D02*
X045431D01*
Y042253D01*
X045273Y042332D01*
X045195D01*
X045116Y042253D01*
Y042096D01*
X045195Y042017D01*
X045352D01*
X045431Y042096D01*
X04827Y042489D02*
Y042017D01*
X048034D01*
X047955Y042096D01*
Y04241D01*
X048034Y042489D01*
X04827D01*
X047798D02*
X04764D01*
X047719D01*
Y042017D01*
X047798D01*
X04764D01*
X047168D02*
Y042489D01*
X047404Y042253D01*
X047089D01*
X050244Y042489D02*
Y042017D01*
X050007D01*
X049929Y042096D01*
Y04241D01*
X050007Y042489D01*
X050244D01*
X049771D02*
X049614D01*
X049693D01*
Y042017D01*
X049771D01*
X049614D01*
X049378Y04241D02*
X049299Y042489D01*
X049142D01*
X049063Y04241D01*
Y042332D01*
X049142Y042253D01*
X04922D01*
X049142D01*
X049063Y042174D01*
Y042096D01*
X049142Y042017D01*
X049299D01*
X049378Y042096D01*
X052217Y042489D02*
Y042017D01*
X051981D01*
X051902Y042096D01*
Y04241D01*
X051981Y042489D01*
X052217D01*
X051745D02*
X051587D01*
X051666D01*
Y042017D01*
X051745D01*
X051587D01*
X051036D02*
X051351D01*
X051036Y042332D01*
Y04241D01*
X051115Y042489D01*
X051272D01*
X051351Y04241D01*
X05419Y042489D02*
Y042017D01*
X053954D01*
X053876Y042096D01*
Y04241D01*
X053954Y042489D01*
X05419D01*
X053718D02*
X053561D01*
X053639D01*
Y042017D01*
X053718D01*
X053561D01*
X053325D02*
X053167D01*
X053246D01*
Y042489D01*
X053325Y04241D01*
X032994Y013497D02*
Y013969D01*
X03323D01*
X033309Y01389D01*
Y013576D01*
X03323Y013497D01*
X032994D01*
X033703D02*
X033545D01*
X033467Y013576D01*
Y01389D01*
X033545Y013969D01*
X033703D01*
X033781Y01389D01*
Y013576D01*
X033703Y013497D01*
X033939Y01389D02*
X034018Y013969D01*
X034175D01*
X034254Y01389D01*
Y013576D01*
X034175Y013497D01*
X034018D01*
X033939Y013576D01*
Y013654D01*
X034018Y013733D01*
X034254D01*
X035099Y013497D02*
Y013969D01*
X035335D01*
X035414Y01389D01*
Y013576D01*
X035335Y013497D01*
X035099D01*
X035807D02*
X03565D01*
X035571Y013576D01*
Y01389D01*
X03565Y013969D01*
X035807D01*
X035886Y01389D01*
Y013576D01*
X035807Y013497D01*
X036044Y013576D02*
X036122Y013497D01*
X03628D01*
X036358Y013576D01*
Y013654D01*
X03628Y013733D01*
X036358Y013812D01*
Y01389D01*
X03628Y013969D01*
X036122D01*
X036044Y01389D01*
Y013812D01*
X036122Y013733D01*
X036044Y013654D01*
Y013576D01*
X036122Y013733D02*
X03628D01*
X037204Y013497D02*
Y013969D01*
X03744D01*
X037518Y01389D01*
Y013576D01*
X03744Y013497D01*
X037204D01*
X037912D02*
X037755D01*
X037676Y013576D01*
Y01389D01*
X037755Y013969D01*
X037912D01*
X037991Y01389D01*
Y013576D01*
X037912Y013497D01*
X038148D02*
X038463D01*
Y013576D01*
X038148Y01389D01*
Y013969D01*
X039308Y013497D02*
Y013969D01*
X039544D01*
X039623Y01389D01*
Y013576D01*
X039544Y013497D01*
X039308D01*
X040017D02*
X039859D01*
X03978Y013576D01*
Y01389D01*
X039859Y013969D01*
X040017D01*
X040095Y01389D01*
Y013576D01*
X040017Y013497D01*
X040568D02*
X04041Y013576D01*
X040253Y013733D01*
Y01389D01*
X040332Y013969D01*
X040489D01*
X040568Y01389D01*
Y013812D01*
X040489Y013733D01*
X040253D01*
X041413Y013497D02*
Y013969D01*
X041649D01*
X041728Y01389D01*
Y013576D01*
X041649Y013497D01*
X041413D01*
X042121D02*
X041964D01*
X041885Y013576D01*
Y01389D01*
X041964Y013969D01*
X042121D01*
X0422Y01389D01*
Y013576D01*
X042121Y013497D01*
X042672D02*
X042357D01*
Y013733D01*
X042515Y013654D01*
X042594D01*
X042672Y013733D01*
Y01389D01*
X042594Y013969D01*
X042436D01*
X042357Y01389D01*
X045622Y013497D02*
Y013969D01*
X045858D01*
X045937Y01389D01*
Y013576D01*
X045858Y013497D01*
X045622D01*
X046331D02*
X046173D01*
X046094Y013576D01*
Y01389D01*
X046173Y013969D01*
X046331D01*
X046409Y01389D01*
Y013576D01*
X046331Y013497D01*
X046567Y013576D02*
X046645Y013497D01*
X046803D01*
X046882Y013576D01*
Y013654D01*
X046803Y013733D01*
X046724D01*
X046803D01*
X046882Y013812D01*
Y01389D01*
X046803Y013969D01*
X046645D01*
X046567Y01389D01*
X043517Y013497D02*
Y013969D01*
X043754D01*
X043832Y01389D01*
Y013576D01*
X043754Y013497D01*
X043517D01*
X044226D02*
X044068D01*
X04399Y013576D01*
Y01389D01*
X044068Y013969D01*
X044226D01*
X044305Y01389D01*
Y013576D01*
X044226Y013497D01*
X044698Y013969D02*
Y013497D01*
X044462Y013733D01*
X044777D01*
X047727Y013497D02*
Y013969D01*
X047963D01*
X048042Y01389D01*
Y013576D01*
X047963Y013497D01*
X047727D01*
X048435D02*
X048278D01*
X048199Y013576D01*
Y01389D01*
X048278Y013969D01*
X048435D01*
X048514Y01389D01*
Y013576D01*
X048435Y013497D01*
X048986Y013969D02*
X048671D01*
X048986Y013654D01*
Y013576D01*
X048907Y013497D01*
X04875D01*
X048671Y013576D01*
X049674Y013482D02*
Y013954D01*
X04991D01*
X049989Y013875D01*
Y013561D01*
X04991Y013482D01*
X049674D01*
X050382D02*
X050225D01*
X050146Y013561D01*
Y013875D01*
X050225Y013954D01*
X050382D01*
X050461Y013875D01*
Y013561D01*
X050382Y013482D01*
X050619Y013954D02*
X050776D01*
X050697D01*
Y013482D01*
X050619Y013561D01*
X052068Y013628D02*
X051989Y013549D01*
X051832D01*
X051753Y013628D01*
Y013942D01*
X051832Y014021D01*
X051989D01*
X052068Y013942D01*
Y013785D01*
X05191D01*
X052225Y014021D02*
Y013549D01*
X05254Y014021D01*
Y013549D01*
X052698D02*
Y014021D01*
X052934D01*
X053012Y013942D01*
Y013628D01*
X052934Y013549D01*
X052698D01*
X053485Y013628D02*
X053406Y013549D01*
X053249D01*
X05317Y013628D01*
Y013942D01*
X053249Y014021D01*
X053406D01*
X053485Y013942D01*
X053642Y013549D02*
Y014021D01*
X053957D01*
M02*
