G04*
G04 #@! TF.GenerationSoftware,Altium Limited,Altium Designer,21.3.2 (30)*
G04*
G04 Layer_Color=16711935*
%FSTAX24Y24*%
%MOIN*%
G70*
G04*
G04 #@! TF.SameCoordinates,66943899-954D-4C86-8F58-61078407318E*
G04*
G04*
G04 #@! TF.FilePolarity,Negative*
G04*
G01*
G75*
%ADD66R,0.1064X0.0867*%
%ADD67R,0.1064X0.1261*%
%ADD68R,0.0867X0.1064*%
%ADD69O,0.1080X0.0880*%
%ADD70R,0.1080X0.0880*%
%ADD71O,0.0730X0.0980*%
%ADD72C,0.1954*%
%ADD73R,0.0730X0.0980*%
%ADD74R,0.0710X0.0710*%
%ADD75C,0.0710*%
%ADD76R,0.0907X0.0907*%
%ADD77C,0.0907*%
%ADD78C,0.0980*%
%ADD79C,0.0395*%
%ADD80C,0.0320*%
%ADD81C,0.0580*%
%ADD82C,0.0280*%
D66*
X061822Y025059D02*
D03*
Y027059D02*
D03*
Y031059D02*
D03*
Y029059D02*
D03*
Y027054D02*
D03*
Y031059D02*
D03*
Y029059D02*
D03*
Y035159D02*
D03*
Y037159D02*
D03*
Y033154D02*
D03*
Y020959D02*
D03*
Y022959D02*
D03*
Y018954D02*
D03*
D67*
X037645Y043994D02*
D03*
X035645D02*
D03*
X031645D02*
D03*
X033645D02*
D03*
X041645D02*
D03*
X039645D02*
D03*
X043645D02*
D03*
X045645D02*
D03*
D68*
X0462Y01255D02*
D03*
X0482D02*
D03*
X0522D02*
D03*
X0502D02*
D03*
X0442D02*
D03*
X0341D02*
D03*
X0401D02*
D03*
X0421D02*
D03*
X0381D02*
D03*
X0361D02*
D03*
X055681Y043992D02*
D03*
X049681D02*
D03*
X047681D02*
D03*
X051681D02*
D03*
X053681D02*
D03*
X028551Y044022D02*
D03*
X026551D02*
D03*
D69*
X03392Y0148D02*
D03*
Y0158D02*
D03*
X036375Y0148D02*
D03*
Y0158D02*
D03*
X038792Y0148D02*
D03*
Y0158D02*
D03*
X041208Y0148D02*
D03*
Y0158D02*
D03*
X043624D02*
D03*
Y0148D02*
D03*
X04604D02*
D03*
Y0158D02*
D03*
X048457Y0148D02*
D03*
Y0158D02*
D03*
X050873Y0148D02*
D03*
Y0158D02*
D03*
X053289Y0148D02*
D03*
Y0158D02*
D03*
D70*
X03392Y0168D02*
D03*
X036375D02*
D03*
X038792D02*
D03*
X041208D02*
D03*
X043624D02*
D03*
X04604D02*
D03*
X048457D02*
D03*
X050873D02*
D03*
X053289D02*
D03*
D71*
X025795Y013839D02*
D03*
X027976D02*
D03*
X027431Y014957D02*
D03*
X026886Y013839D02*
D03*
X026341Y014957D02*
D03*
X02525D02*
D03*
X024705Y013839D02*
D03*
X024159Y014957D02*
D03*
D72*
X021421Y014398D02*
D03*
X03126D02*
D03*
D73*
X028522Y014957D02*
D03*
D74*
X048643Y033948D02*
D03*
D75*
X049643D02*
D03*
X050643D02*
D03*
X051643D02*
D03*
D76*
X022807Y031461D02*
D03*
X019357Y041654D02*
D03*
X018978Y031461D02*
D03*
D77*
X022807Y032839D02*
D03*
X019357Y039654D02*
D03*
X018978Y032839D02*
D03*
D78*
X026843Y039402D02*
D03*
Y041402D02*
D03*
D79*
X046063Y032677D02*
D03*
Y031102D02*
D03*
Y029528D02*
D03*
X045276Y032677D02*
D03*
X045669Y03189D02*
D03*
X045276Y031102D02*
D03*
X045669Y030315D02*
D03*
X045276Y029528D02*
D03*
X044488Y032677D02*
D03*
X044882Y03189D02*
D03*
X044488Y031102D02*
D03*
X044882Y030315D02*
D03*
X044488Y029528D02*
D03*
X043701Y032677D02*
D03*
X044095Y03189D02*
D03*
X043701Y031102D02*
D03*
X044095Y030315D02*
D03*
X043701Y029528D02*
D03*
X042913Y032677D02*
D03*
X043307Y03189D02*
D03*
X042913Y031102D02*
D03*
X043307Y030315D02*
D03*
X042913Y029528D02*
D03*
X021893Y036914D02*
D03*
X018843Y028968D02*
D03*
X019218Y029361D02*
D03*
X021031Y035374D02*
D03*
X020987Y034779D02*
D03*
X020386Y037076D02*
D03*
X019794D02*
D03*
X01979Y035401D02*
D03*
X020395Y035335D02*
D03*
X020409Y034781D02*
D03*
X019804Y034815D02*
D03*
X021511Y034834D02*
D03*
X021886Y037502D02*
D03*
X022348Y037513D02*
D03*
X019794Y035903D02*
D03*
X020427Y036596D02*
D03*
X019773Y037498D02*
D03*
X022346Y036114D02*
D03*
X019793Y03657D02*
D03*
X022346Y036705D02*
D03*
X020377Y037492D02*
D03*
Y035917D02*
D03*
D80*
X039628Y029258D02*
D03*
X026708Y019802D02*
D03*
X024985Y019471D02*
D03*
X027069Y018253D02*
D03*
X025723Y016472D02*
D03*
X035092Y019492D02*
D03*
X034952Y018508D02*
D03*
X037293Y019503D02*
D03*
Y01855D02*
D03*
X039549Y019523D02*
D03*
Y018525D02*
D03*
X041919Y01955D02*
D03*
Y018479D02*
D03*
X044273Y01948D02*
D03*
X0442Y01847D02*
D03*
X048801Y019617D02*
D03*
X046601Y018543D02*
D03*
X04661Y01955D02*
D03*
X048816Y018467D02*
D03*
X05113Y019593D02*
D03*
X051137Y018547D02*
D03*
X026405Y016369D02*
D03*
X017681Y024378D02*
D03*
X024667Y034713D02*
D03*
X022417Y029978D02*
D03*
X025111Y031461D02*
D03*
X036347Y029717D02*
D03*
X046802Y032662D02*
D03*
X039475Y031153D02*
D03*
X046888Y031398D02*
D03*
X042331Y027998D02*
D03*
X042621Y02828D02*
D03*
X042365Y029402D02*
D03*
X042027Y028607D02*
D03*
X046629Y028582D02*
D03*
X058231Y027169D02*
D03*
X042Y030547D02*
D03*
X048563Y030683D02*
D03*
X038582Y026331D02*
D03*
X04039Y026918D02*
D03*
X042455Y026371D02*
D03*
X043034Y026335D02*
D03*
X04889Y031063D02*
D03*
X018454Y024372D02*
D03*
X039822Y033205D02*
D03*
X040148Y035751D02*
D03*
X031434Y024424D02*
D03*
X031383Y023079D02*
D03*
X054667Y026579D02*
D03*
X024836Y035544D02*
D03*
X022278Y041208D02*
D03*
X03452Y033633D02*
D03*
X04942Y027402D02*
D03*
X055278Y029657D02*
D03*
X058517Y030297D02*
D03*
X038647Y033201D02*
D03*
X039568Y030013D02*
D03*
D81*
X030406Y032303D02*
D03*
X030408Y029309D02*
D03*
D82*
X045846Y025995D02*
D03*
X045334Y026181D02*
D03*
X057039Y03148D02*
D03*
X055256Y03272D02*
D03*
M02*
