G04*
G04 #@! TF.GenerationSoftware,Altium Limited,Altium Designer,21.3.2 (30)*
G04*
G04 Layer_Color=255*
%FSTAX24Y24*%
%MOIN*%
G70*
G04*
G04 #@! TF.SameCoordinates,66943899-954D-4C86-8F58-61078407318E*
G04*
G04*
G04 #@! TF.FilePolarity,Positive*
G04*
G01*
G75*
%ADD22R,0.0394X0.0886*%
%ADD23R,0.0591X0.0394*%
%ADD24R,0.0551X0.0472*%
%ADD25R,0.0472X0.0551*%
%ADD26R,0.2756X0.3937*%
%ADD27R,0.1200X0.0394*%
%ADD28R,0.0866X0.0236*%
%ADD29R,0.0984X0.0984*%
%ADD30O,0.0630X0.0886*%
%ADD31R,0.0500X0.0550*%
%ADD32O,0.0709X0.0236*%
%ADD33O,0.0866X0.0236*%
%ADD34R,0.0709X0.0531*%
G04:AMPARAMS|DCode=35|XSize=216.5mil|YSize=59.1mil|CornerRadius=7.4mil|HoleSize=0mil|Usage=FLASHONLY|Rotation=90.000|XOffset=0mil|YOffset=0mil|HoleType=Round|Shape=RoundedRectangle|*
%AMROUNDEDRECTD35*
21,1,0.2165,0.0443,0,0,90.0*
21,1,0.2018,0.0591,0,0,90.0*
1,1,0.0148,0.0221,0.1009*
1,1,0.0148,0.0221,-0.1009*
1,1,0.0148,-0.0221,-0.1009*
1,1,0.0148,-0.0221,0.1009*
%
%ADD35ROUNDEDRECTD35*%
%ADD36R,0.0472X0.0315*%
%ADD37O,0.0118X0.0571*%
%ADD38O,0.0571X0.0118*%
%ADD39R,0.0984X0.0591*%
%ADD40R,0.0550X0.0500*%
%ADD41R,0.0669X0.0984*%
%ADD42R,0.0945X0.0394*%
%ADD43R,0.0945X0.1299*%
%ADD86R,0.0984X0.0787*%
%ADD87R,0.0984X0.1181*%
%ADD88R,0.0787X0.0984*%
%ADD89O,0.1000X0.0800*%
%ADD90R,0.1000X0.0800*%
%ADD91O,0.0650X0.0900*%
%ADD92C,0.1874*%
%ADD93R,0.0650X0.0900*%
%ADD94R,0.0630X0.0630*%
%ADD95C,0.0630*%
%ADD96R,0.0827X0.0827*%
%ADD97C,0.0827*%
%ADD98C,0.0900*%
D22*
X023181Y023406D02*
D03*
X022394D02*
D03*
X021606D02*
D03*
X020819D02*
D03*
X020031D02*
D03*
X019244D02*
D03*
X018457D02*
D03*
X017669D02*
D03*
Y017402D02*
D03*
X018457D02*
D03*
X019244D02*
D03*
X020031D02*
D03*
X020819D02*
D03*
X021606D02*
D03*
X022394D02*
D03*
X023181D02*
D03*
D23*
X023772Y018435D02*
D03*
Y019222D02*
D03*
Y02001D02*
D03*
Y020797D02*
D03*
Y021585D02*
D03*
Y022372D02*
D03*
D24*
X059854Y029201D02*
D03*
Y028453D02*
D03*
X04034Y033981D02*
D03*
Y033233D02*
D03*
X019028Y016311D02*
D03*
Y015563D02*
D03*
X017721Y016329D02*
D03*
Y01558D02*
D03*
X030822Y017288D02*
D03*
Y018036D02*
D03*
X02983Y01804D02*
D03*
Y017292D02*
D03*
Y01882D02*
D03*
Y019568D02*
D03*
X030819Y01956D02*
D03*
Y018812D02*
D03*
X059866Y032723D02*
D03*
Y031975D02*
D03*
X048703Y033094D02*
D03*
Y032346D02*
D03*
X035717Y030728D02*
D03*
Y02998D02*
D03*
X035693Y02837D02*
D03*
Y029118D02*
D03*
X022452Y028299D02*
D03*
Y027551D02*
D03*
X021658Y0283D02*
D03*
Y027552D02*
D03*
X04032Y029258D02*
D03*
Y030006D02*
D03*
X054658Y032801D02*
D03*
Y032053D02*
D03*
Y034187D02*
D03*
Y033439D02*
D03*
X059854Y033427D02*
D03*
Y034175D02*
D03*
X040311Y028639D02*
D03*
Y027891D02*
D03*
X048436Y026664D02*
D03*
Y027412D02*
D03*
X04032Y031758D02*
D03*
Y03101D02*
D03*
D25*
X056869Y036322D02*
D03*
X056121D02*
D03*
X054587D02*
D03*
X053839D02*
D03*
X052305D02*
D03*
X051557D02*
D03*
X050024D02*
D03*
X049276D02*
D03*
X047742D02*
D03*
X046994D02*
D03*
X04546D02*
D03*
X044712D02*
D03*
X043178D02*
D03*
X04243D02*
D03*
X040896D02*
D03*
X040148D02*
D03*
X038615D02*
D03*
X037866D02*
D03*
X036333D02*
D03*
X035585D02*
D03*
X034051D02*
D03*
X033303D02*
D03*
X031769D02*
D03*
X031021D02*
D03*
X052022Y018357D02*
D03*
X05277D02*
D03*
X05515Y042098D02*
D03*
X055898D02*
D03*
X05313Y04213D02*
D03*
X053878D02*
D03*
X050874Y042067D02*
D03*
X051622D02*
D03*
X048701Y042047D02*
D03*
X049449D02*
D03*
X046693Y042022D02*
D03*
X047441D02*
D03*
X044217Y041996D02*
D03*
X044965D02*
D03*
X039893Y042022D02*
D03*
X040641D02*
D03*
X037621Y041998D02*
D03*
X038369D02*
D03*
X027986Y024472D02*
D03*
X028734D02*
D03*
X027986Y023166D02*
D03*
X028734D02*
D03*
X057418Y019247D02*
D03*
X058166D02*
D03*
X057421Y020465D02*
D03*
X058169D02*
D03*
X057403Y022153D02*
D03*
X058151D02*
D03*
X057421Y023394D02*
D03*
X058169D02*
D03*
X041676Y034295D02*
D03*
X042424D02*
D03*
X022433Y029189D02*
D03*
X021685D02*
D03*
X03464Y02461D02*
D03*
X033891D02*
D03*
X031569Y041998D02*
D03*
X030821D02*
D03*
X033819D02*
D03*
X033071D02*
D03*
X036053Y042027D02*
D03*
X035305D02*
D03*
X042616Y041976D02*
D03*
X041868D02*
D03*
X043657Y02461D02*
D03*
X042909D02*
D03*
X039118D02*
D03*
X03837D02*
D03*
X045764D02*
D03*
X045016D02*
D03*
X038897Y018362D02*
D03*
X038149D02*
D03*
X0481Y02461D02*
D03*
X047352D02*
D03*
X045833Y018357D02*
D03*
X045085D02*
D03*
X048145D02*
D03*
X047397D02*
D03*
X050439Y02461D02*
D03*
X049691D02*
D03*
X036817D02*
D03*
X036069D02*
D03*
X050458Y018338D02*
D03*
X04971D02*
D03*
X043521Y018357D02*
D03*
X042773D02*
D03*
X036585Y01837D02*
D03*
X035837D02*
D03*
X041449Y02461D02*
D03*
X040701D02*
D03*
X052029D02*
D03*
X052777D02*
D03*
X041209Y018357D02*
D03*
X040461D02*
D03*
X034273Y018362D02*
D03*
X033525D02*
D03*
X022756Y024614D02*
D03*
X023504D02*
D03*
X021931Y024616D02*
D03*
X021183D02*
D03*
X020354D02*
D03*
X019606D02*
D03*
X040907Y026481D02*
D03*
X041655D02*
D03*
D26*
X018771Y036052D02*
D03*
D27*
X023371Y037502D02*
D03*
Y036802D02*
D03*
Y036102D02*
D03*
Y035402D02*
D03*
Y034702D02*
D03*
D28*
X028157Y017083D02*
D03*
Y017583D02*
D03*
Y018083D02*
D03*
Y018583D02*
D03*
Y019083D02*
D03*
Y019583D02*
D03*
Y020083D02*
D03*
Y020583D02*
D03*
X025909Y017083D02*
D03*
Y017583D02*
D03*
Y018083D02*
D03*
Y018583D02*
D03*
Y019083D02*
D03*
Y019583D02*
D03*
Y020083D02*
D03*
Y020583D02*
D03*
D29*
X030408Y03428D02*
D03*
Y027508D02*
D03*
D30*
X039305Y020203D02*
D03*
X038305D02*
D03*
Y023549D02*
D03*
X039305D02*
D03*
X052901Y023676D02*
D03*
X051901D02*
D03*
Y02033D02*
D03*
X052901D02*
D03*
X050629Y023626D02*
D03*
X049629D02*
D03*
Y02028D02*
D03*
X050629D02*
D03*
X048356Y023549D02*
D03*
X047356D02*
D03*
Y020203D02*
D03*
X048356D02*
D03*
X046084Y023549D02*
D03*
X045084D02*
D03*
Y020203D02*
D03*
X046084D02*
D03*
X043811Y023549D02*
D03*
X042811D02*
D03*
Y020203D02*
D03*
X043811D02*
D03*
X041558Y023549D02*
D03*
X040558D02*
D03*
Y020203D02*
D03*
X041558D02*
D03*
X037033Y023549D02*
D03*
X036033D02*
D03*
Y020203D02*
D03*
X037033D02*
D03*
X03478Y023549D02*
D03*
X03378D02*
D03*
Y020203D02*
D03*
X03478D02*
D03*
X056943Y040945D02*
D03*
X055943D02*
D03*
Y037599D02*
D03*
X056943D02*
D03*
X054653Y040945D02*
D03*
X053653D02*
D03*
Y037599D02*
D03*
X054653D02*
D03*
X052362Y040945D02*
D03*
X051362D02*
D03*
Y037599D02*
D03*
X052362D02*
D03*
X050072Y040945D02*
D03*
X049072D02*
D03*
Y037599D02*
D03*
X050072D02*
D03*
X047781Y040945D02*
D03*
X046781D02*
D03*
Y037599D02*
D03*
X047781D02*
D03*
X045491Y040945D02*
D03*
X044491D02*
D03*
Y037599D02*
D03*
X045491D02*
D03*
X0432Y040945D02*
D03*
X0422D02*
D03*
Y037599D02*
D03*
X0432D02*
D03*
X04091Y040945D02*
D03*
X03991D02*
D03*
Y037599D02*
D03*
X04091D02*
D03*
X038619Y040945D02*
D03*
X037619D02*
D03*
Y037599D02*
D03*
X038619D02*
D03*
X036329Y040945D02*
D03*
X035329D02*
D03*
Y037599D02*
D03*
X036329D02*
D03*
X034038Y040945D02*
D03*
X033038D02*
D03*
Y037599D02*
D03*
X034038D02*
D03*
X031748Y040945D02*
D03*
X030748D02*
D03*
Y037599D02*
D03*
X031748D02*
D03*
D31*
X02974Y024449D02*
D03*
X03064D02*
D03*
X02974Y023138D02*
D03*
X03064D02*
D03*
D32*
X058348Y032093D02*
D03*
Y032593D02*
D03*
Y033093D02*
D03*
Y033593D02*
D03*
X056124Y032093D02*
D03*
Y032593D02*
D03*
Y033093D02*
D03*
Y033593D02*
D03*
Y026313D02*
D03*
Y025813D02*
D03*
Y025313D02*
D03*
Y024813D02*
D03*
X058348Y026313D02*
D03*
Y025813D02*
D03*
Y025313D02*
D03*
Y024813D02*
D03*
D33*
X058425Y028152D02*
D03*
Y028652D02*
D03*
Y029152D02*
D03*
Y029652D02*
D03*
X056535Y028152D02*
D03*
Y028652D02*
D03*
Y029152D02*
D03*
Y029652D02*
D03*
D34*
X056378Y020567D02*
D03*
Y019248D02*
D03*
Y022157D02*
D03*
Y023476D02*
D03*
D35*
X037496Y02785D02*
D03*
Y031197D02*
D03*
D36*
X038623Y033648D02*
D03*
X035867D02*
D03*
D37*
X042087Y033409D02*
D03*
X042283D02*
D03*
X04248D02*
D03*
X042677D02*
D03*
X042874D02*
D03*
X043071D02*
D03*
X043268D02*
D03*
X043465D02*
D03*
X043661D02*
D03*
X043858D02*
D03*
X044055D02*
D03*
X044252D02*
D03*
X044449D02*
D03*
X044646D02*
D03*
X044843D02*
D03*
X045039D02*
D03*
X045236D02*
D03*
X045433D02*
D03*
X04563D02*
D03*
X045827D02*
D03*
X046024D02*
D03*
X04622D02*
D03*
X046417D02*
D03*
X046614D02*
D03*
X046811D02*
D03*
Y027327D02*
D03*
X046614D02*
D03*
X046417D02*
D03*
X04622D02*
D03*
X046024D02*
D03*
X045827D02*
D03*
X04563D02*
D03*
X045433D02*
D03*
X045236D02*
D03*
X045039D02*
D03*
X044843D02*
D03*
X044646D02*
D03*
X044449D02*
D03*
X044252D02*
D03*
X044055D02*
D03*
X043858D02*
D03*
X043661D02*
D03*
X043465D02*
D03*
X043268D02*
D03*
X043071D02*
D03*
X042874D02*
D03*
X042677D02*
D03*
X04248D02*
D03*
X042283D02*
D03*
X042087D02*
D03*
D38*
X04749Y03273D02*
D03*
Y032533D02*
D03*
Y032337D02*
D03*
Y03214D02*
D03*
Y031943D02*
D03*
Y031746D02*
D03*
Y031549D02*
D03*
Y031352D02*
D03*
Y031156D02*
D03*
Y030959D02*
D03*
Y030762D02*
D03*
Y030565D02*
D03*
Y030368D02*
D03*
Y030171D02*
D03*
Y029974D02*
D03*
Y029778D02*
D03*
Y029581D02*
D03*
Y029384D02*
D03*
Y029187D02*
D03*
Y02899D02*
D03*
Y028793D02*
D03*
Y028596D02*
D03*
Y0284D02*
D03*
Y028203D02*
D03*
Y028006D02*
D03*
X041407D02*
D03*
Y028203D02*
D03*
Y0284D02*
D03*
Y028596D02*
D03*
Y028793D02*
D03*
Y02899D02*
D03*
Y029187D02*
D03*
Y029384D02*
D03*
Y029581D02*
D03*
Y029778D02*
D03*
Y029974D02*
D03*
Y030171D02*
D03*
Y030368D02*
D03*
Y030565D02*
D03*
Y030762D02*
D03*
Y030959D02*
D03*
Y031156D02*
D03*
Y031352D02*
D03*
Y031549D02*
D03*
Y031746D02*
D03*
Y031943D02*
D03*
Y03214D02*
D03*
Y032337D02*
D03*
Y032533D02*
D03*
Y03273D02*
D03*
D39*
X023531Y029197D02*
D03*
X02487D02*
D03*
D40*
X023485Y028289D02*
D03*
Y027389D02*
D03*
D41*
X023648Y041367D02*
D03*
Y039793D02*
D03*
D42*
X020188Y02737D02*
D03*
Y028276D02*
D03*
Y029181D02*
D03*
D43*
X017905Y028276D02*
D03*
D86*
X061822Y025059D02*
D03*
Y027059D02*
D03*
Y031059D02*
D03*
Y029059D02*
D03*
Y027054D02*
D03*
Y031059D02*
D03*
Y029059D02*
D03*
Y035159D02*
D03*
Y037159D02*
D03*
Y033154D02*
D03*
Y020959D02*
D03*
Y022959D02*
D03*
Y018954D02*
D03*
D87*
X037645Y043994D02*
D03*
X035645D02*
D03*
X031645D02*
D03*
X033645D02*
D03*
X041645D02*
D03*
X039645D02*
D03*
X043645D02*
D03*
X045645D02*
D03*
D88*
X0462Y01255D02*
D03*
X0482D02*
D03*
X0522D02*
D03*
X0502D02*
D03*
X0442D02*
D03*
X0341D02*
D03*
X0401D02*
D03*
X0421D02*
D03*
X0381D02*
D03*
X0361D02*
D03*
X055681Y043992D02*
D03*
X049681D02*
D03*
X047681D02*
D03*
X051681D02*
D03*
X053681D02*
D03*
X028551Y044022D02*
D03*
X026551D02*
D03*
D89*
X03392Y0148D02*
D03*
Y0158D02*
D03*
X036375Y0148D02*
D03*
Y0158D02*
D03*
X038792Y0148D02*
D03*
Y0158D02*
D03*
X041208Y0148D02*
D03*
Y0158D02*
D03*
X043624D02*
D03*
Y0148D02*
D03*
X04604D02*
D03*
Y0158D02*
D03*
X048457Y0148D02*
D03*
Y0158D02*
D03*
X050873Y0148D02*
D03*
Y0158D02*
D03*
X053289Y0148D02*
D03*
Y0158D02*
D03*
D90*
X03392Y0168D02*
D03*
X036375D02*
D03*
X038792D02*
D03*
X041208D02*
D03*
X043624D02*
D03*
X04604D02*
D03*
X048457D02*
D03*
X050873D02*
D03*
X053289D02*
D03*
D91*
X025795Y013839D02*
D03*
X027976D02*
D03*
X027431Y014957D02*
D03*
X026886Y013839D02*
D03*
X026341Y014957D02*
D03*
X02525D02*
D03*
X024705Y013839D02*
D03*
X024159Y014957D02*
D03*
D92*
X021421Y014398D02*
D03*
X03126D02*
D03*
D93*
X028522Y014957D02*
D03*
D94*
X048643Y033948D02*
D03*
D95*
X049643D02*
D03*
X050643D02*
D03*
X051643D02*
D03*
D96*
X022807Y031461D02*
D03*
X019357Y041654D02*
D03*
X018978Y031461D02*
D03*
D97*
X022807Y032839D02*
D03*
X019357Y039654D02*
D03*
X018978Y032839D02*
D03*
D98*
X026843Y039402D02*
D03*
Y041402D02*
D03*
M02*
