G04*
G04 #@! TF.GenerationSoftware,Altium Limited,Altium Designer,21.3.2 (30)*
G04*
G04 Layer_Color=2752767*
%FSTAX24Y24*%
%MOIN*%
G70*
G04*
G04 #@! TF.SameCoordinates,BE8E01B3-19C9-4167-8173-06ED14820A8A*
G04*
G04*
G04 #@! TF.FilePolarity,Positive*
G04*
G01*
G75*
%ADD111C,0.0020*%
%ADD112C,0.0027*%
%ADD113C,0.0013*%
D111*
X033282Y030732D02*
Y030892D01*
X033442D01*
Y030732D01*
X033282D01*
X032282D02*
Y030892D01*
X032442D01*
Y030732D01*
X032282D01*
X061822Y024979D02*
X061742Y025139D01*
X061902D01*
X061822Y024979D01*
Y026979D02*
X061742Y027139D01*
X061902D01*
X061822Y026979D01*
Y030979D02*
X061742Y031139D01*
X061902D01*
X061822Y030979D01*
Y028979D02*
X061742Y029139D01*
X061902D01*
X061822Y028979D01*
Y026974D02*
X061742Y027134D01*
X061902D01*
X061822Y026974D01*
Y030979D02*
X061742Y031139D01*
X061902D01*
X061822Y030979D01*
Y028979D02*
X061742Y029139D01*
X061902D01*
X061822Y028979D01*
X037645Y043914D02*
X037685Y043954D01*
X037725D01*
X037685Y043994D01*
X037725Y044034D01*
X037685D01*
X037645Y044074D01*
X037605Y044034D01*
X037565D01*
X037605Y043994D01*
X037565Y043954D01*
X037605D01*
X037645Y043914D01*
X035645D02*
X035685Y043954D01*
X035725D01*
X035685Y043994D01*
X035725Y044034D01*
X035685D01*
X035645Y044074D01*
X035605Y044034D01*
X035565D01*
X035605Y043994D01*
X035565Y043954D01*
X035605D01*
X035645Y043914D01*
X031645D02*
X031685Y043954D01*
X031725D01*
X031685Y043994D01*
X031725Y044034D01*
X031685D01*
X031645Y044074D01*
X031605Y044034D01*
X031565D01*
X031605Y043994D01*
X031565Y043954D01*
X031605D01*
X031645Y043914D01*
X033645D02*
X033685Y043954D01*
X033725D01*
X033685Y043994D01*
X033725Y044034D01*
X033685D01*
X033645Y044074D01*
X033605Y044034D01*
X033565D01*
X033605Y043994D01*
X033565Y043954D01*
X033605D01*
X033645Y043914D01*
X041645D02*
X041685Y043954D01*
X041725D01*
X041685Y043994D01*
X041725Y044034D01*
X041685D01*
X041645Y044074D01*
X041605Y044034D01*
X041565D01*
X041605Y043994D01*
X041565Y043954D01*
X041605D01*
X041645Y043914D01*
X039645D02*
X039685Y043954D01*
X039725D01*
X039685Y043994D01*
X039725Y044034D01*
X039685D01*
X039645Y044074D01*
X039605Y044034D01*
X039565D01*
X039605Y043994D01*
X039565Y043954D01*
X039605D01*
X039645Y043914D01*
X043645D02*
X043685Y043954D01*
X043725D01*
X043685Y043994D01*
X043725Y044034D01*
X043685D01*
X043645Y044074D01*
X043605Y044034D01*
X043565D01*
X043605Y043994D01*
X043565Y043954D01*
X043605D01*
X043645Y043914D01*
X045645D02*
X045685Y043954D01*
X045725D01*
X045685Y043994D01*
X045725Y044034D01*
X045685D01*
X045645Y044074D01*
X045605Y044034D01*
X045565D01*
X045605Y043994D01*
X045565Y043954D01*
X045605D01*
X045645Y043914D01*
X0462Y01247D02*
X04612Y01263D01*
X04628D01*
X0462Y01247D01*
X0482D02*
X04812Y01263D01*
X04828D01*
X0482Y01247D01*
X0522D02*
X05212Y01263D01*
X05228D01*
X0522Y01247D01*
X0502D02*
X05012Y01263D01*
X05028D01*
X0502Y01247D01*
X0442D02*
X04412Y01263D01*
X04428D01*
X0442Y01247D01*
X03384Y01472D02*
X03388Y0148D01*
X03384Y01488D01*
X03392Y01484D01*
X034Y01488D01*
X03396Y0148D01*
X034Y01472D01*
X03392Y01476D01*
X03384Y01472D01*
Y01572D02*
X03388Y0158D01*
X03384Y01588D01*
X03392Y01584D01*
X034Y01588D01*
X03396Y0158D01*
X034Y01572D01*
X03392Y01576D01*
X03384Y01572D01*
Y01672D02*
X03388Y0168D01*
X03384Y01688D01*
X03392Y01684D01*
X034Y01688D01*
X03396Y0168D01*
X034Y01672D01*
X03392Y01676D01*
X03384Y01672D01*
X036295Y01472D02*
X036335Y0148D01*
X036295Y01488D01*
X036375Y01484D01*
X036455Y01488D01*
X036415Y0148D01*
X036455Y01472D01*
X036375Y01476D01*
X036295Y01472D01*
Y01572D02*
X036335Y0158D01*
X036295Y01588D01*
X036375Y01584D01*
X036455Y01588D01*
X036415Y0158D01*
X036455Y01572D01*
X036375Y01576D01*
X036295Y01572D01*
Y01672D02*
X036335Y0168D01*
X036295Y01688D01*
X036375Y01684D01*
X036455Y01688D01*
X036415Y0168D01*
X036455Y01672D01*
X036375Y01676D01*
X036295Y01672D01*
X038712Y01472D02*
X038752Y0148D01*
X038712Y01488D01*
X038792Y01484D01*
X038872Y01488D01*
X038832Y0148D01*
X038872Y01472D01*
X038792Y01476D01*
X038712Y01472D01*
Y01572D02*
X038752Y0158D01*
X038712Y01588D01*
X038792Y01584D01*
X038872Y01588D01*
X038832Y0158D01*
X038872Y01572D01*
X038792Y01576D01*
X038712Y01572D01*
Y01672D02*
X038752Y0168D01*
X038712Y01688D01*
X038792Y01684D01*
X038872Y01688D01*
X038832Y0168D01*
X038872Y01672D01*
X038792Y01676D01*
X038712Y01672D01*
X041128Y01472D02*
X041168Y0148D01*
X041128Y01488D01*
X041208Y01484D01*
X041288Y01488D01*
X041248Y0148D01*
X041288Y01472D01*
X041208Y01476D01*
X041128Y01472D01*
Y01572D02*
X041168Y0158D01*
X041128Y01588D01*
X041208Y01584D01*
X041288Y01588D01*
X041248Y0158D01*
X041288Y01572D01*
X041208Y01576D01*
X041128Y01572D01*
Y01672D02*
X041168Y0168D01*
X041128Y01688D01*
X041208Y01684D01*
X041288Y01688D01*
X041248Y0168D01*
X041288Y01672D01*
X041208Y01676D01*
X041128Y01672D01*
X043544D02*
X043584Y0168D01*
X043544Y01688D01*
X043624Y01684D01*
X043704Y01688D01*
X043664Y0168D01*
X043704Y01672D01*
X043624Y01676D01*
X043544Y01672D01*
Y01572D02*
X043584Y0158D01*
X043544Y01588D01*
X043624Y01584D01*
X043704Y01588D01*
X043664Y0158D01*
X043704Y01572D01*
X043624Y01576D01*
X043544Y01572D01*
Y01472D02*
X043584Y0148D01*
X043544Y01488D01*
X043624Y01484D01*
X043704Y01488D01*
X043664Y0148D01*
X043704Y01472D01*
X043624Y01476D01*
X043544Y01472D01*
X04596D02*
X046Y0148D01*
X04596Y01488D01*
X04604Y01484D01*
X04612Y01488D01*
X04608Y0148D01*
X04612Y01472D01*
X04604Y01476D01*
X04596Y01472D01*
Y01572D02*
X046Y0158D01*
X04596Y01588D01*
X04604Y01584D01*
X04612Y01588D01*
X04608Y0158D01*
X04612Y01572D01*
X04604Y01576D01*
X04596Y01572D01*
Y01672D02*
X046Y0168D01*
X04596Y01688D01*
X04604Y01684D01*
X04612Y01688D01*
X04608Y0168D01*
X04612Y01672D01*
X04604Y01676D01*
X04596Y01672D01*
X048376Y01472D02*
X048417Y0148D01*
X048376Y01488D01*
X048457Y01484D01*
X048537Y01488D01*
X048496Y0148D01*
X048537Y01472D01*
X048457Y01476D01*
X048376Y01472D01*
Y01572D02*
X048417Y0158D01*
X048376Y01588D01*
X048457Y01584D01*
X048537Y01588D01*
X048496Y0158D01*
X048537Y01572D01*
X048457Y01576D01*
X048376Y01572D01*
Y01672D02*
X048417Y0168D01*
X048376Y01688D01*
X048457Y01684D01*
X048537Y01688D01*
X048496Y0168D01*
X048537Y01672D01*
X048457Y01676D01*
X048376Y01672D01*
X050793Y01472D02*
X050833Y0148D01*
X050793Y01488D01*
X050873Y01484D01*
X050953Y01488D01*
X050913Y0148D01*
X050953Y01472D01*
X050873Y01476D01*
X050793Y01472D01*
Y01572D02*
X050833Y0158D01*
X050793Y01588D01*
X050873Y01584D01*
X050953Y01588D01*
X050913Y0158D01*
X050953Y01572D01*
X050873Y01576D01*
X050793Y01572D01*
Y01672D02*
X050833Y0168D01*
X050793Y01688D01*
X050873Y01684D01*
X050953Y01688D01*
X050913Y0168D01*
X050953Y01672D01*
X050873Y01676D01*
X050793Y01672D01*
X053209Y01472D02*
X053249Y0148D01*
X053209Y01488D01*
X053289Y01484D01*
X053369Y01488D01*
X053329Y0148D01*
X053369Y01472D01*
X053289Y01476D01*
X053209Y01472D01*
Y01572D02*
X053249Y0158D01*
X053209Y01588D01*
X053289Y01584D01*
X053369Y01588D01*
X053329Y0158D01*
X053369Y01572D01*
X053289Y01576D01*
X053209Y01572D01*
Y01672D02*
X053249Y0168D01*
X053209Y01688D01*
X053289Y01684D01*
X053369Y01688D01*
X053329Y0168D01*
X053369Y01672D01*
X053289Y01676D01*
X053209Y01672D01*
X061822Y035079D02*
X061742Y035239D01*
X061902D01*
X061822Y035079D01*
Y037079D02*
X061742Y037239D01*
X061902D01*
X061822Y037079D01*
Y033074D02*
X061742Y033234D01*
X061902D01*
X061822Y033074D01*
Y020879D02*
X061742Y021039D01*
X061902D01*
X061822Y020879D01*
Y022879D02*
X061742Y023039D01*
X061902D01*
X061822Y022879D01*
Y018874D02*
X061742Y019034D01*
X061902D01*
X061822Y018874D01*
X0341Y01247D02*
X03402Y01263D01*
X03418D01*
X0341Y01247D01*
X0401D02*
X04002Y01263D01*
X04018D01*
X0401Y01247D01*
X0421D02*
X04202Y01263D01*
X04218D01*
X0421Y01247D01*
X0381D02*
X03802Y01263D01*
X03818D01*
X0381Y01247D01*
X0361D02*
X03602Y01263D01*
X03618D01*
X0361Y01247D01*
X025755Y013799D02*
Y013759D01*
X025835D01*
Y013799D01*
X025875D01*
Y013879D01*
X025835D01*
Y013919D01*
X025755D01*
Y013879D01*
X025715D01*
Y013799D01*
X025755D01*
X021341Y014318D02*
X021381D01*
X021421Y014358D01*
X021461Y014318D01*
X021501D01*
Y014358D01*
X021461Y014398D01*
X021501Y014438D01*
Y014478D01*
X021461D01*
X021421Y014438D01*
X021381Y014478D01*
X021341D01*
Y014438D01*
X021381Y014398D01*
X021341Y014358D01*
Y014318D01*
X03118D02*
X03122D01*
X03126Y014358D01*
X0313Y014318D01*
X03134D01*
Y014358D01*
X0313Y014398D01*
X03134Y014438D01*
Y014478D01*
X0313D01*
X03126Y014438D01*
X03122Y014478D01*
X03118D01*
Y014438D01*
X03122Y014398D01*
X03118Y014358D01*
Y014318D01*
X027936Y013799D02*
Y013759D01*
X028016D01*
Y013799D01*
X028056D01*
Y013879D01*
X028016D01*
Y013919D01*
X027936D01*
Y013879D01*
X027896D01*
Y013799D01*
X027936D01*
X027391Y014917D02*
Y014877D01*
X027471D01*
Y014917D01*
X027511D01*
Y014997D01*
X027471D01*
Y015037D01*
X027391D01*
Y014997D01*
X027351D01*
Y014917D01*
X027391D01*
X026846Y013799D02*
Y013759D01*
X026926D01*
Y013799D01*
X026966D01*
Y013879D01*
X026926D01*
Y013919D01*
X026846D01*
Y013879D01*
X026806D01*
Y013799D01*
X026846D01*
X026301Y014917D02*
Y014877D01*
X026381D01*
Y014917D01*
X026421D01*
Y014997D01*
X026381D01*
Y015037D01*
X026301D01*
Y014997D01*
X026261D01*
Y014917D01*
X026301D01*
X02521D02*
Y014877D01*
X02529D01*
Y014917D01*
X02533D01*
Y014997D01*
X02529D01*
Y015037D01*
X02521D01*
Y014997D01*
X02517D01*
Y014917D01*
X02521D01*
X024665Y013799D02*
Y013759D01*
X024745D01*
Y013799D01*
X024785D01*
Y013879D01*
X024745D01*
Y013919D01*
X024665D01*
Y013879D01*
X024625D01*
Y013799D01*
X024665D01*
X024119Y014917D02*
Y014877D01*
X024199D01*
Y014917D01*
X024239D01*
Y014997D01*
X024199D01*
Y015037D01*
X024119D01*
Y014997D01*
X024079D01*
Y014917D01*
X024119D01*
X028482D02*
Y014877D01*
X028562D01*
Y014917D01*
X028602D01*
Y014997D01*
X028562D01*
Y015037D01*
X028482D01*
Y014997D01*
X028442D01*
Y014917D01*
X028482D01*
X055681Y043912D02*
X055601Y044072D01*
X055761D01*
X055681Y043912D01*
X049681D02*
X049601Y044072D01*
X049761D01*
X049681Y043912D01*
X047681D02*
X047601Y044072D01*
X047761D01*
X047681Y043912D01*
X051681D02*
X051601Y044072D01*
X051761D01*
X051681Y043912D01*
X053681D02*
X053601Y044072D01*
X053761D01*
X053681Y043912D01*
X028551Y043942D02*
X028471Y044102D01*
X028631D01*
X028551Y043942D01*
X026551D02*
X026471Y044102D01*
X026631D01*
X026551Y043942D01*
X022727Y031461D02*
X022807Y031541D01*
X022887Y031461D01*
X022807Y031381D01*
X022727Y031461D01*
Y032839D02*
X022807Y032919D01*
X022887Y032839D01*
X022807Y032759D01*
X022727Y032839D01*
X019277Y041654D02*
X019357Y041734D01*
X019437Y041654D01*
X019357Y041574D01*
X019277Y041654D01*
Y039654D02*
X019357Y039734D01*
X019437Y039654D01*
X019357Y039574D01*
X019277Y039654D01*
X018898Y032839D02*
X018978Y032919D01*
X019058Y032839D01*
X018978Y032759D01*
X018898Y032839D01*
Y031461D02*
X018978Y031541D01*
X019058Y031461D01*
X018978Y031381D01*
X018898Y031461D01*
X026763Y039322D02*
Y039482D01*
X026923D01*
Y039322D01*
X026763D01*
X026803Y039362D02*
Y039442D01*
X026883D01*
Y039362D01*
X026803D01*
X026763Y041322D02*
Y041482D01*
X026923D01*
Y041322D01*
X026763D01*
X026803Y041362D02*
Y041442D01*
X026883D01*
Y041362D01*
X026803D01*
X018454Y024292D02*
X018374Y024452D01*
X018534D01*
X018454Y024292D01*
Y024332D02*
X018414Y024412D01*
X018494D01*
X018454Y024332D01*
X016959Y017422D02*
X016879Y017582D01*
X017039D01*
X016959Y017422D01*
Y017462D02*
X016919Y017542D01*
X016999D01*
X016959Y017462D01*
X017681Y024298D02*
X017601Y024458D01*
X017761D01*
X017681Y024298D01*
Y024338D02*
X017641Y024418D01*
X017721D01*
X017681Y024338D01*
X025616Y016253D02*
X025536Y016413D01*
X025696D01*
X025616Y016253D01*
Y016293D02*
X025576Y016373D01*
X025656D01*
X025616Y016293D01*
X03774Y033524D02*
X03766Y033684D01*
X03782D01*
X03774Y033524D01*
Y033564D02*
X0377Y033644D01*
X03778D01*
X03774Y033564D01*
X033334Y033553D02*
X033254Y033713D01*
X033414D01*
X033334Y033553D01*
Y033593D02*
X033294Y033673D01*
X033374D01*
X033334Y033593D01*
X039125Y029162D02*
X039045Y029322D01*
X039205D01*
X039125Y029162D01*
Y029202D02*
X039085Y029282D01*
X039165D01*
X039125Y029202D01*
X039539Y029927D02*
X039459Y030087D01*
X039619D01*
X039539Y029927D01*
Y029967D02*
X039499Y030047D01*
X039579D01*
X039539Y029967D01*
X028292Y029919D02*
Y030079D01*
X028452D01*
Y029919D01*
X028292D01*
X028332Y029959D02*
Y030039D01*
X028412D01*
Y029959D01*
X028332D01*
X02829Y032913D02*
Y033073D01*
X02845D01*
Y032913D01*
X02829D01*
X02833Y032953D02*
Y033033D01*
X02841D01*
Y032953D01*
X02833D01*
X033754Y026812D02*
X033674Y026972D01*
X033834D01*
X033754Y026812D01*
Y026852D02*
X033714Y026932D01*
X033794D01*
X033754Y026852D01*
X026918Y018361D02*
X026838Y018521D01*
X026998D01*
X026918Y018361D01*
Y018401D02*
X026878Y018481D01*
X026958D01*
X026918Y018401D01*
X026922Y01598D02*
X026842Y01614D01*
X027002D01*
X026922Y01598D01*
Y01602D02*
X026882Y0161D01*
X026962D01*
X026922Y01602D01*
X018421Y016344D02*
X018341Y016504D01*
X018501D01*
X018421Y016344D01*
Y016384D02*
X018381Y016464D01*
X018461D01*
X018421Y016384D01*
X027253Y025455D02*
X027173Y025615D01*
X027333D01*
X027253Y025455D01*
Y025495D02*
X027213Y025575D01*
X027293D01*
X027253Y025495D01*
X024985Y019391D02*
X024905Y019551D01*
X025065D01*
X024985Y019391D01*
Y019431D02*
X024945Y019511D01*
X025025D01*
X024985Y019431D01*
X026708Y019722D02*
X026628Y019882D01*
X026788D01*
X026708Y019722D01*
Y019762D02*
X026668Y019842D01*
X026748D01*
X026708Y019762D01*
X026113Y021493D02*
X026033Y021653D01*
X026193D01*
X026113Y021493D01*
Y021533D02*
X026073Y021613D01*
X026153D01*
X026113Y021533D01*
X058517Y030217D02*
X058437Y030377D01*
X058597D01*
X058517Y030217D01*
Y030257D02*
X058477Y030337D01*
X058557D01*
X058517Y030257D01*
X039548Y030929D02*
X039468Y031089D01*
X039628D01*
X039548Y030929D01*
Y030969D02*
X039508Y031049D01*
X039588D01*
X039548Y030969D01*
X05113Y019513D02*
X05105Y019673D01*
X05121D01*
X05113Y019513D01*
Y019553D02*
X05109Y019633D01*
X05117D01*
X05113Y019553D01*
X035092Y019412D02*
X035012Y019572D01*
X035172D01*
X035092Y019412D01*
Y019452D02*
X035052Y019532D01*
X035132D01*
X035092Y019452D01*
X034952Y018428D02*
X034872Y018588D01*
X035032D01*
X034952Y018428D01*
Y018468D02*
X034912Y018548D01*
X034992D01*
X034952Y018468D01*
X037293Y019423D02*
X037213Y019583D01*
X037373D01*
X037293Y019423D01*
Y019463D02*
X037253Y019543D01*
X037333D01*
X037293Y019463D01*
Y01847D02*
X037213Y01863D01*
X037373D01*
X037293Y01847D01*
Y01851D02*
X037253Y01859D01*
X037333D01*
X037293Y01851D01*
X039549Y019443D02*
X039469Y019603D01*
X039629D01*
X039549Y019443D01*
Y019483D02*
X039509Y019563D01*
X039589D01*
X039549Y019483D01*
Y018445D02*
X039469Y018605D01*
X039629D01*
X039549Y018445D01*
Y018485D02*
X039509Y018565D01*
X039589D01*
X039549Y018485D01*
X041919Y01947D02*
X041839Y01963D01*
X041999D01*
X041919Y01947D01*
Y01951D02*
X041879Y01959D01*
X041959D01*
X041919Y01951D01*
Y018399D02*
X041839Y018559D01*
X041999D01*
X041919Y018399D01*
Y018439D02*
X041879Y018519D01*
X041959D01*
X041919Y018439D01*
X044273Y0194D02*
X044193Y01956D01*
X044353D01*
X044273Y0194D01*
Y01944D02*
X044233Y01952D01*
X044313D01*
X044273Y01944D01*
X0442Y01839D02*
X04412Y01855D01*
X04428D01*
X0442Y01839D01*
Y01843D02*
X04416Y01851D01*
X04424D01*
X0442Y01843D01*
X048801Y019537D02*
X048721Y019697D01*
X048881D01*
X048801Y019537D01*
Y019577D02*
X048761Y019657D01*
X048841D01*
X048801Y019577D01*
X046601Y018463D02*
X046521Y018623D01*
X046681D01*
X046601Y018463D01*
Y018503D02*
X046561Y018583D01*
X046641D01*
X046601Y018503D01*
X04661Y01947D02*
X04653Y01963D01*
X04669D01*
X04661Y01947D01*
Y01951D02*
X04657Y01959D01*
X04665D01*
X04661Y01951D01*
X048816Y018387D02*
X048736Y018547D01*
X048896D01*
X048816Y018387D01*
Y018427D02*
X048776Y018507D01*
X048856D01*
X048816Y018427D01*
X051137Y018467D02*
X051057Y018627D01*
X051217D01*
X051137Y018467D01*
Y018507D02*
X051097Y018587D01*
X051177D01*
X051137Y018507D01*
X024667Y034633D02*
X024587Y034793D01*
X024747D01*
X024667Y034633D01*
Y034673D02*
X024627Y034753D01*
X024707D01*
X024667Y034673D01*
X022417Y029898D02*
X022337Y030058D01*
X022497D01*
X022417Y029898D01*
Y029938D02*
X022377Y030018D01*
X022457D01*
X022417Y029938D01*
X025111Y031381D02*
X025031Y031541D01*
X025191D01*
X025111Y031381D01*
Y031421D02*
X025071Y031501D01*
X025151D01*
X025111Y031421D01*
X036347Y029637D02*
X036267Y029797D01*
X036427D01*
X036347Y029637D01*
Y029677D02*
X036307Y029757D01*
X036387D01*
X036347Y029677D01*
X046802Y032582D02*
X046722Y032742D01*
X046882D01*
X046802Y032582D01*
Y032622D02*
X046762Y032702D01*
X046842D01*
X046802Y032622D01*
X046888Y031318D02*
X046808Y031478D01*
X046968D01*
X046888Y031318D01*
Y031358D02*
X046848Y031438D01*
X046928D01*
X046888Y031358D01*
X042331Y027918D02*
X042251Y028078D01*
X042411D01*
X042331Y027918D01*
Y027958D02*
X042291Y028038D01*
X042371D01*
X042331Y027958D01*
X042621Y0282D02*
X042541Y02836D01*
X042701D01*
X042621Y0282D01*
Y02824D02*
X042581Y02832D01*
X042661D01*
X042621Y02824D01*
X042365Y029322D02*
X042285Y029482D01*
X042445D01*
X042365Y029322D01*
Y029362D02*
X042325Y029442D01*
X042405D01*
X042365Y029362D01*
X042027Y028527D02*
X041947Y028687D01*
X042107D01*
X042027Y028527D01*
Y028567D02*
X041987Y028647D01*
X042067D01*
X042027Y028567D01*
X046629Y028502D02*
X046549Y028662D01*
X046709D01*
X046629Y028502D01*
Y028542D02*
X046589Y028622D01*
X046669D01*
X046629Y028542D01*
X058231Y027089D02*
X058151Y027249D01*
X058311D01*
X058231Y027089D01*
Y027129D02*
X058191Y027209D01*
X058271D01*
X058231Y027129D01*
X042Y030467D02*
X04192Y030627D01*
X04208D01*
X042Y030467D01*
Y030507D02*
X04196Y030587D01*
X04204D01*
X042Y030507D01*
X048563Y030603D02*
X048483Y030763D01*
X048643D01*
X048563Y030603D01*
Y030643D02*
X048523Y030723D01*
X048603D01*
X048563Y030643D01*
X038582Y026251D02*
X038502Y026411D01*
X038662D01*
X038582Y026251D01*
Y026291D02*
X038542Y026371D01*
X038622D01*
X038582Y026291D01*
X04039Y026838D02*
X04031Y026998D01*
X04047D01*
X04039Y026838D01*
Y026878D02*
X04035Y026958D01*
X04043D01*
X04039Y026878D01*
X042455Y026291D02*
X042375Y026451D01*
X042535D01*
X042455Y026291D01*
Y026331D02*
X042415Y026411D01*
X042495D01*
X042455Y026331D01*
X043034Y026255D02*
X042954Y026415D01*
X043114D01*
X043034Y026255D01*
Y026295D02*
X042994Y026375D01*
X043074D01*
X043034Y026295D01*
X045846Y025915D02*
X045886Y025955D01*
X045926D01*
X045886Y025995D01*
X045926Y026035D01*
X045886D01*
X045846Y026075D01*
X045806Y026035D01*
X045766D01*
X045806Y025995D01*
X045766Y025955D01*
X045806D01*
X045846Y025915D01*
Y025955D02*
X045866Y025975D01*
X045886D01*
X045866Y025995D01*
X045886Y026015D01*
X045866D01*
X045846Y026035D01*
X045826Y026015D01*
X045806D01*
X045826Y025995D01*
X045806Y025975D01*
X045826D01*
X045846Y025955D01*
X045334Y026101D02*
X045374Y026141D01*
X045414D01*
X045374Y026181D01*
X045414Y026221D01*
X045374D01*
X045334Y026261D01*
X045294Y026221D01*
X045254D01*
X045294Y026181D01*
X045254Y026141D01*
X045294D01*
X045334Y026101D01*
Y026141D02*
X045354Y026161D01*
X045374D01*
X045354Y026181D01*
X045374Y026201D01*
X045354D01*
X045334Y026221D01*
X045314Y026201D01*
X045294D01*
X045314Y026181D01*
X045294Y026161D01*
X045314D01*
X045334Y026141D01*
X04889Y030983D02*
X04881Y031143D01*
X04897D01*
X04889Y030983D01*
Y031023D02*
X04885Y031103D01*
X04893D01*
X04889Y031023D01*
X039537Y033006D02*
X039457Y033166D01*
X039617D01*
X039537Y033006D01*
Y033046D02*
X039497Y033126D01*
X039577D01*
X039537Y033046D01*
X040148Y035671D02*
X040068Y035831D01*
X040228D01*
X040148Y035671D01*
Y035711D02*
X040108Y035791D01*
X040188D01*
X040148Y035711D01*
X031434Y024344D02*
X031354Y024504D01*
X031514D01*
X031434Y024344D01*
Y024384D02*
X031394Y024464D01*
X031474D01*
X031434Y024384D01*
X031383Y022999D02*
X031303Y023159D01*
X031463D01*
X031383Y022999D01*
Y023039D02*
X031343Y023119D01*
X031423D01*
X031383Y023039D01*
X054667Y026499D02*
X054587Y026659D01*
X054747D01*
X054667Y026499D01*
Y026539D02*
X054627Y026619D01*
X054707D01*
X054667Y026539D01*
X024836Y035464D02*
X024756Y035624D01*
X024916D01*
X024836Y035464D01*
Y035504D02*
X024796Y035584D01*
X024876D01*
X024836Y035504D01*
X022278Y041128D02*
X022198Y041288D01*
X022358D01*
X022278Y041128D01*
Y041168D02*
X022238Y041248D01*
X022318D01*
X022278Y041168D01*
X04942Y027322D02*
X04934Y027482D01*
X0495D01*
X04942Y027322D01*
Y027362D02*
X04938Y027442D01*
X04946D01*
X04942Y027362D01*
X055278Y029577D02*
X055198Y029737D01*
X055358D01*
X055278Y029577D01*
Y029617D02*
X055238Y029697D01*
X055318D01*
X055278Y029617D01*
X057039Y0314D02*
X057079Y03144D01*
X057119D01*
X057079Y03148D01*
X057119Y03152D01*
X057079D01*
X057039Y03156D01*
X056999Y03152D01*
X056959D01*
X056999Y03148D01*
X056959Y03144D01*
X056999D01*
X057039Y0314D01*
Y03144D02*
X057059Y03146D01*
X057079D01*
X057059Y03148D01*
X057079Y0315D01*
X057059D01*
X057039Y03152D01*
X057019Y0315D01*
X056999D01*
X057019Y03148D01*
X056999Y03146D01*
X057019D01*
X057039Y03144D01*
X055256Y03264D02*
X055296Y03268D01*
X055336D01*
X055296Y03272D01*
X055336Y03276D01*
X055296D01*
X055256Y0328D01*
X055216Y03276D01*
X055176D01*
X055216Y03272D01*
X055176Y03268D01*
X055216D01*
X055256Y03264D01*
Y03268D02*
X055276Y0327D01*
X055296D01*
X055276Y03272D01*
X055296Y03274D01*
X055276D01*
X055256Y03276D01*
X055236Y03274D01*
X055216D01*
X055236Y03272D01*
X055216Y0327D01*
X055236D01*
X055256Y03268D01*
D112*
X051723Y033948D02*
G03*
X051723Y033948I-00008J0D01*
G01*
X050723D02*
G03*
X050723Y033948I-00008J0D01*
G01*
X049723D02*
G03*
X049723Y033948I-00008J0D01*
G01*
X048723D02*
G03*
X048723Y033948I-00008J0D01*
G01*
X03241Y025576D02*
G03*
X03241Y025576I-00008J0D01*
G01*
X03141D02*
G03*
X03141Y025576I-00008J0D01*
G01*
X03041D02*
G03*
X03041Y025576I-00008J0D01*
G01*
X02941D02*
G03*
X02941Y025576I-00008J0D01*
G01*
X061497Y038976D02*
G03*
X061497Y038976I-00008J0D01*
G01*
X062088Y037795D02*
G03*
X062088Y037795I-00008J0D01*
G01*
X061497Y03189D02*
G03*
X061497Y03189I-00008J0D01*
G01*
X062088Y028346D02*
G03*
X062088Y028346I-00008J0D01*
G01*
Y025984D02*
G03*
X062088Y025984I-00008J0D01*
G01*
Y023622D02*
G03*
X062088Y023622I-00008J0D01*
G01*
X061497Y020079D02*
G03*
X061497Y020079I-00008J0D01*
G01*
Y017717D02*
G03*
X061497Y017717I-00008J0D01*
G01*
X060316Y041339D02*
G03*
X060316Y041339I-00008J0D01*
G01*
X060907Y040157D02*
G03*
X060907Y040157I-00008J0D01*
G01*
X060316Y038976D02*
G03*
X060316Y038976I-00008J0D01*
G01*
X060907Y037795D02*
G03*
X060907Y037795I-00008J0D01*
G01*
X060316Y036614D02*
G03*
X060316Y036614I-00008J0D01*
G01*
X060907Y033071D02*
G03*
X060907Y033071I-00008J0D01*
G01*
X060316Y027165D02*
G03*
X060316Y027165I-00008J0D01*
G01*
X060907Y025984D02*
G03*
X060907Y025984I-00008J0D01*
G01*
X060316Y024803D02*
G03*
X060316Y024803I-00008J0D01*
G01*
X060907Y023622D02*
G03*
X060907Y023622I-00008J0D01*
G01*
X060316Y020079D02*
G03*
X060316Y020079I-00008J0D01*
G01*
Y017717D02*
G03*
X060316Y017717I-00008J0D01*
G01*
X059135Y041339D02*
G03*
X059135Y041339I-00008J0D01*
G01*
X059726Y040157D02*
G03*
X059726Y040157I-00008J0D01*
G01*
X059135Y038976D02*
G03*
X059135Y038976I-00008J0D01*
G01*
X059726Y037795D02*
G03*
X059726Y037795I-00008J0D01*
G01*
X059135Y036614D02*
G03*
X059135Y036614I-00008J0D01*
G01*
Y03189D02*
G03*
X059135Y03189I-00008J0D01*
G01*
Y027165D02*
G03*
X059135Y027165I-00008J0D01*
G01*
X059726Y025984D02*
G03*
X059726Y025984I-00008J0D01*
G01*
X059135Y024803D02*
G03*
X059135Y024803I-00008J0D01*
G01*
X059726Y02126D02*
G03*
X059726Y02126I-00008J0D01*
G01*
X059135Y020079D02*
G03*
X059135Y020079I-00008J0D01*
G01*
Y017717D02*
G03*
X059135Y017717I-00008J0D01*
G01*
X058545Y04252D02*
G03*
X058545Y04252I-00008J0D01*
G01*
X057954Y041339D02*
G03*
X057954Y041339I-00008J0D01*
G01*
X058545Y040157D02*
G03*
X058545Y040157I-00008J0D01*
G01*
X057954Y036614D02*
G03*
X057954Y036614I-00008J0D01*
G01*
X058545Y02126D02*
G03*
X058545Y02126I-00008J0D01*
G01*
X057954Y017717D02*
G03*
X057954Y017717I-00008J0D01*
G01*
X057363Y04252D02*
G03*
X057363Y04252I-00008J0D01*
G01*
Y040157D02*
G03*
X057363Y040157I-00008J0D01*
G01*
Y035433D02*
G03*
X057363Y035433I-00008J0D01*
G01*
Y033071D02*
G03*
X057363Y033071I-00008J0D01*
G01*
X056773Y03189D02*
G03*
X056773Y03189I-00008J0D01*
G01*
X057363Y030709D02*
G03*
X057363Y030709I-00008J0D01*
G01*
Y028346D02*
G03*
X057363Y028346I-00008J0D01*
G01*
Y025984D02*
G03*
X057363Y025984I-00008J0D01*
G01*
X056773Y024803D02*
G03*
X056773Y024803I-00008J0D01*
G01*
X057363Y02126D02*
G03*
X057363Y02126I-00008J0D01*
G01*
X056773Y020079D02*
G03*
X056773Y020079I-00008J0D01*
G01*
Y017717D02*
G03*
X056773Y017717I-00008J0D01*
G01*
X056182Y040157D02*
G03*
X056182Y040157I-00008J0D01*
G01*
Y035433D02*
G03*
X056182Y035433I-00008J0D01*
G01*
X055592Y03189D02*
G03*
X055592Y03189I-00008J0D01*
G01*
X056182Y030709D02*
G03*
X056182Y030709I-00008J0D01*
G01*
Y02126D02*
G03*
X056182Y02126I-00008J0D01*
G01*
X055592Y017717D02*
G03*
X055592Y017717I-00008J0D01*
G01*
X055001Y044882D02*
G03*
X055001Y044882I-00008J0D01*
G01*
Y040157D02*
G03*
X055001Y040157I-00008J0D01*
G01*
Y035433D02*
G03*
X055001Y035433I-00008J0D01*
G01*
Y030709D02*
G03*
X055001Y030709I-00008J0D01*
G01*
Y025984D02*
G03*
X055001Y025984I-00008J0D01*
G01*
X054411Y024803D02*
G03*
X054411Y024803I-00008J0D01*
G01*
Y022441D02*
G03*
X054411Y022441I-00008J0D01*
G01*
X05382Y044882D02*
G03*
X05382Y044882I-00008J0D01*
G01*
Y040157D02*
G03*
X05382Y040157I-00008J0D01*
G01*
X05323Y034252D02*
G03*
X05323Y034252I-00008J0D01*
G01*
X05382Y033071D02*
G03*
X05382Y033071I-00008J0D01*
G01*
X05323Y03189D02*
G03*
X05323Y03189I-00008J0D01*
G01*
X05382Y030709D02*
G03*
X05382Y030709I-00008J0D01*
G01*
Y025984D02*
G03*
X05382Y025984I-00008J0D01*
G01*
Y023622D02*
G03*
X05382Y023622I-00008J0D01*
G01*
X05323Y022441D02*
G03*
X05323Y022441I-00008J0D01*
G01*
X052639Y040157D02*
G03*
X052639Y040157I-00008J0D01*
G01*
Y033071D02*
G03*
X052639Y033071I-00008J0D01*
G01*
X052048Y03189D02*
G03*
X052048Y03189I-00008J0D01*
G01*
X052639Y030709D02*
G03*
X052639Y030709I-00008J0D01*
G01*
Y028346D02*
G03*
X052639Y028346I-00008J0D01*
G01*
Y025984D02*
G03*
X052639Y025984I-00008J0D01*
G01*
X052048Y022441D02*
G03*
X052048Y022441I-00008J0D01*
G01*
X051458Y040157D02*
G03*
X051458Y040157I-00008J0D01*
G01*
Y033071D02*
G03*
X051458Y033071I-00008J0D01*
G01*
Y028346D02*
G03*
X051458Y028346I-00008J0D01*
G01*
Y023622D02*
G03*
X051458Y023622I-00008J0D01*
G01*
X050867Y022441D02*
G03*
X050867Y022441I-00008J0D01*
G01*
X050277Y040157D02*
G03*
X050277Y040157I-00008J0D01*
G01*
Y033071D02*
G03*
X050277Y033071I-00008J0D01*
G01*
Y030709D02*
G03*
X050277Y030709I-00008J0D01*
G01*
Y028346D02*
G03*
X050277Y028346I-00008J0D01*
G01*
X049686Y022441D02*
G03*
X049686Y022441I-00008J0D01*
G01*
X049096Y040157D02*
G03*
X049096Y040157I-00008J0D01*
G01*
Y028346D02*
G03*
X049096Y028346I-00008J0D01*
G01*
Y023622D02*
G03*
X049096Y023622I-00008J0D01*
G01*
X048505Y022441D02*
G03*
X048505Y022441I-00008J0D01*
G01*
X047915Y040157D02*
G03*
X047915Y040157I-00008J0D01*
G01*
X047324Y022441D02*
G03*
X047324Y022441I-00008J0D01*
G01*
X046143Y041339D02*
G03*
X046143Y041339I-00008J0D01*
G01*
X046734Y040157D02*
G03*
X046734Y040157I-00008J0D01*
G01*
X046143Y03189D02*
G03*
X046143Y03189I-00008J0D01*
G01*
Y029528D02*
G03*
X046143Y029528I-00008J0D01*
G01*
X046734Y023622D02*
G03*
X046734Y023622I-00008J0D01*
G01*
X045552Y040157D02*
G03*
X045552Y040157I-00008J0D01*
G01*
X044962Y03189D02*
G03*
X044962Y03189I-00008J0D01*
G01*
X045552Y030709D02*
G03*
X045552Y030709I-00008J0D01*
G01*
X044962Y029528D02*
G03*
X044962Y029528I-00008J0D01*
G01*
Y022441D02*
G03*
X044962Y022441I-00008J0D01*
G01*
X043781Y041339D02*
G03*
X043781Y041339I-00008J0D01*
G01*
X044371Y040157D02*
G03*
X044371Y040157I-00008J0D01*
G01*
X043781Y03189D02*
G03*
X043781Y03189I-00008J0D01*
G01*
X044371Y030709D02*
G03*
X044371Y030709I-00008J0D01*
G01*
X043781Y029528D02*
G03*
X043781Y029528I-00008J0D01*
G01*
Y022441D02*
G03*
X043781Y022441I-00008J0D01*
G01*
X04319Y040157D02*
G03*
X04319Y040157I-00008J0D01*
G01*
X0426Y03189D02*
G03*
X0426Y03189I-00008J0D01*
G01*
X04319Y030709D02*
G03*
X04319Y030709I-00008J0D01*
G01*
X0426Y022441D02*
G03*
X0426Y022441I-00008J0D01*
G01*
X042009Y040157D02*
G03*
X042009Y040157I-00008J0D01*
G01*
X041419Y022441D02*
G03*
X041419Y022441I-00008J0D01*
G01*
X040828Y040157D02*
G03*
X040828Y040157I-00008J0D01*
G01*
X040237Y024803D02*
G03*
X040237Y024803I-00008J0D01*
G01*
Y022441D02*
G03*
X040237Y022441I-00008J0D01*
G01*
X039647Y040157D02*
G03*
X039647Y040157I-00008J0D01*
G01*
X039056Y03189D02*
G03*
X039056Y03189I-00008J0D01*
G01*
Y022441D02*
G03*
X039056Y022441I-00008J0D01*
G01*
X038466Y040157D02*
G03*
X038466Y040157I-00008J0D01*
G01*
X037875Y034252D02*
G03*
X037875Y034252I-00008J0D01*
G01*
Y029528D02*
G03*
X037875Y029528I-00008J0D01*
G01*
X038466Y028346D02*
G03*
X038466Y028346I-00008J0D01*
G01*
X037875Y024803D02*
G03*
X037875Y024803I-00008J0D01*
G01*
Y022441D02*
G03*
X037875Y022441I-00008J0D01*
G01*
X037285Y040157D02*
G03*
X037285Y040157I-00008J0D01*
G01*
X036694Y034252D02*
G03*
X036694Y034252I-00008J0D01*
G01*
X037285Y033071D02*
G03*
X037285Y033071I-00008J0D01*
G01*
X036694Y03189D02*
G03*
X036694Y03189I-00008J0D01*
G01*
Y029528D02*
G03*
X036694Y029528I-00008J0D01*
G01*
Y022441D02*
G03*
X036694Y022441I-00008J0D01*
G01*
X036104Y040157D02*
G03*
X036104Y040157I-00008J0D01*
G01*
X035513Y034252D02*
G03*
X035513Y034252I-00008J0D01*
G01*
X036104Y033071D02*
G03*
X036104Y033071I-00008J0D01*
G01*
X035513Y03189D02*
G03*
X035513Y03189I-00008J0D01*
G01*
Y024803D02*
G03*
X035513Y024803I-00008J0D01*
G01*
Y022441D02*
G03*
X035513Y022441I-00008J0D01*
G01*
Y020079D02*
G03*
X035513Y020079I-00008J0D01*
G01*
X034923Y04252D02*
G03*
X034923Y04252I-00008J0D01*
G01*
Y040157D02*
G03*
X034923Y040157I-00008J0D01*
G01*
X034332Y034252D02*
G03*
X034332Y034252I-00008J0D01*
G01*
X034923Y033071D02*
G03*
X034923Y033071I-00008J0D01*
G01*
X034332Y03189D02*
G03*
X034332Y03189I-00008J0D01*
G01*
X034923Y030709D02*
G03*
X034923Y030709I-00008J0D01*
G01*
Y028346D02*
G03*
X034923Y028346I-00008J0D01*
G01*
X034332Y022441D02*
G03*
X034332Y022441I-00008J0D01*
G01*
X033741Y044882D02*
G03*
X033741Y044882I-00008J0D01*
G01*
Y040157D02*
G03*
X033741Y040157I-00008J0D01*
G01*
X033151Y034252D02*
G03*
X033151Y034252I-00008J0D01*
G01*
X033741Y033071D02*
G03*
X033741Y033071I-00008J0D01*
G01*
Y028346D02*
G03*
X033741Y028346I-00008J0D01*
G01*
X033151Y024803D02*
G03*
X033151Y024803I-00008J0D01*
G01*
Y022441D02*
G03*
X033151Y022441I-00008J0D01*
G01*
Y020079D02*
G03*
X033151Y020079I-00008J0D01*
G01*
X03256Y040157D02*
G03*
X03256Y040157I-00008J0D01*
G01*
X03197Y034252D02*
G03*
X03197Y034252I-00008J0D01*
G01*
X03256Y033071D02*
G03*
X03256Y033071I-00008J0D01*
G01*
X03197Y03189D02*
G03*
X03197Y03189I-00008J0D01*
G01*
Y029528D02*
G03*
X03197Y029528I-00008J0D01*
G01*
X03256Y028346D02*
G03*
X03256Y028346I-00008J0D01*
G01*
X03197Y024803D02*
G03*
X03197Y024803I-00008J0D01*
G01*
X03256Y023622D02*
G03*
X03256Y023622I-00008J0D01*
G01*
X03197Y022441D02*
G03*
X03197Y022441I-00008J0D01*
G01*
Y020079D02*
G03*
X03197Y020079I-00008J0D01*
G01*
X03256Y018898D02*
G03*
X03256Y018898I-00008J0D01*
G01*
X03197Y017717D02*
G03*
X03197Y017717I-00008J0D01*
G01*
X031379Y044882D02*
G03*
X031379Y044882I-00008J0D01*
G01*
X030789Y043701D02*
G03*
X030789Y043701I-00008J0D01*
G01*
X031379Y040157D02*
G03*
X031379Y040157I-00008J0D01*
G01*
Y035433D02*
G03*
X031379Y035433I-00008J0D01*
G01*
X030789Y034252D02*
G03*
X030789Y034252I-00008J0D01*
G01*
X031379Y033071D02*
G03*
X031379Y033071I-00008J0D01*
G01*
X030789Y03189D02*
G03*
X030789Y03189I-00008J0D01*
G01*
X031379Y030709D02*
G03*
X031379Y030709I-00008J0D01*
G01*
X030789Y029528D02*
G03*
X030789Y029528I-00008J0D01*
G01*
X031379Y028346D02*
G03*
X031379Y028346I-00008J0D01*
G01*
Y023622D02*
G03*
X031379Y023622I-00008J0D01*
G01*
X030789Y022441D02*
G03*
X030789Y022441I-00008J0D01*
G01*
X031379Y016535D02*
G03*
X031379Y016535I-00008J0D01*
G01*
X029608Y043701D02*
G03*
X029608Y043701I-00008J0D01*
G01*
X030198Y04252D02*
G03*
X030198Y04252I-00008J0D01*
G01*
X029608Y041339D02*
G03*
X029608Y041339I-00008J0D01*
G01*
X030198Y040157D02*
G03*
X030198Y040157I-00008J0D01*
G01*
Y037795D02*
G03*
X030198Y037795I-00008J0D01*
G01*
Y035433D02*
G03*
X030198Y035433I-00008J0D01*
G01*
X029608Y034252D02*
G03*
X029608Y034252I-00008J0D01*
G01*
X030198Y033071D02*
G03*
X030198Y033071I-00008J0D01*
G01*
X029608Y03189D02*
G03*
X029608Y03189I-00008J0D01*
G01*
X030198Y030709D02*
G03*
X030198Y030709I-00008J0D01*
G01*
X029608Y029528D02*
G03*
X029608Y029528I-00008J0D01*
G01*
X030198Y028346D02*
G03*
X030198Y028346I-00008J0D01*
G01*
X029608Y022441D02*
G03*
X029608Y022441I-00008J0D01*
G01*
Y015354D02*
G03*
X029608Y015354I-00008J0D01*
G01*
Y012992D02*
G03*
X029608Y012992I-00008J0D01*
G01*
X029017Y044882D02*
G03*
X029017Y044882I-00008J0D01*
G01*
Y04252D02*
G03*
X029017Y04252I-00008J0D01*
G01*
X028426Y041339D02*
G03*
X028426Y041339I-00008J0D01*
G01*
X029017Y040157D02*
G03*
X029017Y040157I-00008J0D01*
G01*
Y037795D02*
G03*
X029017Y037795I-00008J0D01*
G01*
Y033071D02*
G03*
X029017Y033071I-00008J0D01*
G01*
X028426Y03189D02*
G03*
X028426Y03189I-00008J0D01*
G01*
X029017Y030709D02*
G03*
X029017Y030709I-00008J0D01*
G01*
X028426Y022441D02*
G03*
X028426Y022441I-00008J0D01*
G01*
X029017Y014173D02*
G03*
X029017Y014173I-00008J0D01*
G01*
X028426Y012992D02*
G03*
X028426Y012992I-00008J0D01*
G01*
X027836Y044882D02*
G03*
X027836Y044882I-00008J0D01*
G01*
Y04252D02*
G03*
X027836Y04252I-00008J0D01*
G01*
Y040157D02*
G03*
X027836Y040157I-00008J0D01*
G01*
Y037795D02*
G03*
X027836Y037795I-00008J0D01*
G01*
Y033071D02*
G03*
X027836Y033071I-00008J0D01*
G01*
Y030709D02*
G03*
X027836Y030709I-00008J0D01*
G01*
X027245Y029528D02*
G03*
X027245Y029528I-00008J0D01*
G01*
X027836Y025984D02*
G03*
X027836Y025984I-00008J0D01*
G01*
X027245Y022441D02*
G03*
X027245Y022441I-00008J0D01*
G01*
Y020079D02*
G03*
X027245Y020079I-00008J0D01*
G01*
Y012992D02*
G03*
X027245Y012992I-00008J0D01*
G01*
X026655Y044882D02*
G03*
X026655Y044882I-00008J0D01*
G01*
Y04252D02*
G03*
X026655Y04252I-00008J0D01*
G01*
Y040157D02*
G03*
X026655Y040157I-00008J0D01*
G01*
Y030709D02*
G03*
X026655Y030709I-00008J0D01*
G01*
X026064Y029528D02*
G03*
X026064Y029528I-00008J0D01*
G01*
X026655Y028346D02*
G03*
X026655Y028346I-00008J0D01*
G01*
X026064Y024803D02*
G03*
X026064Y024803I-00008J0D01*
G01*
Y022441D02*
G03*
X026064Y022441I-00008J0D01*
G01*
X026655Y016535D02*
G03*
X026655Y016535I-00008J0D01*
G01*
X026064Y012992D02*
G03*
X026064Y012992I-00008J0D01*
G01*
X025474Y044882D02*
G03*
X025474Y044882I-00008J0D01*
G01*
Y04252D02*
G03*
X025474Y04252I-00008J0D01*
G01*
Y040157D02*
G03*
X025474Y040157I-00008J0D01*
G01*
X024883Y038976D02*
G03*
X024883Y038976I-00008J0D01*
G01*
X025474Y037795D02*
G03*
X025474Y037795I-00008J0D01*
G01*
Y035433D02*
G03*
X025474Y035433I-00008J0D01*
G01*
X024883Y034252D02*
G03*
X024883Y034252I-00008J0D01*
G01*
X025474Y033071D02*
G03*
X025474Y033071I-00008J0D01*
G01*
Y028346D02*
G03*
X025474Y028346I-00008J0D01*
G01*
Y02126D02*
G03*
X025474Y02126I-00008J0D01*
G01*
X024883Y012992D02*
G03*
X024883Y012992I-00008J0D01*
G01*
X024293Y044882D02*
G03*
X024293Y044882I-00008J0D01*
G01*
Y04252D02*
G03*
X024293Y04252I-00008J0D01*
G01*
Y040157D02*
G03*
X024293Y040157I-00008J0D01*
G01*
X023702Y038976D02*
G03*
X023702Y038976I-00008J0D01*
G01*
X024293Y037795D02*
G03*
X024293Y037795I-00008J0D01*
G01*
X023702Y034252D02*
G03*
X023702Y034252I-00008J0D01*
G01*
X024293Y033071D02*
G03*
X024293Y033071I-00008J0D01*
G01*
Y030709D02*
G03*
X024293Y030709I-00008J0D01*
G01*
X023702Y015354D02*
G03*
X023702Y015354I-00008J0D01*
G01*
Y012992D02*
G03*
X023702Y012992I-00008J0D01*
G01*
X023111Y044882D02*
G03*
X023111Y044882I-00008J0D01*
G01*
Y04252D02*
G03*
X023111Y04252I-00008J0D01*
G01*
Y040157D02*
G03*
X023111Y040157I-00008J0D01*
G01*
X022521Y036614D02*
G03*
X022521Y036614I-00008J0D01*
G01*
Y034252D02*
G03*
X022521Y034252I-00008J0D01*
G01*
X023111Y030709D02*
G03*
X023111Y030709I-00008J0D01*
G01*
Y025984D02*
G03*
X023111Y025984I-00008J0D01*
G01*
X022521Y015354D02*
G03*
X022521Y015354I-00008J0D01*
G01*
X023111Y014173D02*
G03*
X023111Y014173I-00008J0D01*
G01*
X022521Y012992D02*
G03*
X022521Y012992I-00008J0D01*
G01*
X02193Y044882D02*
G03*
X02193Y044882I-00008J0D01*
G01*
Y04252D02*
G03*
X02193Y04252I-00008J0D01*
G01*
Y037795D02*
G03*
X02193Y037795I-00008J0D01*
G01*
X02134Y034252D02*
G03*
X02134Y034252I-00008J0D01*
G01*
X02193Y033071D02*
G03*
X02193Y033071I-00008J0D01*
G01*
X02134Y03189D02*
G03*
X02134Y03189I-00008J0D01*
G01*
X02193Y025984D02*
G03*
X02193Y025984I-00008J0D01*
G01*
X02134Y012992D02*
G03*
X02134Y012992I-00008J0D01*
G01*
X020749Y044882D02*
G03*
X020749Y044882I-00008J0D01*
G01*
Y04252D02*
G03*
X020749Y04252I-00008J0D01*
G01*
Y040157D02*
G03*
X020749Y040157I-00008J0D01*
G01*
X020159Y038976D02*
G03*
X020159Y038976I-00008J0D01*
G01*
X020749Y037795D02*
G03*
X020749Y037795I-00008J0D01*
G01*
Y035433D02*
G03*
X020749Y035433I-00008J0D01*
G01*
Y033071D02*
G03*
X020749Y033071I-00008J0D01*
G01*
X020159Y03189D02*
G03*
X020159Y03189I-00008J0D01*
G01*
X020749Y030709D02*
G03*
X020749Y030709I-00008J0D01*
G01*
Y025984D02*
G03*
X020749Y025984I-00008J0D01*
G01*
X020159Y015354D02*
G03*
X020159Y015354I-00008J0D01*
G01*
X019568Y044882D02*
G03*
X019568Y044882I-00008J0D01*
G01*
X018978Y038976D02*
G03*
X018978Y038976I-00008J0D01*
G01*
X019568Y030709D02*
G03*
X019568Y030709I-00008J0D01*
G01*
X018978Y029528D02*
G03*
X018978Y029528I-00008J0D01*
G01*
X019568Y025984D02*
G03*
X019568Y025984I-00008J0D01*
G01*
X018387Y04252D02*
G03*
X018387Y04252I-00008J0D01*
G01*
Y040157D02*
G03*
X018387Y040157I-00008J0D01*
G01*
X017797Y038976D02*
G03*
X017797Y038976I-00008J0D01*
G01*
X018387Y033071D02*
G03*
X018387Y033071I-00008J0D01*
G01*
X017797Y03189D02*
G03*
X017797Y03189I-00008J0D01*
G01*
X017206Y04252D02*
G03*
X017206Y04252I-00008J0D01*
G01*
Y040157D02*
G03*
X017206Y040157I-00008J0D01*
G01*
Y037795D02*
G03*
X017206Y037795I-00008J0D01*
G01*
Y035433D02*
G03*
X017206Y035433I-00008J0D01*
G01*
Y033071D02*
G03*
X017206Y033071I-00008J0D01*
G01*
Y030709D02*
G03*
X017206Y030709I-00008J0D01*
G01*
Y028346D02*
G03*
X017206Y028346I-00008J0D01*
G01*
D113*
X061457Y038976D02*
G03*
X061457Y038976I-00004J0D01*
G01*
X062048Y037795D02*
G03*
X062048Y037795I-00004J0D01*
G01*
X061457Y03189D02*
G03*
X061457Y03189I-00004J0D01*
G01*
X062048Y028346D02*
G03*
X062048Y028346I-00004J0D01*
G01*
Y025984D02*
G03*
X062048Y025984I-00004J0D01*
G01*
Y023622D02*
G03*
X062048Y023622I-00004J0D01*
G01*
X061457Y020079D02*
G03*
X061457Y020079I-00004J0D01*
G01*
Y017717D02*
G03*
X061457Y017717I-00004J0D01*
G01*
X060276Y041339D02*
G03*
X060276Y041339I-00004J0D01*
G01*
X060867Y040157D02*
G03*
X060867Y040157I-00004J0D01*
G01*
X060276Y038976D02*
G03*
X060276Y038976I-00004J0D01*
G01*
X060867Y037795D02*
G03*
X060867Y037795I-00004J0D01*
G01*
X060276Y036614D02*
G03*
X060276Y036614I-00004J0D01*
G01*
X060867Y033071D02*
G03*
X060867Y033071I-00004J0D01*
G01*
X060276Y027165D02*
G03*
X060276Y027165I-00004J0D01*
G01*
X060867Y025984D02*
G03*
X060867Y025984I-00004J0D01*
G01*
X060276Y024803D02*
G03*
X060276Y024803I-00004J0D01*
G01*
X060867Y023622D02*
G03*
X060867Y023622I-00004J0D01*
G01*
X060276Y020079D02*
G03*
X060276Y020079I-00004J0D01*
G01*
Y017717D02*
G03*
X060276Y017717I-00004J0D01*
G01*
X059095Y041339D02*
G03*
X059095Y041339I-00004J0D01*
G01*
X059686Y040157D02*
G03*
X059686Y040157I-00004J0D01*
G01*
X059095Y038976D02*
G03*
X059095Y038976I-00004J0D01*
G01*
X059686Y037795D02*
G03*
X059686Y037795I-00004J0D01*
G01*
X059095Y036614D02*
G03*
X059095Y036614I-00004J0D01*
G01*
Y03189D02*
G03*
X059095Y03189I-00004J0D01*
G01*
Y027165D02*
G03*
X059095Y027165I-00004J0D01*
G01*
X059686Y025984D02*
G03*
X059686Y025984I-00004J0D01*
G01*
X059095Y024803D02*
G03*
X059095Y024803I-00004J0D01*
G01*
X059686Y02126D02*
G03*
X059686Y02126I-00004J0D01*
G01*
X059095Y020079D02*
G03*
X059095Y020079I-00004J0D01*
G01*
Y017717D02*
G03*
X059095Y017717I-00004J0D01*
G01*
X058505Y04252D02*
G03*
X058505Y04252I-00004J0D01*
G01*
X057914Y041339D02*
G03*
X057914Y041339I-00004J0D01*
G01*
X058505Y040157D02*
G03*
X058505Y040157I-00004J0D01*
G01*
X057914Y036614D02*
G03*
X057914Y036614I-00004J0D01*
G01*
X058505Y02126D02*
G03*
X058505Y02126I-00004J0D01*
G01*
X057914Y017717D02*
G03*
X057914Y017717I-00004J0D01*
G01*
X057323Y04252D02*
G03*
X057323Y04252I-00004J0D01*
G01*
Y040157D02*
G03*
X057323Y040157I-00004J0D01*
G01*
Y035433D02*
G03*
X057323Y035433I-00004J0D01*
G01*
Y033071D02*
G03*
X057323Y033071I-00004J0D01*
G01*
X056733Y03189D02*
G03*
X056733Y03189I-00004J0D01*
G01*
X057323Y030709D02*
G03*
X057323Y030709I-00004J0D01*
G01*
Y028346D02*
G03*
X057323Y028346I-00004J0D01*
G01*
Y025984D02*
G03*
X057323Y025984I-00004J0D01*
G01*
X056733Y024803D02*
G03*
X056733Y024803I-00004J0D01*
G01*
X057323Y02126D02*
G03*
X057323Y02126I-00004J0D01*
G01*
X056733Y020079D02*
G03*
X056733Y020079I-00004J0D01*
G01*
Y017717D02*
G03*
X056733Y017717I-00004J0D01*
G01*
X056142Y040157D02*
G03*
X056142Y040157I-00004J0D01*
G01*
Y035433D02*
G03*
X056142Y035433I-00004J0D01*
G01*
X055552Y03189D02*
G03*
X055552Y03189I-00004J0D01*
G01*
X056142Y030709D02*
G03*
X056142Y030709I-00004J0D01*
G01*
Y02126D02*
G03*
X056142Y02126I-00004J0D01*
G01*
X055552Y017717D02*
G03*
X055552Y017717I-00004J0D01*
G01*
X054961Y044882D02*
G03*
X054961Y044882I-00004J0D01*
G01*
Y040157D02*
G03*
X054961Y040157I-00004J0D01*
G01*
Y035433D02*
G03*
X054961Y035433I-00004J0D01*
G01*
Y030709D02*
G03*
X054961Y030709I-00004J0D01*
G01*
Y025984D02*
G03*
X054961Y025984I-00004J0D01*
G01*
X054371Y024803D02*
G03*
X054371Y024803I-00004J0D01*
G01*
Y022441D02*
G03*
X054371Y022441I-00004J0D01*
G01*
X05378Y044882D02*
G03*
X05378Y044882I-00004J0D01*
G01*
Y040157D02*
G03*
X05378Y040157I-00004J0D01*
G01*
X05319Y034252D02*
G03*
X05319Y034252I-00004J0D01*
G01*
X05378Y033071D02*
G03*
X05378Y033071I-00004J0D01*
G01*
X05319Y03189D02*
G03*
X05319Y03189I-00004J0D01*
G01*
X05378Y030709D02*
G03*
X05378Y030709I-00004J0D01*
G01*
Y025984D02*
G03*
X05378Y025984I-00004J0D01*
G01*
Y023622D02*
G03*
X05378Y023622I-00004J0D01*
G01*
X05319Y022441D02*
G03*
X05319Y022441I-00004J0D01*
G01*
X052599Y040157D02*
G03*
X052599Y040157I-00004J0D01*
G01*
Y033071D02*
G03*
X052599Y033071I-00004J0D01*
G01*
X052008Y03189D02*
G03*
X052008Y03189I-00004J0D01*
G01*
X052599Y030709D02*
G03*
X052599Y030709I-00004J0D01*
G01*
Y028346D02*
G03*
X052599Y028346I-00004J0D01*
G01*
Y025984D02*
G03*
X052599Y025984I-00004J0D01*
G01*
X052008Y022441D02*
G03*
X052008Y022441I-00004J0D01*
G01*
X051418Y040157D02*
G03*
X051418Y040157I-00004J0D01*
G01*
Y033071D02*
G03*
X051418Y033071I-00004J0D01*
G01*
Y028346D02*
G03*
X051418Y028346I-00004J0D01*
G01*
Y023622D02*
G03*
X051418Y023622I-00004J0D01*
G01*
X050827Y022441D02*
G03*
X050827Y022441I-00004J0D01*
G01*
X050237Y040157D02*
G03*
X050237Y040157I-00004J0D01*
G01*
Y033071D02*
G03*
X050237Y033071I-00004J0D01*
G01*
Y030709D02*
G03*
X050237Y030709I-00004J0D01*
G01*
Y028346D02*
G03*
X050237Y028346I-00004J0D01*
G01*
X049646Y022441D02*
G03*
X049646Y022441I-00004J0D01*
G01*
X049056Y040157D02*
G03*
X049056Y040157I-00004J0D01*
G01*
Y028346D02*
G03*
X049056Y028346I-00004J0D01*
G01*
Y023622D02*
G03*
X049056Y023622I-00004J0D01*
G01*
X048465Y022441D02*
G03*
X048465Y022441I-00004J0D01*
G01*
X047875Y040157D02*
G03*
X047875Y040157I-00004J0D01*
G01*
X047284Y022441D02*
G03*
X047284Y022441I-00004J0D01*
G01*
X046103Y041339D02*
G03*
X046103Y041339I-00004J0D01*
G01*
X046694Y040157D02*
G03*
X046694Y040157I-00004J0D01*
G01*
X046103Y03189D02*
G03*
X046103Y03189I-00004J0D01*
G01*
Y029528D02*
G03*
X046103Y029528I-00004J0D01*
G01*
X046694Y023622D02*
G03*
X046694Y023622I-00004J0D01*
G01*
X045512Y040157D02*
G03*
X045512Y040157I-00004J0D01*
G01*
X044922Y03189D02*
G03*
X044922Y03189I-00004J0D01*
G01*
X045512Y030709D02*
G03*
X045512Y030709I-00004J0D01*
G01*
X044922Y029528D02*
G03*
X044922Y029528I-00004J0D01*
G01*
Y022441D02*
G03*
X044922Y022441I-00004J0D01*
G01*
X043741Y041339D02*
G03*
X043741Y041339I-00004J0D01*
G01*
X044331Y040157D02*
G03*
X044331Y040157I-00004J0D01*
G01*
X043741Y03189D02*
G03*
X043741Y03189I-00004J0D01*
G01*
X044331Y030709D02*
G03*
X044331Y030709I-00004J0D01*
G01*
X043741Y029528D02*
G03*
X043741Y029528I-00004J0D01*
G01*
Y022441D02*
G03*
X043741Y022441I-00004J0D01*
G01*
X04315Y040157D02*
G03*
X04315Y040157I-00004J0D01*
G01*
X04256Y03189D02*
G03*
X04256Y03189I-00004J0D01*
G01*
X04315Y030709D02*
G03*
X04315Y030709I-00004J0D01*
G01*
X04256Y022441D02*
G03*
X04256Y022441I-00004J0D01*
G01*
X041969Y040157D02*
G03*
X041969Y040157I-00004J0D01*
G01*
X041379Y022441D02*
G03*
X041379Y022441I-00004J0D01*
G01*
X040788Y040157D02*
G03*
X040788Y040157I-00004J0D01*
G01*
X040197Y024803D02*
G03*
X040197Y024803I-00004J0D01*
G01*
Y022441D02*
G03*
X040197Y022441I-00004J0D01*
G01*
X039607Y040157D02*
G03*
X039607Y040157I-00004J0D01*
G01*
X039016Y03189D02*
G03*
X039016Y03189I-00004J0D01*
G01*
Y022441D02*
G03*
X039016Y022441I-00004J0D01*
G01*
X038426Y040157D02*
G03*
X038426Y040157I-00004J0D01*
G01*
X037835Y034252D02*
G03*
X037835Y034252I-00004J0D01*
G01*
Y029528D02*
G03*
X037835Y029528I-00004J0D01*
G01*
X038426Y028346D02*
G03*
X038426Y028346I-00004J0D01*
G01*
X037835Y024803D02*
G03*
X037835Y024803I-00004J0D01*
G01*
Y022441D02*
G03*
X037835Y022441I-00004J0D01*
G01*
X037245Y040157D02*
G03*
X037245Y040157I-00004J0D01*
G01*
X036654Y034252D02*
G03*
X036654Y034252I-00004J0D01*
G01*
X037245Y033071D02*
G03*
X037245Y033071I-00004J0D01*
G01*
X036654Y03189D02*
G03*
X036654Y03189I-00004J0D01*
G01*
Y029528D02*
G03*
X036654Y029528I-00004J0D01*
G01*
Y022441D02*
G03*
X036654Y022441I-00004J0D01*
G01*
X036064Y040157D02*
G03*
X036064Y040157I-00004J0D01*
G01*
X035473Y034252D02*
G03*
X035473Y034252I-00004J0D01*
G01*
X036064Y033071D02*
G03*
X036064Y033071I-00004J0D01*
G01*
X035473Y03189D02*
G03*
X035473Y03189I-00004J0D01*
G01*
Y024803D02*
G03*
X035473Y024803I-00004J0D01*
G01*
Y022441D02*
G03*
X035473Y022441I-00004J0D01*
G01*
Y020079D02*
G03*
X035473Y020079I-00004J0D01*
G01*
X034883Y04252D02*
G03*
X034883Y04252I-00004J0D01*
G01*
Y040157D02*
G03*
X034883Y040157I-00004J0D01*
G01*
X034292Y034252D02*
G03*
X034292Y034252I-00004J0D01*
G01*
X034883Y033071D02*
G03*
X034883Y033071I-00004J0D01*
G01*
X034292Y03189D02*
G03*
X034292Y03189I-00004J0D01*
G01*
X034883Y030709D02*
G03*
X034883Y030709I-00004J0D01*
G01*
Y028346D02*
G03*
X034883Y028346I-00004J0D01*
G01*
X034292Y022441D02*
G03*
X034292Y022441I-00004J0D01*
G01*
X033701Y044882D02*
G03*
X033701Y044882I-00004J0D01*
G01*
Y040157D02*
G03*
X033701Y040157I-00004J0D01*
G01*
X033111Y034252D02*
G03*
X033111Y034252I-00004J0D01*
G01*
X033701Y033071D02*
G03*
X033701Y033071I-00004J0D01*
G01*
Y028346D02*
G03*
X033701Y028346I-00004J0D01*
G01*
X033111Y024803D02*
G03*
X033111Y024803I-00004J0D01*
G01*
Y022441D02*
G03*
X033111Y022441I-00004J0D01*
G01*
Y020079D02*
G03*
X033111Y020079I-00004J0D01*
G01*
X03252Y040157D02*
G03*
X03252Y040157I-00004J0D01*
G01*
X03193Y034252D02*
G03*
X03193Y034252I-00004J0D01*
G01*
X03252Y033071D02*
G03*
X03252Y033071I-00004J0D01*
G01*
X03193Y03189D02*
G03*
X03193Y03189I-00004J0D01*
G01*
Y029528D02*
G03*
X03193Y029528I-00004J0D01*
G01*
X03252Y028346D02*
G03*
X03252Y028346I-00004J0D01*
G01*
X03193Y024803D02*
G03*
X03193Y024803I-00004J0D01*
G01*
X03252Y023622D02*
G03*
X03252Y023622I-00004J0D01*
G01*
X03193Y022441D02*
G03*
X03193Y022441I-00004J0D01*
G01*
Y020079D02*
G03*
X03193Y020079I-00004J0D01*
G01*
X03252Y018898D02*
G03*
X03252Y018898I-00004J0D01*
G01*
X03193Y017717D02*
G03*
X03193Y017717I-00004J0D01*
G01*
X031339Y044882D02*
G03*
X031339Y044882I-00004J0D01*
G01*
X030749Y043701D02*
G03*
X030749Y043701I-00004J0D01*
G01*
X031339Y040157D02*
G03*
X031339Y040157I-00004J0D01*
G01*
Y035433D02*
G03*
X031339Y035433I-00004J0D01*
G01*
X030749Y034252D02*
G03*
X030749Y034252I-00004J0D01*
G01*
X031339Y033071D02*
G03*
X031339Y033071I-00004J0D01*
G01*
X030749Y03189D02*
G03*
X030749Y03189I-00004J0D01*
G01*
X031339Y030709D02*
G03*
X031339Y030709I-00004J0D01*
G01*
X030749Y029528D02*
G03*
X030749Y029528I-00004J0D01*
G01*
X031339Y028346D02*
G03*
X031339Y028346I-00004J0D01*
G01*
Y023622D02*
G03*
X031339Y023622I-00004J0D01*
G01*
X030749Y022441D02*
G03*
X030749Y022441I-00004J0D01*
G01*
X031339Y016535D02*
G03*
X031339Y016535I-00004J0D01*
G01*
X029568Y043701D02*
G03*
X029568Y043701I-00004J0D01*
G01*
X030158Y04252D02*
G03*
X030158Y04252I-00004J0D01*
G01*
X029568Y041339D02*
G03*
X029568Y041339I-00004J0D01*
G01*
X030158Y040157D02*
G03*
X030158Y040157I-00004J0D01*
G01*
Y037795D02*
G03*
X030158Y037795I-00004J0D01*
G01*
Y035433D02*
G03*
X030158Y035433I-00004J0D01*
G01*
X029568Y034252D02*
G03*
X029568Y034252I-00004J0D01*
G01*
X030158Y033071D02*
G03*
X030158Y033071I-00004J0D01*
G01*
X029568Y03189D02*
G03*
X029568Y03189I-00004J0D01*
G01*
X030158Y030709D02*
G03*
X030158Y030709I-00004J0D01*
G01*
X029568Y029528D02*
G03*
X029568Y029528I-00004J0D01*
G01*
X030158Y028346D02*
G03*
X030158Y028346I-00004J0D01*
G01*
X029568Y022441D02*
G03*
X029568Y022441I-00004J0D01*
G01*
Y015354D02*
G03*
X029568Y015354I-00004J0D01*
G01*
Y012992D02*
G03*
X029568Y012992I-00004J0D01*
G01*
X028977Y044882D02*
G03*
X028977Y044882I-00004J0D01*
G01*
Y04252D02*
G03*
X028977Y04252I-00004J0D01*
G01*
X028386Y041339D02*
G03*
X028386Y041339I-00004J0D01*
G01*
X028977Y040157D02*
G03*
X028977Y040157I-00004J0D01*
G01*
Y037795D02*
G03*
X028977Y037795I-00004J0D01*
G01*
Y033071D02*
G03*
X028977Y033071I-00004J0D01*
G01*
X028386Y03189D02*
G03*
X028386Y03189I-00004J0D01*
G01*
X028977Y030709D02*
G03*
X028977Y030709I-00004J0D01*
G01*
X028386Y022441D02*
G03*
X028386Y022441I-00004J0D01*
G01*
X028977Y014173D02*
G03*
X028977Y014173I-00004J0D01*
G01*
X028386Y012992D02*
G03*
X028386Y012992I-00004J0D01*
G01*
X027796Y044882D02*
G03*
X027796Y044882I-00004J0D01*
G01*
Y04252D02*
G03*
X027796Y04252I-00004J0D01*
G01*
Y040157D02*
G03*
X027796Y040157I-00004J0D01*
G01*
Y037795D02*
G03*
X027796Y037795I-00004J0D01*
G01*
Y033071D02*
G03*
X027796Y033071I-00004J0D01*
G01*
Y030709D02*
G03*
X027796Y030709I-00004J0D01*
G01*
X027205Y029528D02*
G03*
X027205Y029528I-00004J0D01*
G01*
X027796Y025984D02*
G03*
X027796Y025984I-00004J0D01*
G01*
X027205Y022441D02*
G03*
X027205Y022441I-00004J0D01*
G01*
Y020079D02*
G03*
X027205Y020079I-00004J0D01*
G01*
Y012992D02*
G03*
X027205Y012992I-00004J0D01*
G01*
X026615Y044882D02*
G03*
X026615Y044882I-00004J0D01*
G01*
Y04252D02*
G03*
X026615Y04252I-00004J0D01*
G01*
Y040157D02*
G03*
X026615Y040157I-00004J0D01*
G01*
Y030709D02*
G03*
X026615Y030709I-00004J0D01*
G01*
X026024Y029528D02*
G03*
X026024Y029528I-00004J0D01*
G01*
X026615Y028346D02*
G03*
X026615Y028346I-00004J0D01*
G01*
X026024Y024803D02*
G03*
X026024Y024803I-00004J0D01*
G01*
Y022441D02*
G03*
X026024Y022441I-00004J0D01*
G01*
X026615Y016535D02*
G03*
X026615Y016535I-00004J0D01*
G01*
X026024Y012992D02*
G03*
X026024Y012992I-00004J0D01*
G01*
X025434Y044882D02*
G03*
X025434Y044882I-00004J0D01*
G01*
Y04252D02*
G03*
X025434Y04252I-00004J0D01*
G01*
Y040157D02*
G03*
X025434Y040157I-00004J0D01*
G01*
X024843Y038976D02*
G03*
X024843Y038976I-00004J0D01*
G01*
X025434Y037795D02*
G03*
X025434Y037795I-00004J0D01*
G01*
Y035433D02*
G03*
X025434Y035433I-00004J0D01*
G01*
X024843Y034252D02*
G03*
X024843Y034252I-00004J0D01*
G01*
X025434Y033071D02*
G03*
X025434Y033071I-00004J0D01*
G01*
Y028346D02*
G03*
X025434Y028346I-00004J0D01*
G01*
Y02126D02*
G03*
X025434Y02126I-00004J0D01*
G01*
X024843Y012992D02*
G03*
X024843Y012992I-00004J0D01*
G01*
X024253Y044882D02*
G03*
X024253Y044882I-00004J0D01*
G01*
Y04252D02*
G03*
X024253Y04252I-00004J0D01*
G01*
Y040157D02*
G03*
X024253Y040157I-00004J0D01*
G01*
X023662Y038976D02*
G03*
X023662Y038976I-00004J0D01*
G01*
X024253Y037795D02*
G03*
X024253Y037795I-00004J0D01*
G01*
X023662Y034252D02*
G03*
X023662Y034252I-00004J0D01*
G01*
X024253Y033071D02*
G03*
X024253Y033071I-00004J0D01*
G01*
Y030709D02*
G03*
X024253Y030709I-00004J0D01*
G01*
X023662Y015354D02*
G03*
X023662Y015354I-00004J0D01*
G01*
Y012992D02*
G03*
X023662Y012992I-00004J0D01*
G01*
X023071Y044882D02*
G03*
X023071Y044882I-00004J0D01*
G01*
Y04252D02*
G03*
X023071Y04252I-00004J0D01*
G01*
Y040157D02*
G03*
X023071Y040157I-00004J0D01*
G01*
X022481Y036614D02*
G03*
X022481Y036614I-00004J0D01*
G01*
Y034252D02*
G03*
X022481Y034252I-00004J0D01*
G01*
X023071Y030709D02*
G03*
X023071Y030709I-00004J0D01*
G01*
Y025984D02*
G03*
X023071Y025984I-00004J0D01*
G01*
X022481Y015354D02*
G03*
X022481Y015354I-00004J0D01*
G01*
X023071Y014173D02*
G03*
X023071Y014173I-00004J0D01*
G01*
X022481Y012992D02*
G03*
X022481Y012992I-00004J0D01*
G01*
X02189Y044882D02*
G03*
X02189Y044882I-00004J0D01*
G01*
Y04252D02*
G03*
X02189Y04252I-00004J0D01*
G01*
Y037795D02*
G03*
X02189Y037795I-00004J0D01*
G01*
X0213Y034252D02*
G03*
X0213Y034252I-00004J0D01*
G01*
X02189Y033071D02*
G03*
X02189Y033071I-00004J0D01*
G01*
X0213Y03189D02*
G03*
X0213Y03189I-00004J0D01*
G01*
X02189Y025984D02*
G03*
X02189Y025984I-00004J0D01*
G01*
X0213Y012992D02*
G03*
X0213Y012992I-00004J0D01*
G01*
X020709Y044882D02*
G03*
X020709Y044882I-00004J0D01*
G01*
Y04252D02*
G03*
X020709Y04252I-00004J0D01*
G01*
Y040157D02*
G03*
X020709Y040157I-00004J0D01*
G01*
X020119Y038976D02*
G03*
X020119Y038976I-00004J0D01*
G01*
X020709Y037795D02*
G03*
X020709Y037795I-00004J0D01*
G01*
Y035433D02*
G03*
X020709Y035433I-00004J0D01*
G01*
Y033071D02*
G03*
X020709Y033071I-00004J0D01*
G01*
X020119Y03189D02*
G03*
X020119Y03189I-00004J0D01*
G01*
X020709Y030709D02*
G03*
X020709Y030709I-00004J0D01*
G01*
Y025984D02*
G03*
X020709Y025984I-00004J0D01*
G01*
X020119Y015354D02*
G03*
X020119Y015354I-00004J0D01*
G01*
X019528Y044882D02*
G03*
X019528Y044882I-00004J0D01*
G01*
X018938Y038976D02*
G03*
X018938Y038976I-00004J0D01*
G01*
X019528Y030709D02*
G03*
X019528Y030709I-00004J0D01*
G01*
X018938Y029528D02*
G03*
X018938Y029528I-00004J0D01*
G01*
X019528Y025984D02*
G03*
X019528Y025984I-00004J0D01*
G01*
X018347Y04252D02*
G03*
X018347Y04252I-00004J0D01*
G01*
Y040157D02*
G03*
X018347Y040157I-00004J0D01*
G01*
X017757Y038976D02*
G03*
X017757Y038976I-00004J0D01*
G01*
X018347Y033071D02*
G03*
X018347Y033071I-00004J0D01*
G01*
X017757Y03189D02*
G03*
X017757Y03189I-00004J0D01*
G01*
X017166Y04252D02*
G03*
X017166Y04252I-00004J0D01*
G01*
Y040157D02*
G03*
X017166Y040157I-00004J0D01*
G01*
Y037795D02*
G03*
X017166Y037795I-00004J0D01*
G01*
Y035433D02*
G03*
X017166Y035433I-00004J0D01*
G01*
Y033071D02*
G03*
X017166Y033071I-00004J0D01*
G01*
Y030709D02*
G03*
X017166Y030709I-00004J0D01*
G01*
Y028346D02*
G03*
X017166Y028346I-00004J0D01*
G01*
M02*
