M48
;Layer_Color=9474304
;FILE_FORMAT=2:4
INCH,LZ
;TYPE=PLATED
T1F00S00C0.0100
T2F00S00C0.0120
T3F00S00C0.0197
T4F00S00C0.0350
T5F00S00C0.0354
T6F00S00C0.0390
T7F00S00C0.0433
T8F00S00C0.0500
T9F00S00C0.0551
T10F00S00C0.0709
T11F00S00C0.1283
%
T01
X045334Y026181
X045846Y025995
X055256Y03272
X057039Y03148
T02
X048816Y018467
X048801Y019617
X05113Y019593
X051137Y018547
X04942Y027402
X048563Y030683
X04889Y031063
X055278Y029657
X054667Y026579
X058231Y027169
X058517Y030297
X046629Y028582
X042621Y02828
X042331Y027998
X042027Y028607
X042365Y029402
X042Y030547
X039568Y030013
X039628Y029258
X039475Y031153
X036347Y029717
X038582Y026331
X04039Y026918
X042455Y026371
X043034Y026335
X041919Y01955
Y018479
X0442Y01847
X044273Y01948
X04661Y01955
X046601Y018543
X039549Y018525
Y019523
X037293Y019503
Y01855
X034952Y018508
X035092Y019492
X031383Y023079
X031434Y024424
X026708Y019802
X027069Y018253
X026405Y016369
X025723Y016472
X024985Y019471
X018454Y024372
X017681Y024378
X022417Y029978
X025111Y031461
X024667Y034713
X024836Y035544
X022278Y041208
X03452Y033633
X038647Y033201
X039822Y033205
X040148Y035751
X046802Y032662
X046888Y031398
T03
X042913Y029528
X043701
X044488
X045276
X046063
X045669Y030315
X044882
X044095
X043307
X043701Y031102
X044488
X045276
X046063
X042913
X019218Y029361
X018843Y028968
X019804Y034815
X01979Y035401
X019794Y035903
X020377Y035917
X020395Y035335
X020409Y034781
X020987Y034779
X021511Y034834
X021031Y035374
X020427Y036596
X020386Y037076
X020377Y037492
X019773Y037498
X019794Y037076
X019793Y03657
X021893Y036914
X021886Y037502
X022348Y037513
X022346Y036705
X022346Y036114
X042913Y032677
X043701
X044488
X045276
X046063
X045669Y03189
X044882
X044095
X043307
T04
X024705Y013839
X025795
X026886
X027976
X028522Y014957
X027431
X026341
X02525
X024159
T05
X018978Y031461
Y032839
X022807
Y031461
X019357Y039654
Y041654
T06
X03392Y0148
X036375
X038792
X041208
X043624
X04604
X048457
X050873
X053289
Y0158
Y0168
X050873
Y0158
X048457
Y0168
X04604
Y0158
X043624
Y0168
X041208
Y0158
X038792
Y0168
X036375
Y0158
X03392
Y0168
T07
X048643Y033948
X049643
X050643
X051643
T08
X030408Y029309
X030406Y032303
X026843Y039402
Y041402
T09
X0341Y01255
X0361
X0381
X0401
X0421
X0442
X0462
X0482
X0502
X0522
X061822Y018954
Y020959
Y022959
Y025059
Y027054
Y027059
Y029059
Y031059
X028551Y044022
X026551
X047681Y043992
X049681
X051681
X053681
X055681
X061822Y037159
Y035159
Y033154
T10
X031645Y043994
X033645
X035645
X037645
X039645
X041645
X043645
X045645
T11
X021421Y014398
X03126
M30
