G04*
G04 #@! TF.GenerationSoftware,Altium Limited,Altium Designer,21.3.2 (30)*
G04*
G04 Layer_Color=128*
%FSTAX24Y24*%
%MOIN*%
G70*
G04*
G04 #@! TF.SameCoordinates,BE8E01B3-19C9-4167-8173-06ED14820A8A*
G04*
G04*
G04 #@! TF.FilePolarity,Positive*
G04*
G01*
G75*
%ADD111C,0.0020*%
D111*
X033222Y030812D02*
X033502D01*
X033362Y030672D02*
Y030952D01*
X032222Y030812D02*
X032502D01*
X032362Y030672D02*
Y030952D01*
X051426Y033948D02*
X05186D01*
X051643Y033731D02*
Y034165D01*
X050426Y033948D02*
X05086D01*
X050643Y033731D02*
Y034165D01*
X049426Y033948D02*
X04986D01*
X049643Y033731D02*
Y034165D01*
X048426Y033948D02*
X04886D01*
X048643Y033731D02*
Y034165D01*
X032113Y025576D02*
X032547D01*
X03233Y025359D02*
Y025793D01*
X031113Y025576D02*
X031547D01*
X03133Y025359D02*
Y025793D01*
X030113Y025576D02*
X030547D01*
X03033Y025359D02*
Y025793D01*
X029113Y025576D02*
X029547D01*
X02933Y025359D02*
Y025793D01*
X061547Y025059D02*
X062098D01*
X061822Y024784D02*
Y025335D01*
X061547Y027059D02*
X062098D01*
X061822Y026784D02*
Y027335D01*
X061547Y031059D02*
X062098D01*
X061822Y030784D02*
Y031335D01*
X061547Y029059D02*
X062098D01*
X061822Y028784D02*
Y029335D01*
X061547Y027054D02*
X062098D01*
X061822Y026779D02*
Y02733D01*
X061547Y031059D02*
X062098D01*
X061822Y030784D02*
Y031335D01*
X061547Y029059D02*
X062098D01*
X061822Y028784D02*
Y029335D01*
X037291Y043994D02*
X037999D01*
X037645Y04364D02*
Y044349D01*
X035291Y043994D02*
X035999D01*
X035645Y04364D02*
Y044349D01*
X031291Y043994D02*
X031999D01*
X031645Y04364D02*
Y044349D01*
X033291Y043994D02*
X033999D01*
X033645Y04364D02*
Y044349D01*
X041291Y043994D02*
X041999D01*
X041645Y04364D02*
Y044349D01*
X039291Y043994D02*
X039999D01*
X039645Y04364D02*
Y044349D01*
X043291Y043994D02*
X043999D01*
X043645Y04364D02*
Y044349D01*
X045291Y043994D02*
X045999D01*
X045645Y04364D02*
Y044349D01*
X045924Y01255D02*
X046476D01*
X0462Y012274D02*
Y012826D01*
X047924Y01255D02*
X048476D01*
X0482Y012274D02*
Y012826D01*
X051924Y01255D02*
X052476D01*
X0522Y012274D02*
Y012826D01*
X049924Y01255D02*
X050476D01*
X0502Y012274D02*
Y012826D01*
X043924Y01255D02*
X044476D01*
X0442Y012274D02*
Y012826D01*
X033725Y0148D02*
X034115D01*
X03392Y014605D02*
Y014995D01*
X033725Y0158D02*
X034115D01*
X03392Y015605D02*
Y015995D01*
X033725Y0168D02*
X034115D01*
X03392Y016605D02*
Y016995D01*
X03618Y0148D02*
X03657D01*
X036375Y014605D02*
Y014995D01*
X03618Y0158D02*
X03657D01*
X036375Y015605D02*
Y015995D01*
X03618Y0168D02*
X03657D01*
X036375Y016605D02*
Y016995D01*
X038597Y0148D02*
X038987D01*
X038792Y014605D02*
Y014995D01*
X038597Y0158D02*
X038987D01*
X038792Y015605D02*
Y015995D01*
X038597Y0168D02*
X038987D01*
X038792Y016605D02*
Y016995D01*
X041013Y0148D02*
X041403D01*
X041208Y014605D02*
Y014995D01*
X041013Y0158D02*
X041403D01*
X041208Y015605D02*
Y015995D01*
X041013Y0168D02*
X041403D01*
X041208Y016605D02*
Y016995D01*
X043429Y0168D02*
X043819D01*
X043624Y016605D02*
Y016995D01*
X043429Y0158D02*
X043819D01*
X043624Y015605D02*
Y015995D01*
X043429Y0148D02*
X043819D01*
X043624Y014605D02*
Y014995D01*
X045845Y0148D02*
X046235D01*
X04604Y014605D02*
Y014995D01*
X045845Y0158D02*
X046235D01*
X04604Y015605D02*
Y015995D01*
X045845Y0168D02*
X046235D01*
X04604Y016605D02*
Y016995D01*
X048261Y0148D02*
X048651D01*
X048457Y014605D02*
Y014995D01*
X048261Y0158D02*
X048651D01*
X048457Y015605D02*
Y015995D01*
X048261Y0168D02*
X048651D01*
X048457Y016605D02*
Y016995D01*
X050678Y0148D02*
X051068D01*
X050873Y014605D02*
Y014995D01*
X050678Y0158D02*
X051068D01*
X050873Y015605D02*
Y015995D01*
X050678Y0168D02*
X051068D01*
X050873Y016605D02*
Y016995D01*
X053094Y0148D02*
X053484D01*
X053289Y014605D02*
Y014995D01*
X053094Y0158D02*
X053484D01*
X053289Y015605D02*
Y015995D01*
X053094Y0168D02*
X053484D01*
X053289Y016605D02*
Y016995D01*
X061547Y035159D02*
X062098D01*
X061822Y034884D02*
Y035435D01*
X061547Y037159D02*
X062098D01*
X061822Y036884D02*
Y037435D01*
X061547Y033154D02*
X062098D01*
X061822Y032879D02*
Y03343D01*
X061547Y020959D02*
X062098D01*
X061822Y020684D02*
Y021235D01*
X061547Y022959D02*
X062098D01*
X061822Y022684D02*
Y023235D01*
X061547Y018954D02*
X062098D01*
X061822Y018679D02*
Y01923D01*
X033824Y01255D02*
X034376D01*
X0341Y012274D02*
Y012826D01*
X039824Y01255D02*
X040376D01*
X0401Y012274D02*
Y012826D01*
X041824Y01255D02*
X042376D01*
X0421Y012274D02*
Y012826D01*
X037824Y01255D02*
X038376D01*
X0381Y012274D02*
Y012826D01*
X035824Y01255D02*
X036376D01*
X0361Y012274D02*
Y012826D01*
X02562Y013839D02*
X02597D01*
X025795Y013664D02*
Y014014D01*
X02078Y014398D02*
X022063D01*
X021421Y013756D02*
Y015039D01*
X030618Y014398D02*
X031902D01*
X03126Y013756D02*
Y015039D01*
X027801Y013839D02*
X028151D01*
X027976Y013664D02*
Y014014D01*
X027256Y014957D02*
X027606D01*
X027431Y014782D02*
Y015132D01*
X026711Y013839D02*
X027061D01*
X026886Y013664D02*
Y014014D01*
X026166Y014957D02*
X026516D01*
X026341Y014782D02*
Y015132D01*
X025075Y014957D02*
X025425D01*
X02525Y014782D02*
Y015132D01*
X02453Y013839D02*
X02488D01*
X024705Y013664D02*
Y014014D01*
X023984Y014957D02*
X024334D01*
X024159Y014782D02*
Y015132D01*
X028347Y014957D02*
X028697D01*
X028522Y014782D02*
Y015132D01*
X055406Y043992D02*
X055957D01*
X055681Y043717D02*
Y044268D01*
X049406Y043992D02*
X049957D01*
X049681Y043717D02*
Y044268D01*
X047406Y043992D02*
X047957D01*
X047681Y043717D02*
Y044268D01*
X051406Y043992D02*
X051957D01*
X051681Y043717D02*
Y044268D01*
X053406Y043992D02*
X053957D01*
X053681Y043717D02*
Y044268D01*
X028276Y044022D02*
X028827D01*
X028551Y043746D02*
Y044298D01*
X026276Y044022D02*
X026827D01*
X026551Y043746D02*
Y044298D01*
X02263Y031461D02*
X022984D01*
X022807Y031283D02*
Y031638D01*
X02263Y032839D02*
X022984D01*
X022807Y032661D02*
Y033016D01*
X01918Y041654D02*
X019534D01*
X019357Y041476D02*
Y041831D01*
X01918Y039654D02*
X019534D01*
X019357Y039476D02*
Y039831D01*
X018801Y032839D02*
X019155D01*
X018978Y032661D02*
Y033016D01*
X018801Y031461D02*
X019155D01*
X018978Y031283D02*
Y031638D01*
X026593Y039402D02*
X027093D01*
X026843Y039152D02*
Y039652D01*
X026593Y041402D02*
X027093D01*
X026843Y041152D02*
Y041652D01*
X061319Y038976D02*
X061516D01*
X061417Y038878D02*
Y039075D01*
X061909Y037795D02*
X062106D01*
X062008Y037697D02*
Y037894D01*
X061319Y03189D02*
X061516D01*
X061417Y031791D02*
Y031988D01*
X061909Y028346D02*
X062106D01*
X062008Y028248D02*
Y028445D01*
X061909Y025984D02*
X062106D01*
X062008Y025886D02*
Y026083D01*
X061909Y023622D02*
X062106D01*
X062008Y023524D02*
Y02372D01*
X061319Y020079D02*
X061516D01*
X061417Y01998D02*
Y020177D01*
X061319Y017717D02*
X061516D01*
X061417Y017618D02*
Y017815D01*
X060138Y041339D02*
X060335D01*
X060236Y04124D02*
Y041437D01*
X060728Y040157D02*
X060925D01*
X060827Y040059D02*
Y040256D01*
X060138Y038976D02*
X060335D01*
X060236Y038878D02*
Y039075D01*
X060728Y037795D02*
X060925D01*
X060827Y037697D02*
Y037894D01*
X060138Y036614D02*
X060335D01*
X060236Y036516D02*
Y036713D01*
X060728Y033071D02*
X060925D01*
X060827Y032972D02*
Y033169D01*
X060138Y027165D02*
X060335D01*
X060236Y027067D02*
Y027264D01*
X060728Y025984D02*
X060925D01*
X060827Y025886D02*
Y026083D01*
X060138Y024803D02*
X060335D01*
X060236Y024705D02*
Y024902D01*
X060728Y023622D02*
X060925D01*
X060827Y023524D02*
Y02372D01*
X060138Y020079D02*
X060335D01*
X060236Y01998D02*
Y020177D01*
X060138Y017717D02*
X060335D01*
X060236Y017618D02*
Y017815D01*
X058957Y041339D02*
X059154D01*
X059055Y04124D02*
Y041437D01*
X059547Y040157D02*
X059744D01*
X059646Y040059D02*
Y040256D01*
X058957Y038976D02*
X059154D01*
X059055Y038878D02*
Y039075D01*
X059547Y037795D02*
X059744D01*
X059646Y037697D02*
Y037894D01*
X058957Y036614D02*
X059154D01*
X059055Y036516D02*
Y036713D01*
X058957Y03189D02*
X059154D01*
X059055Y031791D02*
Y031988D01*
X058957Y027165D02*
X059154D01*
X059055Y027067D02*
Y027264D01*
X059547Y025984D02*
X059744D01*
X059646Y025886D02*
Y026083D01*
X058957Y024803D02*
X059154D01*
X059055Y024705D02*
Y024902D01*
X059547Y02126D02*
X059744D01*
X059646Y021161D02*
Y021358D01*
X058957Y020079D02*
X059154D01*
X059055Y01998D02*
Y020177D01*
X058957Y017717D02*
X059154D01*
X059055Y017618D02*
Y017815D01*
X058366Y04252D02*
X058563D01*
X058465Y042421D02*
Y042618D01*
X057776Y041339D02*
X057972D01*
X057874Y04124D02*
Y041437D01*
X058366Y040157D02*
X058563D01*
X058465Y040059D02*
Y040256D01*
X057776Y036614D02*
X057972D01*
X057874Y036516D02*
Y036713D01*
X058366Y02126D02*
X058563D01*
X058465Y021161D02*
Y021358D01*
X057776Y017717D02*
X057972D01*
X057874Y017618D02*
Y017815D01*
X057185Y04252D02*
X057382D01*
X057283Y042421D02*
Y042618D01*
X057185Y040157D02*
X057382D01*
X057283Y040059D02*
Y040256D01*
X057185Y035433D02*
X057382D01*
X057283Y035335D02*
Y035531D01*
X057185Y033071D02*
X057382D01*
X057283Y032972D02*
Y033169D01*
X056594Y03189D02*
X056791D01*
X056693Y031791D02*
Y031988D01*
X057185Y030709D02*
X057382D01*
X057283Y03061D02*
Y030807D01*
X057185Y028346D02*
X057382D01*
X057283Y028248D02*
Y028445D01*
X057185Y025984D02*
X057382D01*
X057283Y025886D02*
Y026083D01*
X056594Y024803D02*
X056791D01*
X056693Y024705D02*
Y024902D01*
X057185Y02126D02*
X057382D01*
X057283Y021161D02*
Y021358D01*
X056594Y020079D02*
X056791D01*
X056693Y01998D02*
Y020177D01*
X056594Y017717D02*
X056791D01*
X056693Y017618D02*
Y017815D01*
X056004Y040157D02*
X056201D01*
X056102Y040059D02*
Y040256D01*
X056004Y035433D02*
X056201D01*
X056102Y035335D02*
Y035531D01*
X055413Y03189D02*
X05561D01*
X055512Y031791D02*
Y031988D01*
X056004Y030709D02*
X056201D01*
X056102Y03061D02*
Y030807D01*
X056004Y02126D02*
X056201D01*
X056102Y021161D02*
Y021358D01*
X055413Y017717D02*
X05561D01*
X055512Y017618D02*
Y017815D01*
X054823Y044882D02*
X05502D01*
X054921Y044783D02*
Y04498D01*
X054823Y040157D02*
X05502D01*
X054921Y040059D02*
Y040256D01*
X054823Y035433D02*
X05502D01*
X054921Y035335D02*
Y035531D01*
X054823Y030709D02*
X05502D01*
X054921Y03061D02*
Y030807D01*
X054823Y025984D02*
X05502D01*
X054921Y025886D02*
Y026083D01*
X054232Y024803D02*
X054429D01*
X054331Y024705D02*
Y024902D01*
X054232Y022441D02*
X054429D01*
X054331Y022343D02*
Y022539D01*
X053642Y044882D02*
X053839D01*
X05374Y044783D02*
Y04498D01*
X053642Y040157D02*
X053839D01*
X05374Y040059D02*
Y040256D01*
X053051Y034252D02*
X053248D01*
X05315Y034154D02*
Y03435D01*
X053642Y033071D02*
X053839D01*
X05374Y032972D02*
Y033169D01*
X053051Y03189D02*
X053248D01*
X05315Y031791D02*
Y031988D01*
X053642Y030709D02*
X053839D01*
X05374Y03061D02*
Y030807D01*
X053642Y025984D02*
X053839D01*
X05374Y025886D02*
Y026083D01*
X053642Y023622D02*
X053839D01*
X05374Y023524D02*
Y02372D01*
X053051Y022441D02*
X053248D01*
X05315Y022343D02*
Y022539D01*
X052461Y040157D02*
X052657D01*
X052559Y040059D02*
Y040256D01*
X052461Y033071D02*
X052657D01*
X052559Y032972D02*
Y033169D01*
X05187Y03189D02*
X052067D01*
X051968Y031791D02*
Y031988D01*
X052461Y030709D02*
X052657D01*
X052559Y03061D02*
Y030807D01*
X052461Y028346D02*
X052657D01*
X052559Y028248D02*
Y028445D01*
X052461Y025984D02*
X052657D01*
X052559Y025886D02*
Y026083D01*
X05187Y022441D02*
X052067D01*
X051968Y022343D02*
Y022539D01*
X05128Y040157D02*
X051476D01*
X051378Y040059D02*
Y040256D01*
X05128Y033071D02*
X051476D01*
X051378Y032972D02*
Y033169D01*
X05128Y028346D02*
X051476D01*
X051378Y028248D02*
Y028445D01*
X05128Y023622D02*
X051476D01*
X051378Y023524D02*
Y02372D01*
X050689Y022441D02*
X050886D01*
X050787Y022343D02*
Y022539D01*
X050098Y040157D02*
X050295D01*
X050197Y040059D02*
Y040256D01*
X050098Y033071D02*
X050295D01*
X050197Y032972D02*
Y033169D01*
X050098Y030709D02*
X050295D01*
X050197Y03061D02*
Y030807D01*
X050098Y028346D02*
X050295D01*
X050197Y028248D02*
Y028445D01*
X049508Y022441D02*
X049705D01*
X049606Y022343D02*
Y022539D01*
X048917Y040157D02*
X049114D01*
X049016Y040059D02*
Y040256D01*
X048917Y028346D02*
X049114D01*
X049016Y028248D02*
Y028445D01*
X048917Y023622D02*
X049114D01*
X049016Y023524D02*
Y02372D01*
X048327Y022441D02*
X048524D01*
X048425Y022343D02*
Y022539D01*
X047736Y040157D02*
X047933D01*
X047835Y040059D02*
Y040256D01*
X047146Y022441D02*
X047343D01*
X047244Y022343D02*
Y022539D01*
X045965Y041339D02*
X046161D01*
X046063Y04124D02*
Y041437D01*
X046555Y040157D02*
X046752D01*
X046654Y040059D02*
Y040256D01*
X045965Y03189D02*
X046161D01*
X046063Y031791D02*
Y031988D01*
X045965Y029528D02*
X046161D01*
X046063Y029429D02*
Y029626D01*
X046555Y023622D02*
X046752D01*
X046654Y023524D02*
Y02372D01*
X045374Y040157D02*
X045571D01*
X045472Y040059D02*
Y040256D01*
X044783Y03189D02*
X04498D01*
X044882Y031791D02*
Y031988D01*
X045374Y030709D02*
X045571D01*
X045472Y03061D02*
Y030807D01*
X044783Y029528D02*
X04498D01*
X044882Y029429D02*
Y029626D01*
X044783Y022441D02*
X04498D01*
X044882Y022343D02*
Y022539D01*
X043602Y041339D02*
X043799D01*
X043701Y04124D02*
Y041437D01*
X044193Y040157D02*
X04439D01*
X044291Y040059D02*
Y040256D01*
X043602Y03189D02*
X043799D01*
X043701Y031791D02*
Y031988D01*
X044193Y030709D02*
X04439D01*
X044291Y03061D02*
Y030807D01*
X043602Y029528D02*
X043799D01*
X043701Y029429D02*
Y029626D01*
X043602Y022441D02*
X043799D01*
X043701Y022343D02*
Y022539D01*
X043012Y040157D02*
X043209D01*
X04311Y040059D02*
Y040256D01*
X042421Y03189D02*
X042618D01*
X04252Y031791D02*
Y031988D01*
X043012Y030709D02*
X043209D01*
X04311Y03061D02*
Y030807D01*
X042421Y022441D02*
X042618D01*
X04252Y022343D02*
Y022539D01*
X041831Y040157D02*
X042028D01*
X041929Y040059D02*
Y040256D01*
X04124Y022441D02*
X041437D01*
X041339Y022343D02*
Y022539D01*
X04065Y040157D02*
X040846D01*
X040748Y040059D02*
Y040256D01*
X040059Y024803D02*
X040256D01*
X040157Y024705D02*
Y024902D01*
X040059Y022441D02*
X040256D01*
X040157Y022343D02*
Y022539D01*
X039468Y040157D02*
X039665D01*
X039567Y040059D02*
Y040256D01*
X038878Y03189D02*
X039075D01*
X038976Y031791D02*
Y031988D01*
X038878Y022441D02*
X039075D01*
X038976Y022343D02*
Y022539D01*
X038287Y040157D02*
X038484D01*
X038386Y040059D02*
Y040256D01*
X037697Y034252D02*
X037894D01*
X037795Y034154D02*
Y03435D01*
X037697Y029528D02*
X037894D01*
X037795Y029429D02*
Y029626D01*
X038287Y028346D02*
X038484D01*
X038386Y028248D02*
Y028445D01*
X037697Y024803D02*
X037894D01*
X037795Y024705D02*
Y024902D01*
X037697Y022441D02*
X037894D01*
X037795Y022343D02*
Y022539D01*
X037106Y040157D02*
X037303D01*
X037205Y040059D02*
Y040256D01*
X036516Y034252D02*
X036713D01*
X036614Y034154D02*
Y03435D01*
X037106Y033071D02*
X037303D01*
X037205Y032972D02*
Y033169D01*
X036516Y03189D02*
X036713D01*
X036614Y031791D02*
Y031988D01*
X036516Y029528D02*
X036713D01*
X036614Y029429D02*
Y029626D01*
X036516Y022441D02*
X036713D01*
X036614Y022343D02*
Y022539D01*
X035925Y040157D02*
X036122D01*
X036024Y040059D02*
Y040256D01*
X035335Y034252D02*
X035531D01*
X035433Y034154D02*
Y03435D01*
X035925Y033071D02*
X036122D01*
X036024Y032972D02*
Y033169D01*
X035335Y03189D02*
X035531D01*
X035433Y031791D02*
Y031988D01*
X035335Y024803D02*
X035531D01*
X035433Y024705D02*
Y024902D01*
X035335Y022441D02*
X035531D01*
X035433Y022343D02*
Y022539D01*
X035335Y020079D02*
X035531D01*
X035433Y01998D02*
Y020177D01*
X034744Y04252D02*
X034941D01*
X034843Y042421D02*
Y042618D01*
X034744Y040157D02*
X034941D01*
X034843Y040059D02*
Y040256D01*
X034154Y034252D02*
X03435D01*
X034252Y034154D02*
Y03435D01*
X034744Y033071D02*
X034941D01*
X034843Y032972D02*
Y033169D01*
X034154Y03189D02*
X03435D01*
X034252Y031791D02*
Y031988D01*
X034744Y030709D02*
X034941D01*
X034843Y03061D02*
Y030807D01*
X034744Y028346D02*
X034941D01*
X034843Y028248D02*
Y028445D01*
X034154Y022441D02*
X03435D01*
X034252Y022343D02*
Y022539D01*
X033563Y044882D02*
X03376D01*
X033661Y044783D02*
Y04498D01*
X033563Y040157D02*
X03376D01*
X033661Y040059D02*
Y040256D01*
X032972Y034252D02*
X033169D01*
X033071Y034154D02*
Y03435D01*
X033563Y033071D02*
X03376D01*
X033661Y032972D02*
Y033169D01*
X033563Y028346D02*
X03376D01*
X033661Y028248D02*
Y028445D01*
X032972Y024803D02*
X033169D01*
X033071Y024705D02*
Y024902D01*
X032972Y022441D02*
X033169D01*
X033071Y022343D02*
Y022539D01*
X032972Y020079D02*
X033169D01*
X033071Y01998D02*
Y020177D01*
X032382Y040157D02*
X032579D01*
X03248Y040059D02*
Y040256D01*
X031791Y034252D02*
X031988D01*
X03189Y034154D02*
Y03435D01*
X032382Y033071D02*
X032579D01*
X03248Y032972D02*
Y033169D01*
X031791Y03189D02*
X031988D01*
X03189Y031791D02*
Y031988D01*
X031791Y029528D02*
X031988D01*
X03189Y029429D02*
Y029626D01*
X032382Y028346D02*
X032579D01*
X03248Y028248D02*
Y028445D01*
X031791Y024803D02*
X031988D01*
X03189Y024705D02*
Y024902D01*
X032382Y023622D02*
X032579D01*
X03248Y023524D02*
Y02372D01*
X031791Y022441D02*
X031988D01*
X03189Y022343D02*
Y022539D01*
X031791Y020079D02*
X031988D01*
X03189Y01998D02*
Y020177D01*
X032382Y018898D02*
X032579D01*
X03248Y018799D02*
Y018996D01*
X031791Y017717D02*
X031988D01*
X03189Y017618D02*
Y017815D01*
X031201Y044882D02*
X031398D01*
X031299Y044783D02*
Y04498D01*
X03061Y043701D02*
X030807D01*
X030709Y043602D02*
Y043799D01*
X031201Y040157D02*
X031398D01*
X031299Y040059D02*
Y040256D01*
X031201Y035433D02*
X031398D01*
X031299Y035335D02*
Y035531D01*
X03061Y034252D02*
X030807D01*
X030709Y034154D02*
Y03435D01*
X031201Y033071D02*
X031398D01*
X031299Y032972D02*
Y033169D01*
X03061Y03189D02*
X030807D01*
X030709Y031791D02*
Y031988D01*
X031201Y030709D02*
X031398D01*
X031299Y03061D02*
Y030807D01*
X03061Y029528D02*
X030807D01*
X030709Y029429D02*
Y029626D01*
X031201Y028346D02*
X031398D01*
X031299Y028248D02*
Y028445D01*
X031201Y023622D02*
X031398D01*
X031299Y023524D02*
Y02372D01*
X03061Y022441D02*
X030807D01*
X030709Y022343D02*
Y022539D01*
X031201Y016535D02*
X031398D01*
X031299Y016437D02*
Y016634D01*
X029429Y043701D02*
X029626D01*
X029528Y043602D02*
Y043799D01*
X03002Y04252D02*
X030217D01*
X030118Y042421D02*
Y042618D01*
X029429Y041339D02*
X029626D01*
X029528Y04124D02*
Y041437D01*
X03002Y040157D02*
X030217D01*
X030118Y040059D02*
Y040256D01*
X03002Y037795D02*
X030217D01*
X030118Y037697D02*
Y037894D01*
X03002Y035433D02*
X030217D01*
X030118Y035335D02*
Y035531D01*
X029429Y034252D02*
X029626D01*
X029528Y034154D02*
Y03435D01*
X03002Y033071D02*
X030217D01*
X030118Y032972D02*
Y033169D01*
X029429Y03189D02*
X029626D01*
X029528Y031791D02*
Y031988D01*
X03002Y030709D02*
X030217D01*
X030118Y03061D02*
Y030807D01*
X029429Y029528D02*
X029626D01*
X029528Y029429D02*
Y029626D01*
X03002Y028346D02*
X030217D01*
X030118Y028248D02*
Y028445D01*
X029429Y022441D02*
X029626D01*
X029528Y022343D02*
Y022539D01*
X029429Y015354D02*
X029626D01*
X029528Y015256D02*
Y015453D01*
X029429Y012992D02*
X029626D01*
X029528Y012894D02*
Y013091D01*
X028839Y044882D02*
X029035D01*
X028937Y044783D02*
Y04498D01*
X028839Y04252D02*
X029035D01*
X028937Y042421D02*
Y042618D01*
X028248Y041339D02*
X028445D01*
X028346Y04124D02*
Y041437D01*
X028839Y040157D02*
X029035D01*
X028937Y040059D02*
Y040256D01*
X028839Y037795D02*
X029035D01*
X028937Y037697D02*
Y037894D01*
X028839Y033071D02*
X029035D01*
X028937Y032972D02*
Y033169D01*
X028248Y03189D02*
X028445D01*
X028346Y031791D02*
Y031988D01*
X028839Y030709D02*
X029035D01*
X028937Y03061D02*
Y030807D01*
X028248Y022441D02*
X028445D01*
X028346Y022343D02*
Y022539D01*
X028839Y014173D02*
X029035D01*
X028937Y014075D02*
Y014272D01*
X028248Y012992D02*
X028445D01*
X028346Y012894D02*
Y013091D01*
X027657Y044882D02*
X027854D01*
X027756Y044783D02*
Y04498D01*
X027657Y04252D02*
X027854D01*
X027756Y042421D02*
Y042618D01*
X027657Y040157D02*
X027854D01*
X027756Y040059D02*
Y040256D01*
X027657Y037795D02*
X027854D01*
X027756Y037697D02*
Y037894D01*
X027657Y033071D02*
X027854D01*
X027756Y032972D02*
Y033169D01*
X027657Y030709D02*
X027854D01*
X027756Y03061D02*
Y030807D01*
X027067Y029528D02*
X027264D01*
X027165Y029429D02*
Y029626D01*
X027657Y025984D02*
X027854D01*
X027756Y025886D02*
Y026083D01*
X027067Y022441D02*
X027264D01*
X027165Y022343D02*
Y022539D01*
X027067Y020079D02*
X027264D01*
X027165Y01998D02*
Y020177D01*
X027067Y012992D02*
X027264D01*
X027165Y012894D02*
Y013091D01*
X026476Y044882D02*
X026673D01*
X026575Y044783D02*
Y04498D01*
X026476Y04252D02*
X026673D01*
X026575Y042421D02*
Y042618D01*
X026476Y040157D02*
X026673D01*
X026575Y040059D02*
Y040256D01*
X026476Y030709D02*
X026673D01*
X026575Y03061D02*
Y030807D01*
X025886Y029528D02*
X026083D01*
X025984Y029429D02*
Y029626D01*
X026476Y028346D02*
X026673D01*
X026575Y028248D02*
Y028445D01*
X025886Y024803D02*
X026083D01*
X025984Y024705D02*
Y024902D01*
X025886Y022441D02*
X026083D01*
X025984Y022343D02*
Y022539D01*
X026476Y016535D02*
X026673D01*
X026575Y016437D02*
Y016634D01*
X025886Y012992D02*
X026083D01*
X025984Y012894D02*
Y013091D01*
X025295Y044882D02*
X025492D01*
X025394Y044783D02*
Y04498D01*
X025295Y04252D02*
X025492D01*
X025394Y042421D02*
Y042618D01*
X025295Y040157D02*
X025492D01*
X025394Y040059D02*
Y040256D01*
X024705Y038976D02*
X024902D01*
X024803Y038878D02*
Y039075D01*
X025295Y037795D02*
X025492D01*
X025394Y037697D02*
Y037894D01*
X025295Y035433D02*
X025492D01*
X025394Y035335D02*
Y035531D01*
X024705Y034252D02*
X024902D01*
X024803Y034154D02*
Y03435D01*
X025295Y033071D02*
X025492D01*
X025394Y032972D02*
Y033169D01*
X025295Y028346D02*
X025492D01*
X025394Y028248D02*
Y028445D01*
X025295Y02126D02*
X025492D01*
X025394Y021161D02*
Y021358D01*
X024705Y012992D02*
X024902D01*
X024803Y012894D02*
Y013091D01*
X024114Y044882D02*
X024311D01*
X024213Y044783D02*
Y04498D01*
X024114Y04252D02*
X024311D01*
X024213Y042421D02*
Y042618D01*
X024114Y040157D02*
X024311D01*
X024213Y040059D02*
Y040256D01*
X023524Y038976D02*
X02372D01*
X023622Y038878D02*
Y039075D01*
X024114Y037795D02*
X024311D01*
X024213Y037697D02*
Y037894D01*
X023524Y034252D02*
X02372D01*
X023622Y034154D02*
Y03435D01*
X024114Y033071D02*
X024311D01*
X024213Y032972D02*
Y033169D01*
X024114Y030709D02*
X024311D01*
X024213Y03061D02*
Y030807D01*
X023524Y015354D02*
X02372D01*
X023622Y015256D02*
Y015453D01*
X023524Y012992D02*
X02372D01*
X023622Y012894D02*
Y013091D01*
X022933Y044882D02*
X02313D01*
X023031Y044783D02*
Y04498D01*
X022933Y04252D02*
X02313D01*
X023031Y042421D02*
Y042618D01*
X022933Y040157D02*
X02313D01*
X023031Y040059D02*
Y040256D01*
X022343Y036614D02*
X022539D01*
X022441Y036516D02*
Y036713D01*
X022343Y034252D02*
X022539D01*
X022441Y034154D02*
Y03435D01*
X022933Y030709D02*
X02313D01*
X023031Y03061D02*
Y030807D01*
X022933Y025984D02*
X02313D01*
X023031Y025886D02*
Y026083D01*
X022343Y015354D02*
X022539D01*
X022441Y015256D02*
Y015453D01*
X022933Y014173D02*
X02313D01*
X023031Y014075D02*
Y014272D01*
X022343Y012992D02*
X022539D01*
X022441Y012894D02*
Y013091D01*
X021752Y044882D02*
X021949D01*
X02185Y044783D02*
Y04498D01*
X021752Y04252D02*
X021949D01*
X02185Y042421D02*
Y042618D01*
X021752Y037795D02*
X021949D01*
X02185Y037697D02*
Y037894D01*
X021161Y034252D02*
X021358D01*
X02126Y034154D02*
Y03435D01*
X021752Y033071D02*
X021949D01*
X02185Y032972D02*
Y033169D01*
X021161Y03189D02*
X021358D01*
X02126Y031791D02*
Y031988D01*
X021752Y025984D02*
X021949D01*
X02185Y025886D02*
Y026083D01*
X021161Y012992D02*
X021358D01*
X02126Y012894D02*
Y013091D01*
X020571Y044882D02*
X020768D01*
X020669Y044783D02*
Y04498D01*
X020571Y04252D02*
X020768D01*
X020669Y042421D02*
Y042618D01*
X020571Y040157D02*
X020768D01*
X020669Y040059D02*
Y040256D01*
X01998Y038976D02*
X020177D01*
X020079Y038878D02*
Y039075D01*
X020571Y037795D02*
X020768D01*
X020669Y037697D02*
Y037894D01*
X020571Y035433D02*
X020768D01*
X020669Y035335D02*
Y035531D01*
X020571Y033071D02*
X020768D01*
X020669Y032972D02*
Y033169D01*
X01998Y03189D02*
X020177D01*
X020079Y031791D02*
Y031988D01*
X020571Y030709D02*
X020768D01*
X020669Y03061D02*
Y030807D01*
X020571Y025984D02*
X020768D01*
X020669Y025886D02*
Y026083D01*
X01998Y015354D02*
X020177D01*
X020079Y015256D02*
Y015453D01*
X01939Y044882D02*
X019587D01*
X019488Y044783D02*
Y04498D01*
X018799Y038976D02*
X018996D01*
X018898Y038878D02*
Y039075D01*
X01939Y030709D02*
X019587D01*
X019488Y03061D02*
Y030807D01*
X018799Y029528D02*
X018996D01*
X018898Y029429D02*
Y029626D01*
X01939Y025984D02*
X019587D01*
X019488Y025886D02*
Y026083D01*
X018209Y04252D02*
X018406D01*
X018307Y042421D02*
Y042618D01*
X018209Y040157D02*
X018406D01*
X018307Y040059D02*
Y040256D01*
X017618Y038976D02*
X017815D01*
X017717Y038878D02*
Y039075D01*
X018209Y033071D02*
X018406D01*
X018307Y032972D02*
Y033169D01*
X017618Y03189D02*
X017815D01*
X017717Y031791D02*
Y031988D01*
X017028Y04252D02*
X017224D01*
X017126Y042421D02*
Y042618D01*
X017028Y040157D02*
X017224D01*
X017126Y040059D02*
Y040256D01*
X017028Y037795D02*
X017224D01*
X017126Y037697D02*
Y037894D01*
X017028Y035433D02*
X017224D01*
X017126Y035335D02*
Y035531D01*
X017028Y033071D02*
X017224D01*
X017126Y032972D02*
Y033169D01*
X017028Y030709D02*
X017224D01*
X017126Y03061D02*
Y030807D01*
X017028Y028346D02*
X017224D01*
X017126Y028248D02*
Y028445D01*
X018394Y024372D02*
X018514D01*
X018454Y024312D02*
Y024432D01*
X016899Y017502D02*
X017019D01*
X016959Y017442D02*
Y017562D01*
X017621Y024378D02*
X017741D01*
X017681Y024318D02*
Y024438D01*
X025556Y016333D02*
X025676D01*
X025616Y016273D02*
Y016393D01*
X03768Y033604D02*
X0378D01*
X03774Y033544D02*
Y033664D01*
X033274Y033633D02*
X033394D01*
X033334Y033573D02*
Y033693D01*
X039065Y029242D02*
X039185D01*
X039125Y029182D02*
Y029302D01*
X039479Y030007D02*
X039599D01*
X039539Y029947D02*
Y030067D01*
X028122Y029999D02*
X028622D01*
X028372Y029749D02*
Y030249D01*
X02812Y032993D02*
X02862D01*
X02837Y032743D02*
Y033243D01*
X033694Y026892D02*
X033814D01*
X033754Y026832D02*
Y026952D01*
X026858Y018441D02*
X026978D01*
X026918Y018381D02*
Y018501D01*
X026862Y01606D02*
X026982D01*
X026922Y016D02*
Y01612D01*
X018361Y016424D02*
X018481D01*
X018421Y016364D02*
Y016484D01*
X027193Y025535D02*
X027313D01*
X027253Y025475D02*
Y025595D01*
X024925Y019471D02*
X025045D01*
X024985Y019411D02*
Y019531D01*
X026648Y019802D02*
X026768D01*
X026708Y019742D02*
Y019862D01*
X026053Y021573D02*
X026173D01*
X026113Y021513D02*
Y021633D01*
X058457Y030297D02*
X058577D01*
X058517Y030237D02*
Y030357D01*
X039488Y031009D02*
X039608D01*
X039548Y030949D02*
Y031069D01*
X05107Y019593D02*
X05119D01*
X05113Y019533D02*
Y019653D01*
X035032Y019492D02*
X035152D01*
X035092Y019432D02*
Y019552D01*
X034892Y018508D02*
X035012D01*
X034952Y018448D02*
Y018568D01*
X037233Y019503D02*
X037353D01*
X037293Y019443D02*
Y019563D01*
X037233Y01855D02*
X037353D01*
X037293Y01849D02*
Y01861D01*
X039489Y019523D02*
X039609D01*
X039549Y019463D02*
Y019583D01*
X039489Y018525D02*
X039609D01*
X039549Y018465D02*
Y018585D01*
X041859Y01955D02*
X041979D01*
X041919Y01949D02*
Y01961D01*
X041859Y018479D02*
X041979D01*
X041919Y018419D02*
Y018539D01*
X044213Y01948D02*
X044333D01*
X044273Y01942D02*
Y01954D01*
X04414Y01847D02*
X04426D01*
X0442Y01841D02*
Y01853D01*
X048741Y019617D02*
X048861D01*
X048801Y019557D02*
Y019677D01*
X046541Y018543D02*
X046661D01*
X046601Y018483D02*
Y018603D01*
X04655Y01955D02*
X04667D01*
X04661Y01949D02*
Y01961D01*
X048756Y018467D02*
X048876D01*
X048816Y018407D02*
Y018527D01*
X051077Y018547D02*
X051197D01*
X051137Y018487D02*
Y018607D01*
X024607Y034713D02*
X024727D01*
X024667Y034653D02*
Y034773D01*
X022357Y029978D02*
X022477D01*
X022417Y029918D02*
Y030038D01*
X025051Y031461D02*
X025171D01*
X025111Y031401D02*
Y031521D01*
X036287Y029717D02*
X036407D01*
X036347Y029657D02*
Y029777D01*
X046742Y032662D02*
X046862D01*
X046802Y032602D02*
Y032722D01*
X046828Y031398D02*
X046948D01*
X046888Y031338D02*
Y031458D01*
X042271Y027998D02*
X042391D01*
X042331Y027938D02*
Y028058D01*
X042561Y02828D02*
X042681D01*
X042621Y02822D02*
Y02834D01*
X042305Y029402D02*
X042425D01*
X042365Y029342D02*
Y029462D01*
X041967Y028607D02*
X042087D01*
X042027Y028547D02*
Y028667D01*
X046569Y028582D02*
X046689D01*
X046629Y028522D02*
Y028642D01*
X058171Y027169D02*
X058291D01*
X058231Y027109D02*
Y027229D01*
X04194Y030547D02*
X04206D01*
X042Y030487D02*
Y030607D01*
X048503Y030683D02*
X048623D01*
X048563Y030623D02*
Y030743D01*
X038522Y026331D02*
X038642D01*
X038582Y026271D02*
Y026391D01*
X04033Y026918D02*
X04045D01*
X04039Y026858D02*
Y026978D01*
X042395Y026371D02*
X042515D01*
X042455Y026311D02*
Y026431D01*
X042974Y026335D02*
X043094D01*
X043034Y026275D02*
Y026395D01*
X045796Y025995D02*
X045896D01*
X045846Y025945D02*
Y026045D01*
X045284Y026181D02*
X045384D01*
X045334Y026131D02*
Y026231D01*
X04883Y031063D02*
X04895D01*
X04889Y031003D02*
Y031123D01*
X039477Y033086D02*
X039597D01*
X039537Y033026D02*
Y033146D01*
X040088Y035751D02*
X040208D01*
X040148Y035691D02*
Y035811D01*
X031374Y024424D02*
X031494D01*
X031434Y024364D02*
Y024484D01*
X031323Y023079D02*
X031443D01*
X031383Y023019D02*
Y023139D01*
X054607Y026579D02*
X054727D01*
X054667Y026519D02*
Y026639D01*
X024776Y035544D02*
X024896D01*
X024836Y035484D02*
Y035604D01*
X022218Y041208D02*
X022338D01*
X022278Y041148D02*
Y041268D01*
X04936Y027402D02*
X04948D01*
X04942Y027342D02*
Y027462D01*
X055218Y029657D02*
X055338D01*
X055278Y029597D02*
Y029717D01*
X056989Y03148D02*
X057089D01*
X057039Y03143D02*
Y03153D01*
X055206Y03272D02*
X055306D01*
X055256Y03267D02*
Y03277D01*
M02*
