G04*
G04 #@! TF.GenerationSoftware,Altium Limited,Altium Designer,21.3.2 (30)*
G04*
G04 Layer_Color=8388736*
%FSTAX24Y24*%
%MOIN*%
G70*
G04*
G04 #@! TF.SameCoordinates,BE8E01B3-19C9-4167-8173-06ED14820A8A*
G04*
G04*
G04 #@! TF.FilePolarity,Negative*
G04*
G01*
G75*
%ADD49R,0.0671X0.0474*%
%ADD50R,0.0474X0.0966*%
%ADD51R,0.0552X0.0631*%
G04:AMPARAMS|DCode=52|XSize=224.5mil|YSize=67.1mil|CornerRadius=11.4mil|HoleSize=0mil|Usage=FLASHONLY|Rotation=90.000|XOffset=0mil|YOffset=0mil|HoleType=Round|Shape=RoundedRectangle|*
%AMROUNDEDRECTD52*
21,1,0.2245,0.0443,0,0,90.0*
21,1,0.2018,0.0671,0,0,90.0*
1,1,0.0228,0.0221,0.1009*
1,1,0.0228,0.0221,-0.1009*
1,1,0.0228,-0.0221,-0.1009*
1,1,0.0228,-0.0221,0.1009*
%
%ADD52ROUNDEDRECTD52*%
%ADD53R,0.1064X0.1064*%
%ADD54R,0.0454X0.0434*%
%ADD55R,0.0671X0.1064*%
%ADD56R,0.0395X0.0552*%
%ADD57R,0.0946X0.0316*%
%ADD58R,0.0631X0.0552*%
%ADD59O,0.0710X0.0966*%
%ADD60R,0.2836X0.4017*%
%ADD61R,0.1280X0.0474*%
%ADD62R,0.0580X0.0630*%
%ADD63O,0.0789X0.0316*%
%ADD64O,0.0946X0.0316*%
%ADD65R,0.0789X0.0611*%
%ADD66R,0.0552X0.0395*%
%ADD67O,0.0198X0.0651*%
%ADD68O,0.0651X0.0198*%
%ADD69R,0.1064X0.0671*%
%ADD70R,0.0630X0.0580*%
%ADD71R,0.0749X0.1064*%
%ADD72R,0.1025X0.0474*%
%ADD73R,0.1025X0.1379*%
%ADD74C,0.0560*%
%ADD75C,0.0710*%
%ADD76R,0.0710X0.0710*%
%ADD77R,0.1064X0.0867*%
%ADD78R,0.1064X0.1261*%
%ADD79R,0.0867X0.1064*%
%ADD80O,0.1080X0.0880*%
%ADD81R,0.1080X0.0880*%
%ADD82O,0.0730X0.0980*%
%ADD83C,0.1954*%
%ADD84R,0.0730X0.0980*%
%ADD85R,0.0907X0.0907*%
%ADD86C,0.0907*%
%ADD87C,0.0980*%
D49*
X023772Y022372D02*
D03*
Y021585D02*
D03*
Y020797D02*
D03*
Y02001D02*
D03*
Y019222D02*
D03*
Y018435D02*
D03*
D50*
X023181Y017402D02*
D03*
X022394D02*
D03*
X021606D02*
D03*
X020819D02*
D03*
X020031D02*
D03*
X019244D02*
D03*
X018457D02*
D03*
X017669D02*
D03*
Y023406D02*
D03*
X018457D02*
D03*
X019244D02*
D03*
X020031D02*
D03*
X020819D02*
D03*
X021606D02*
D03*
X022394D02*
D03*
X023181D02*
D03*
D51*
X034779Y029179D02*
D03*
X034031D02*
D03*
X034773Y030065D02*
D03*
X034025D02*
D03*
X018165Y015673D02*
D03*
X017417D02*
D03*
X019094Y024617D02*
D03*
X019842D02*
D03*
X020689D02*
D03*
X021437D02*
D03*
X023028Y024615D02*
D03*
X02228D02*
D03*
X041655Y026481D02*
D03*
X040907D02*
D03*
X056869Y036322D02*
D03*
X056121D02*
D03*
X054587D02*
D03*
X053839D02*
D03*
X052305D02*
D03*
X051557D02*
D03*
X050024D02*
D03*
X049276D02*
D03*
X047742D02*
D03*
X046994D02*
D03*
X04546D02*
D03*
X044712D02*
D03*
X043178D02*
D03*
X04243D02*
D03*
X040896D02*
D03*
X040148D02*
D03*
X038615D02*
D03*
X037866D02*
D03*
X036333D02*
D03*
X035585D02*
D03*
X034051D02*
D03*
X033303D02*
D03*
X031769D02*
D03*
X031021D02*
D03*
X052022Y018357D02*
D03*
X05277D02*
D03*
X05515Y042098D02*
D03*
X055898D02*
D03*
X05313Y04213D02*
D03*
X053878D02*
D03*
X050874Y042067D02*
D03*
X051622D02*
D03*
X048701Y042047D02*
D03*
X049449D02*
D03*
X046693Y042022D02*
D03*
X047441D02*
D03*
X044217Y041996D02*
D03*
X044965D02*
D03*
X039893Y042022D02*
D03*
X040641D02*
D03*
X037621Y041998D02*
D03*
X038369D02*
D03*
X027986Y024472D02*
D03*
X028734D02*
D03*
X027986Y023166D02*
D03*
X028734D02*
D03*
X057418Y019247D02*
D03*
X058166D02*
D03*
X057421Y020465D02*
D03*
X058169D02*
D03*
X057403Y022153D02*
D03*
X058151D02*
D03*
X057421Y023394D02*
D03*
X058169D02*
D03*
X041676Y034295D02*
D03*
X042424D02*
D03*
X022433Y029189D02*
D03*
X021685D02*
D03*
X03464Y02461D02*
D03*
X033891D02*
D03*
X031569Y041998D02*
D03*
X030821D02*
D03*
X033819D02*
D03*
X033071D02*
D03*
X036053Y042027D02*
D03*
X035305D02*
D03*
X042616Y041976D02*
D03*
X041868D02*
D03*
X043657Y02461D02*
D03*
X042909D02*
D03*
X039118D02*
D03*
X03837D02*
D03*
X045764D02*
D03*
X045016D02*
D03*
X038897Y018362D02*
D03*
X038149D02*
D03*
X0481Y02461D02*
D03*
X047352D02*
D03*
X045833Y018357D02*
D03*
X045085D02*
D03*
X048145D02*
D03*
X047397D02*
D03*
X050439Y02461D02*
D03*
X049691D02*
D03*
X036817D02*
D03*
X036069D02*
D03*
X050458Y018338D02*
D03*
X04971D02*
D03*
X043521Y018357D02*
D03*
X042773D02*
D03*
X036585Y01837D02*
D03*
X035837D02*
D03*
X041449Y02461D02*
D03*
X040701D02*
D03*
X052029D02*
D03*
X052777D02*
D03*
X041209Y018357D02*
D03*
X040461D02*
D03*
X034273Y018362D02*
D03*
X033525D02*
D03*
D52*
X037496Y031197D02*
D03*
Y02785D02*
D03*
D53*
X028372Y028198D02*
D03*
Y03497D02*
D03*
D54*
X017392Y016424D02*
D03*
X017983D02*
D03*
X024372Y024757D02*
D03*
X023781D02*
D03*
D55*
X025224Y02446D02*
D03*
Y023121D02*
D03*
D56*
X026564Y022484D02*
D03*
Y02524D02*
D03*
D57*
X025909Y020583D02*
D03*
Y020083D02*
D03*
Y019583D02*
D03*
Y019083D02*
D03*
Y018583D02*
D03*
Y018083D02*
D03*
Y017583D02*
D03*
Y017083D02*
D03*
X028157Y020583D02*
D03*
Y020083D02*
D03*
Y019583D02*
D03*
Y019083D02*
D03*
Y018583D02*
D03*
Y018083D02*
D03*
Y017583D02*
D03*
Y017083D02*
D03*
D58*
X048436Y027412D02*
D03*
Y026664D02*
D03*
X040035Y027736D02*
D03*
Y028484D02*
D03*
Y029981D02*
D03*
Y029233D02*
D03*
Y031053D02*
D03*
Y031801D02*
D03*
X059854Y029201D02*
D03*
Y028453D02*
D03*
X040035Y033862D02*
D03*
Y033114D02*
D03*
X019035Y016379D02*
D03*
Y015631D02*
D03*
X030822Y017288D02*
D03*
Y018036D02*
D03*
X02983Y01804D02*
D03*
Y017292D02*
D03*
Y01882D02*
D03*
Y019568D02*
D03*
X030819Y01956D02*
D03*
Y018812D02*
D03*
X059866Y032723D02*
D03*
Y031975D02*
D03*
X048703Y033094D02*
D03*
Y032346D02*
D03*
X035717Y030728D02*
D03*
Y02998D02*
D03*
X035693Y02837D02*
D03*
Y029118D02*
D03*
X022452Y028299D02*
D03*
Y027551D02*
D03*
X021658Y0283D02*
D03*
Y027552D02*
D03*
X054658Y032801D02*
D03*
Y032053D02*
D03*
Y034187D02*
D03*
Y033439D02*
D03*
X059854Y033427D02*
D03*
Y034175D02*
D03*
D59*
X050629Y02028D02*
D03*
X049629D02*
D03*
Y023626D02*
D03*
X050629D02*
D03*
X039305Y020203D02*
D03*
X038305D02*
D03*
Y023549D02*
D03*
X039305D02*
D03*
X052901Y023676D02*
D03*
X051901D02*
D03*
Y02033D02*
D03*
X052901D02*
D03*
X048356Y023549D02*
D03*
X047356D02*
D03*
Y020203D02*
D03*
X048356D02*
D03*
X046084Y023549D02*
D03*
X045084D02*
D03*
Y020203D02*
D03*
X046084D02*
D03*
X043811Y023549D02*
D03*
X042811D02*
D03*
Y020203D02*
D03*
X043811D02*
D03*
X041558Y023549D02*
D03*
X040558D02*
D03*
Y020203D02*
D03*
X041558D02*
D03*
X037033Y023549D02*
D03*
X036033D02*
D03*
Y020203D02*
D03*
X037033D02*
D03*
X03478Y023549D02*
D03*
X03378D02*
D03*
Y020203D02*
D03*
X03478D02*
D03*
X056943Y040945D02*
D03*
X055943D02*
D03*
Y037599D02*
D03*
X056943D02*
D03*
X054653Y040945D02*
D03*
X053653D02*
D03*
Y037599D02*
D03*
X054653D02*
D03*
X052362Y040945D02*
D03*
X051362D02*
D03*
Y037599D02*
D03*
X052362D02*
D03*
X050072Y040945D02*
D03*
X049072D02*
D03*
Y037599D02*
D03*
X050072D02*
D03*
X047781Y040945D02*
D03*
X046781D02*
D03*
Y037599D02*
D03*
X047781D02*
D03*
X045491Y040945D02*
D03*
X044491D02*
D03*
Y037599D02*
D03*
X045491D02*
D03*
X0432Y040945D02*
D03*
X0422D02*
D03*
Y037599D02*
D03*
X0432D02*
D03*
X04091Y040945D02*
D03*
X03991D02*
D03*
Y037599D02*
D03*
X04091D02*
D03*
X038619Y040945D02*
D03*
X037619D02*
D03*
Y037599D02*
D03*
X038619D02*
D03*
X036329Y040945D02*
D03*
X035329D02*
D03*
Y037599D02*
D03*
X036329D02*
D03*
X034038Y040945D02*
D03*
X033038D02*
D03*
Y037599D02*
D03*
X034038D02*
D03*
X031748Y040945D02*
D03*
X030748D02*
D03*
Y037599D02*
D03*
X031748D02*
D03*
D60*
X018771Y036052D02*
D03*
D61*
X023371Y037502D02*
D03*
Y036802D02*
D03*
Y036102D02*
D03*
Y035402D02*
D03*
Y034702D02*
D03*
D62*
X02974Y024449D02*
D03*
X03064D02*
D03*
X02974Y023138D02*
D03*
X03064D02*
D03*
D63*
X058348Y032093D02*
D03*
Y032593D02*
D03*
Y033093D02*
D03*
Y033593D02*
D03*
X056124Y032093D02*
D03*
Y032593D02*
D03*
Y033093D02*
D03*
Y033593D02*
D03*
Y026313D02*
D03*
Y025813D02*
D03*
Y025313D02*
D03*
Y024813D02*
D03*
X058348Y026313D02*
D03*
Y025813D02*
D03*
Y025313D02*
D03*
Y024813D02*
D03*
D64*
X058425Y028152D02*
D03*
Y028652D02*
D03*
Y029152D02*
D03*
Y029652D02*
D03*
X056535Y028152D02*
D03*
Y028652D02*
D03*
Y029152D02*
D03*
Y029652D02*
D03*
D65*
X056378Y020567D02*
D03*
Y019248D02*
D03*
Y022157D02*
D03*
Y023476D02*
D03*
D66*
X037027Y033615D02*
D03*
X034271D02*
D03*
D67*
X042087Y033409D02*
D03*
X042283D02*
D03*
X04248D02*
D03*
X042677D02*
D03*
X042874D02*
D03*
X043071D02*
D03*
X043268D02*
D03*
X043465D02*
D03*
X043661D02*
D03*
X043858D02*
D03*
X044055D02*
D03*
X044252D02*
D03*
X044449D02*
D03*
X044646D02*
D03*
X044843D02*
D03*
X045039D02*
D03*
X045236D02*
D03*
X045433D02*
D03*
X04563D02*
D03*
X045827D02*
D03*
X046024D02*
D03*
X04622D02*
D03*
X046417D02*
D03*
X046614D02*
D03*
X046811D02*
D03*
Y027327D02*
D03*
X046614D02*
D03*
X046417D02*
D03*
X04622D02*
D03*
X046024D02*
D03*
X045827D02*
D03*
X04563D02*
D03*
X045433D02*
D03*
X045236D02*
D03*
X045039D02*
D03*
X044843D02*
D03*
X044646D02*
D03*
X044449D02*
D03*
X044252D02*
D03*
X044055D02*
D03*
X043858D02*
D03*
X043661D02*
D03*
X043465D02*
D03*
X043268D02*
D03*
X043071D02*
D03*
X042874D02*
D03*
X042677D02*
D03*
X04248D02*
D03*
X042283D02*
D03*
X042087D02*
D03*
D68*
X04749Y03273D02*
D03*
Y032533D02*
D03*
Y032337D02*
D03*
Y03214D02*
D03*
Y031943D02*
D03*
Y031746D02*
D03*
Y031549D02*
D03*
Y031352D02*
D03*
Y031156D02*
D03*
Y030959D02*
D03*
Y030762D02*
D03*
Y030565D02*
D03*
Y030368D02*
D03*
Y030171D02*
D03*
Y029974D02*
D03*
Y029778D02*
D03*
Y029581D02*
D03*
Y029384D02*
D03*
Y029187D02*
D03*
Y02899D02*
D03*
Y028793D02*
D03*
Y028596D02*
D03*
Y0284D02*
D03*
Y028203D02*
D03*
Y028006D02*
D03*
X041407D02*
D03*
Y028203D02*
D03*
Y0284D02*
D03*
Y028596D02*
D03*
Y028793D02*
D03*
Y02899D02*
D03*
Y029187D02*
D03*
Y029384D02*
D03*
Y029581D02*
D03*
Y029778D02*
D03*
Y029974D02*
D03*
Y030171D02*
D03*
Y030368D02*
D03*
Y030565D02*
D03*
Y030762D02*
D03*
Y030959D02*
D03*
Y031156D02*
D03*
Y031352D02*
D03*
Y031549D02*
D03*
Y031746D02*
D03*
Y031943D02*
D03*
Y03214D02*
D03*
Y032337D02*
D03*
Y032533D02*
D03*
Y03273D02*
D03*
D69*
X023531Y029197D02*
D03*
X02487D02*
D03*
D70*
X023485Y028289D02*
D03*
Y027389D02*
D03*
D71*
X023648Y041367D02*
D03*
Y039793D02*
D03*
D72*
X020188Y02737D02*
D03*
Y028276D02*
D03*
Y029181D02*
D03*
D73*
X017905Y028276D02*
D03*
D74*
X033362Y030812D02*
D03*
X032362D02*
D03*
D75*
X051643Y033948D02*
D03*
X050643D02*
D03*
X049643D02*
D03*
X03133Y025576D02*
D03*
X03033D02*
D03*
X02933D02*
D03*
D76*
X048643Y033948D02*
D03*
X03233Y025576D02*
D03*
D77*
X061822Y025059D02*
D03*
Y027059D02*
D03*
Y031059D02*
D03*
Y029059D02*
D03*
Y027054D02*
D03*
Y031059D02*
D03*
Y029059D02*
D03*
Y035159D02*
D03*
Y037159D02*
D03*
Y033154D02*
D03*
Y020959D02*
D03*
Y022959D02*
D03*
Y018954D02*
D03*
D78*
X037645Y043994D02*
D03*
X035645D02*
D03*
X031645D02*
D03*
X033645D02*
D03*
X041645D02*
D03*
X039645D02*
D03*
X043645D02*
D03*
X045645D02*
D03*
D79*
X0462Y01255D02*
D03*
X0482D02*
D03*
X0522D02*
D03*
X0502D02*
D03*
X0442D02*
D03*
X0341D02*
D03*
X0401D02*
D03*
X0421D02*
D03*
X0381D02*
D03*
X0361D02*
D03*
X055681Y043992D02*
D03*
X049681D02*
D03*
X047681D02*
D03*
X051681D02*
D03*
X053681D02*
D03*
X028551Y044022D02*
D03*
X026551D02*
D03*
D80*
X03392Y0148D02*
D03*
Y0158D02*
D03*
X036375Y0148D02*
D03*
Y0158D02*
D03*
X038792Y0148D02*
D03*
Y0158D02*
D03*
X041208Y0148D02*
D03*
Y0158D02*
D03*
X043624D02*
D03*
Y0148D02*
D03*
X04604D02*
D03*
Y0158D02*
D03*
X048457Y0148D02*
D03*
Y0158D02*
D03*
X050873Y0148D02*
D03*
Y0158D02*
D03*
X053289Y0148D02*
D03*
Y0158D02*
D03*
D81*
X03392Y0168D02*
D03*
X036375D02*
D03*
X038792D02*
D03*
X041208D02*
D03*
X043624D02*
D03*
X04604D02*
D03*
X048457D02*
D03*
X050873D02*
D03*
X053289D02*
D03*
D82*
X025795Y013839D02*
D03*
X027976D02*
D03*
X027431Y014957D02*
D03*
X026886Y013839D02*
D03*
X026341Y014957D02*
D03*
X02525D02*
D03*
X024705Y013839D02*
D03*
X024159Y014957D02*
D03*
D83*
X021421Y014398D02*
D03*
X03126D02*
D03*
D84*
X028522Y014957D02*
D03*
D85*
X022807Y031461D02*
D03*
X019357Y041654D02*
D03*
X018978Y031461D02*
D03*
D86*
X022807Y032839D02*
D03*
X019357Y039654D02*
D03*
X018978Y032839D02*
D03*
D87*
X026843Y039402D02*
D03*
Y041402D02*
D03*
M02*
